SplineFontDB: 3.0
FontName: Coda-Heavy
FullName: Coda-Heavy
FamilyName: Coda
Weight: Black
Copyright: Copyright (c) 2009 by vernon adams. All rights reserved.
Version: 1.000;PS 001.001;hotconv 1.0.56
ItalicAngle: 0
UnderlinePosition: -103
UnderlineWidth: 102
Ascent: 1638
Descent: 410
sfntRevision: 0x00010000
LayerCount: 2
Layer: 0 1 "Back"  1
Layer: 1 1 "Fore"  0
NeedsXUIDChange: 1
XUID: [1021 14 500265001 13710091]
FSType: 256
OS2Version: 2
OS2_WeightWidthSlopeOnly: 0
OS2_UseTypoMetrics: 1
CreationTime: 1313148003
ModificationTime: 1316782638
PfmFamily: 17
TTFWeight: 900
TTFWidth: 1
LineGap: 0
VLineGap: 0
Panose: 2 0 5 5 2 0 0 2 0 4
OS2TypoAscent: 72
OS2TypoAOffset: 1
OS2TypoDescent: 2
OS2TypoDOffset: 1
OS2TypoLinegap: 0
OS2WinAscent: -44
OS2WinAOffset: 1
OS2WinDescent: -228
OS2WinDOffset: 1
HheadAscent: -573
HheadAOffset: 1
HheadDescent: 314
HheadDOffset: 1
OS2SubXSize: 1331
OS2SubYSize: 1228
OS2SubXOff: 0
OS2SubYOff: 153
OS2SupXSize: 1331
OS2SupYSize: 1228
OS2SupXOff: 0
OS2SupYOff: 716
OS2StrikeYSize: 102
OS2StrikeYPos: 780
OS2Vendor: 'newt'
OS2CodePages: 20000093.00000000
OS2UnicodeRanges: 00000007.00000000.00000000.00000000
Lookup: 258 0 0 "'kern' Horizontal Kerning lookup 0"  {"'kern' Horizontal Kerning lookup 0 subtable"  } ['kern' ('DFLT' <'dflt' > ) ]
DEI: 91125
KernClass2: 2+ 3 "'kern' Horizontal Kerning lookup 0 subtable" 
 1 A
 1 T
 1 T
 11 a c d e o q
 0 {} -107 {} -17 {} 0 {} 0 {} -102 {}
ShortTable: maxp 16
  1
  0
  332
  127
  5
  77
  3
  1
  0
  0
  0
  0
  0
  0
  2
  1
EndShort

StartChar: numbersign
Encoding: 35 35 4
Width: 1823
Flags: W
LayerCount: 2
Fore
SplineSet
1475 420 m 1,0,-1
 1475 404 l 1,1,-1
 1416 0 l 1,2,-1
 895 0 l 1,3,-1
 956 398 l 1,4,-1
 956 419 l 1,5,-1
 749 419 l 1,6,-1
 749 403 l 1,7,-1
 691 0 l 1,8,-1
 169 0 l 1,9,-1
 228 398 l 1,10,-1
 228 419 l 1,11,-1
 93 419 l 1,12,-1
 113 568 l 1,13,-1
 261 568 l 1,14,-1
 261 585 l 1,15,-1
 312 949 l 1,16,-1
 312 971 l 1,17,-1
 161 971 l 1,18,-1
 187 1135 l 1,19,-1
 349 1135 l 1,20,-1
 349 1151 l 1,21,-1
 401 1521 l 1,22,-1
 920 1521 l 1,23,-1
 869 1156 l 1,24,-1
 869 1135 l 1,25,-1
 1073 1135 l 1,26,-1
 1073 1151 l 1,27,-1
 1128 1521 l 1,28,-1
 1645 1521 l 1,29,-1
 1594 1156 l 1,30,-1
 1594 1135 l 1,31,-1
 1745 1135 l 1,32,-1
 1718 972 l 1,33,-1
 1559 972 l 1,34,-1
 1559 956 l 1,35,-1
 1505 590 l 1,36,-1
 1505 568 l 1,37,-1
 1672 568 l 1,38,-1
 1649 420 l 1,39,-1
 1475 420 l 1,0,-1
985 568 m 1,40,-1
 985 585 l 1,41,-1
 1040 949 l 1,42,-1
 1040 971 l 1,43,-1
 834 971 l 1,44,-1
 834 955 l 1,45,-1
 781 590 l 1,46,-1
 781 568 l 1,47,-1
 985 568 l 1,40,-1
EndSplineSet
EndChar

StartChar: dollar
Encoding: 36 36 5
Width: 1565
Flags: W
LayerCount: 2
Fore
SplineSet
744 21 m 1,0,1
 612 22 612 22 500.5 34.5 c 128,-1,2
 389 47 389 47 308 86 c 128,-1,3
 227 125 227 125 181.5 199 c 128,-1,4
 136 273 136 273 136 397 c 0,5,6
 136 410 136 410 136 414 c 128,-1,7
 136 418 136 418 137 433 c 1,8,-1
 656 401 l 1,9,-1
 656 238 l 1,10,-1
 744 238 l 1,11,-1
 744 573 l 1,12,13
 667 586 667 586 590 601.5 c 128,-1,14
 513 617 513 617 442 640.5 c 128,-1,15
 371 664 371 664 309.5 696.5 c 128,-1,16
 248 729 248 729 202 776.5 c 128,-1,17
 156 824 156 824 130 888 c 128,-1,18
 104 952 104 952 104 1037 c 0,19,20
 104 1170 104 1170 153.5 1254 c 128,-1,21
 203 1338 203 1338 289 1385 c 128,-1,22
 375 1432 375 1432 492 1450 c 128,-1,23
 609 1468 609 1468 744 1470 c 1,24,-1
 744 1652 l 1,25,-1
 826 1652 l 1,26,-1
 826 1471 l 1,27,28
 944 1470 944 1470 1042 1461 c 128,-1,29
 1140 1452 1140 1452 1222 1429 c 1,30,31
 1288 1408 1288 1408 1329.5 1378 c 128,-1,32
 1371 1348 1371 1348 1394.5 1310 c 128,-1,33
 1418 1272 1418 1272 1426.5 1227 c 128,-1,34
 1435 1182 1435 1182 1435 1131 c 0,35,36
 1435 1111 1435 1111 1434.5 1099.5 c 128,-1,37
 1434 1088 1434 1088 1432 1068 c 1,38,-1
 913 1096 l 1,39,-1
 913 1254 l 1,40,-1
 826 1254 l 1,41,-1
 826 937 l 1,42,43
 900 923 900 923 976 907.5 c 128,-1,44
 1052 892 1052 892 1122.5 869 c 128,-1,45
 1193 846 1193 846 1255.5 813.5 c 128,-1,46
 1318 781 1318 781 1364 735 c 128,-1,47
 1410 689 1410 689 1437 626 c 128,-1,48
 1464 563 1464 563 1464 479 c 0,49,50
 1464 343 1464 343 1420.5 255.5 c 128,-1,51
 1377 168 1377 168 1294.5 117 c 128,-1,52
 1212 66 1212 66 1093.5 45 c 128,-1,53
 975 24 975 24 826 22 c 1,54,-1
 826 -165 l 1,55,-1
 744 -165 l 1,56,-1
 744 21 l 1,0,1
826 559 m 1,57,-1
 826 238 l 1,58,-1
 913 238 l 1,59,-1
 913 544 l 1,60,-1
 826 559 l 1,57,-1
686 963 m 2,61,62
 691 963 691 963 697.5 962 c 128,-1,63
 704 961 704 961 704 960 c 2,64,-1
 744 951 l 1,65,-1
 744 1254 l 1,66,-1
 656 1254 l 1,67,-1
 656 969 l 1,68,-1
 686 963 l 2,61,62
EndSplineSet
EndChar

StartChar: percent
Encoding: 37 37 6
Width: 2850
Flags: W
LayerCount: 2
Fore
SplineSet
528 1347 m 1,0,-1
 528 776 l 1,1,-1
 623 776 l 1,2,-1
 623 1347 l 1,3,-1
 528 1347 l 1,0,-1
573 603 m 0,4,5
 514 603 514 603 456.5 604.5 c 128,-1,6
 399 606 399 606 347 614.5 c 128,-1,7
 295 623 295 623 251 640.5 c 128,-1,8
 207 658 207 658 174.5 689.5 c 128,-1,9
 142 721 142 721 123.5 769 c 128,-1,10
 105 817 105 817 105 887 c 2,11,-1
 105 1238 l 2,12,13
 105 1304 105 1304 123.5 1351 c 128,-1,14
 142 1398 142 1398 174.5 1429.5 c 128,-1,15
 207 1461 207 1461 251.5 1479 c 128,-1,16
 296 1497 296 1497 348 1506.5 c 128,-1,17
 400 1516 400 1516 457 1518.5 c 128,-1,18
 514 1521 514 1521 572 1521 c 0,19,20
 629 1521 629 1521 686 1518.5 c 128,-1,21
 743 1516 743 1516 795 1507 c 128,-1,22
 847 1498 847 1498 892 1480 c 128,-1,23
 937 1462 937 1462 970 1430.5 c 128,-1,24
 1003 1399 1003 1399 1022 1352.5 c 128,-1,25
 1041 1306 1041 1306 1041 1240 c 2,26,-1
 1041 889 l 2,27,28
 1041 821 1041 821 1022.5 773 c 128,-1,29
 1004 725 1004 725 971 693.5 c 128,-1,30
 938 662 938 662 893.5 644 c 128,-1,31
 849 626 849 626 797 616.5 c 128,-1,32
 745 607 745 607 688 605 c 128,-1,33
 631 603 631 603 573 603 c 0,4,5
2234 873 m 1,34,-1
 2234 301 l 1,35,-1
 2328 301 l 1,36,-1
 2328 873 l 1,37,-1
 2234 873 l 1,34,-1
2279 127 m 0,38,39
 2191 127 2191 127 2107 133.5 c 128,-1,40
 2023 140 2023 140 1957 168.5 c 128,-1,41
 1891 197 1891 197 1851 254 c 128,-1,42
 1811 311 1811 311 1811 412 c 2,43,-1
 1811 760 l 2,44,45
 1811 827 1811 827 1829.5 874 c 128,-1,46
 1848 921 1848 921 1880 953 c 128,-1,47
 1912 985 1912 985 1956.5 1003 c 128,-1,48
 2001 1021 2001 1021 2053 1030.5 c 128,-1,49
 2105 1040 2105 1040 2162 1042.5 c 128,-1,50
 2219 1045 2219 1045 2278 1045 c 0,51,52
 2336 1045 2336 1045 2393.5 1042.5 c 128,-1,53
 2451 1040 2451 1040 2503 1031 c 128,-1,54
 2555 1022 2555 1022 2599.5 1003.5 c 128,-1,55
 2644 985 2644 985 2677 953.5 c 128,-1,56
 2710 922 2710 922 2728.5 875 c 128,-1,57
 2747 828 2747 828 2747 761 c 2,58,-1
 2747 413 l 2,59,60
 2747 347 2747 347 2728.5 300 c 128,-1,61
 2710 253 2710 253 2677 221.5 c 128,-1,62
 2644 190 2644 190 2599.5 171 c 128,-1,63
 2555 152 2555 152 2503 142.5 c 128,-1,64
 2451 133 2451 133 2393.5 130 c 128,-1,65
 2336 127 2336 127 2279 127 c 0,38,39
1436 -38 m 1,66,-1
 1037 -38 l 1,67,-1
 1422 1557 l 1,68,-1
 1819 1557 l 1,69,-1
 1436 -38 l 1,66,-1
EndSplineSet
EndChar

StartChar: ampersand
Encoding: 38 38 7
Width: 1774
Flags: W
LayerCount: 2
Fore
SplineSet
769 720 m 1,0,-1
 769 180 l 1,1,-1
 988 180 l 1,2,-1
 988 720 l 1,3,-1
 769 720 l 1,0,-1
312 853 m 1,4,5
 286 857 286 857 256.5 875 c 128,-1,6
 227 893 227 893 201.5 928 c 128,-1,7
 176 963 176 963 159 1018 c 128,-1,8
 142 1073 142 1073 142 1151 c 0,9,10
 142 1244 142 1244 172 1310 c 128,-1,11
 202 1376 202 1376 255 1421.5 c 128,-1,12
 308 1467 308 1467 379.5 1493.5 c 128,-1,13
 451 1520 451 1520 535 1534.5 c 128,-1,14
 619 1549 619 1549 710.5 1553 c 128,-1,15
 802 1557 802 1557 894 1557 c 0,16,17
 1055 1557 1055 1557 1178.5 1537 c 128,-1,18
 1302 1517 1302 1517 1385.5 1473 c 128,-1,19
 1469 1429 1469 1429 1512 1360 c 128,-1,20
 1555 1291 1555 1291 1555 1192 c 0,21,22
 1555 1176 1555 1176 1554.5 1168 c 128,-1,23
 1554 1160 1554 1160 1554 1157 c 1,24,-1
 985 1157 l 1,25,-1
 985 1362 l 1,26,-1
 769 1362 l 1,27,-1
 769 869 l 1,28,-1
 988 869 l 1,29,-1
 988 1007 l 1,30,-1
 1555 1007 l 1,31,-1
 1555 869 l 1,32,-1
 1712 869 l 1,33,-1
 1712 720 l 1,34,-1
 1555 720 l 1,35,-1
 1555 482 l 2,36,37
 1555 379 1555 379 1542.5 300.5 c 128,-1,38
 1530 222 1530 222 1499 164 c 128,-1,39
 1468 106 1468 106 1416.5 67 c 128,-1,40
 1365 28 1365 28 1287 4.5 c 128,-1,41
 1209 -19 1209 -19 1101.5 -29 c 128,-1,42
 994 -39 994 -39 852 -39 c 0,43,44
 747 -39 747 -39 653 -33.5 c 128,-1,45
 559 -28 559 -28 480.5 -10.5 c 128,-1,46
 402 7 402 7 339.5 38.5 c 128,-1,47
 277 70 277 70 233 121.5 c 128,-1,48
 189 173 189 173 166 247.5 c 128,-1,49
 143 322 143 322 143 426 c 0,50,51
 143 465 143 465 152 518 c 128,-1,52
 161 571 161 571 181.5 620.5 c 128,-1,53
 202 670 202 670 234 707 c 128,-1,54
 266 744 266 744 312 751 c 1,55,-1
 428 766 l 1,56,-1
 428 841 l 1,57,-1
 312 853 l 1,4,5
EndSplineSet
EndChar

StartChar: quotesingle
Encoding: 39 39 8
Width: 637
Flags: W
LayerCount: 2
Fore
SplineSet
253 861 m 1,0,1
 243 903 243 903 228.5 952.5 c 128,-1,2
 214 1002 214 1002 199 1053.5 c 128,-1,3
 184 1105 184 1105 169 1157 c 128,-1,4
 154 1209 154 1209 142.5 1255 c 128,-1,5
 131 1301 131 1301 123.5 1339 c 128,-1,6
 116 1377 116 1377 116 1402 c 0,7,8
 116 1441 116 1441 132.5 1469.5 c 128,-1,9
 149 1498 149 1498 176 1517 c 128,-1,10
 203 1536 203 1536 237.5 1545 c 128,-1,11
 272 1554 272 1554 309 1554 c 256,12,13
 346 1554 346 1554 382.5 1544 c 128,-1,14
 419 1534 419 1534 447.5 1514.5 c 128,-1,15
 476 1495 476 1495 493.5 1466.5 c 128,-1,16
 511 1438 511 1438 511 1400 c 0,17,18
 511 1379 511 1379 503.5 1343.5 c 128,-1,19
 496 1308 496 1308 484.5 1264.5 c 128,-1,20
 473 1221 473 1221 459 1173 c 128,-1,21
 445 1125 445 1125 431 1081 c 2,22,-1
 418 1039 l 2,23,24
 404 994 404 994 391.5 946.5 c 128,-1,25
 379 899 379 899 369 861 c 1,26,27
 362 841 362 841 345 830 c 128,-1,28
 328 819 328 819 311 819 c 0,29,30
 291 819 291 819 275 829.5 c 128,-1,31
 259 840 259 840 253 863 c 1,32,-1
 253 861 l 1,0,1
EndSplineSet
EndChar

StartChar: parenleft
Encoding: 40 40 9
Width: 694
Flags: W
LayerCount: 2
Fore
SplineSet
130 790 m 256,0,1
 130 905 130 905 144.5 1019 c 128,-1,2
 159 1133 159 1133 188 1236.5 c 128,-1,3
 217 1340 217 1340 260.5 1428.5 c 128,-1,4
 304 1517 304 1517 362 1582.5 c 128,-1,5
 420 1648 420 1648 493 1685 c 128,-1,6
 566 1722 566 1722 654 1722 c 2,7,-1
 750 1722 l 1,8,-1
 750 1577 l 1,9,-1
 682 1577 l 2,10,11
 628 1577 628 1577 581.5 1545.5 c 128,-1,12
 535 1514 535 1514 497 1458.5 c 128,-1,13
 459 1403 459 1403 429.5 1328 c 128,-1,14
 400 1253 400 1253 380 1165.5 c 128,-1,15
 360 1078 360 1078 349.5 982 c 128,-1,16
 339 886 339 886 339 790 c 0,17,18
 339 693 339 693 349.5 598 c 128,-1,19
 360 503 360 503 380 417.5 c 128,-1,20
 400 332 400 332 429.5 259 c 128,-1,21
 459 186 459 186 497 132.5 c 128,-1,22
 535 79 535 79 581.5 49 c 128,-1,23
 628 19 628 19 682 19 c 2,24,-1
 750 19 l 1,25,-1
 750 -125 l 1,26,-1
 654 -125 l 2,27,28
 566 -125 566 -125 493 -89 c 128,-1,29
 420 -53 420 -53 362 10 c 128,-1,30
 304 73 304 73 260.5 159.5 c 128,-1,31
 217 246 217 246 188 348 c 128,-1,32
 159 450 159 450 144.5 562.5 c 128,-1,33
 130 675 130 675 130 790 c 256,0,1
EndSplineSet
EndChar

StartChar: parenright
Encoding: 41 41 10
Width: 698
Flags: W
LayerCount: 2
Fore
SplineSet
573 790 m 256,0,1
 573 675 573 675 558.5 562.5 c 128,-1,2
 544 450 544 450 515 348 c 128,-1,3
 486 246 486 246 442.5 159.5 c 128,-1,4
 399 73 399 73 341 10 c 128,-1,5
 283 -53 283 -53 210 -89 c 128,-1,6
 137 -125 137 -125 49 -125 c 2,7,-1
 -47 -125 l 1,8,-1
 -47 19 l 1,9,-1
 21 19 l 2,10,11
 75 19 75 19 121.5 49 c 128,-1,12
 168 79 168 79 206 132.5 c 128,-1,13
 244 186 244 186 273.5 259 c 128,-1,14
 303 332 303 332 323 417.5 c 128,-1,15
 343 503 343 503 353.5 598 c 128,-1,16
 364 693 364 693 364 790 c 0,17,18
 364 886 364 886 353.5 982 c 128,-1,19
 343 1078 343 1078 323 1165.5 c 128,-1,20
 303 1253 303 1253 273.5 1328 c 128,-1,21
 244 1403 244 1403 206 1458.5 c 128,-1,22
 168 1514 168 1514 121.5 1545.5 c 128,-1,23
 75 1577 75 1577 21 1577 c 2,24,-1
 -47 1577 l 1,25,-1
 -47 1722 l 1,26,-1
 49 1722 l 2,27,28
 137 1722 137 1722 210 1685 c 128,-1,29
 283 1648 283 1648 341 1582.5 c 128,-1,30
 399 1517 399 1517 442.5 1428.5 c 128,-1,31
 486 1340 486 1340 515 1236.5 c 128,-1,32
 544 1133 544 1133 558.5 1019 c 128,-1,33
 573 905 573 905 573 790 c 256,0,1
EndSplineSet
EndChar

StartChar: asterisk
Encoding: 42 42 11
Width: 1398
Flags: W
LayerCount: 2
Fore
SplineSet
814 469 m 0,0,1
 803 486 803 486 792 513.5 c 128,-1,2
 781 541 781 541 769.5 574.5 c 128,-1,3
 758 608 758 608 746.5 646.5 c 128,-1,4
 735 685 735 685 723 724 c 2,5,-1
 698 807 l 1,6,-1
 671 712 l 2,7,8
 654 653 654 653 636.5 600.5 c 128,-1,9
 619 548 619 548 596 507.5 c 128,-1,10
 573 467 573 467 544 443.5 c 128,-1,11
 515 420 515 420 476 420 c 0,12,13
 444 420 444 420 412.5 430.5 c 128,-1,14
 381 441 381 441 356.5 459 c 128,-1,15
 332 477 332 477 316.5 500 c 128,-1,16
 301 523 301 523 301 549 c 0,17,18
 301 571 301 571 326 603.5 c 128,-1,19
 351 636 351 636 391 675 c 128,-1,20
 431 714 431 714 481.5 758 c 128,-1,21
 532 802 532 802 583 847 c 1,22,-1
 583 880 l 1,23,-1
 536 868 l 2,24,25
 490 856 490 856 444 843.5 c 128,-1,26
 398 831 398 831 356 821.5 c 128,-1,27
 314 812 314 812 278.5 805.5 c 128,-1,28
 243 799 243 799 218 799 c 0,29,30
 184 799 184 799 159 809 c 128,-1,31
 134 819 134 819 117.5 835.5 c 128,-1,32
 101 852 101 852 93 874 c 128,-1,33
 85 896 85 896 85 920 c 256,34,35
 85 944 85 944 93 967 c 128,-1,36
 101 990 101 990 117.5 1008 c 128,-1,37
 134 1026 134 1026 158 1037 c 128,-1,38
 182 1048 182 1048 215 1048 c 0,39,40
 235 1048 235 1048 269 1042 c 128,-1,41
 303 1036 303 1036 343.5 1027 c 128,-1,42
 384 1018 384 1018 427.5 1006.5 c 128,-1,43
 471 995 471 995 509 984 c 1,44,-1
 583 965 l 1,45,-1
 583 998 l 1,46,-1
 527 1048 l 2,47,48
 481 1089 481 1089 440 1126.5 c 128,-1,49
 399 1164 399 1164 368 1197 c 128,-1,50
 337 1230 337 1230 319 1256.5 c 128,-1,51
 301 1283 301 1283 301 1302 c 0,52,53
 301 1328 301 1328 316.5 1350.5 c 128,-1,54
 332 1373 332 1373 357 1390 c 128,-1,55
 382 1407 382 1407 413 1416.5 c 128,-1,56
 444 1426 444 1426 476 1426 c 0,57,58
 511 1426 511 1426 540 1414 c 128,-1,59
 569 1402 569 1402 585 1379 c 1,60,61
 597 1359 597 1359 608.5 1329.5 c 128,-1,62
 620 1300 620 1300 631.5 1265.5 c 128,-1,63
 643 1231 643 1231 654 1192.5 c 128,-1,64
 665 1154 665 1154 676 1117 c 1,65,-1
 698 1033 l 1,66,-1
 727 1134 l 2,67,68
 737 1170 737 1170 748 1205.5 c 128,-1,69
 759 1241 759 1241 769.5 1273 c 128,-1,70
 780 1305 780 1305 791 1332 c 128,-1,71
 802 1359 802 1359 813 1379 c 1,72,73
 827 1402 827 1402 857 1414 c 128,-1,74
 887 1426 887 1426 921 1426 c 0,75,76
 952 1426 952 1426 983 1416 c 128,-1,77
 1014 1406 1014 1406 1039 1389.5 c 128,-1,78
 1064 1373 1064 1373 1080 1350 c 128,-1,79
 1096 1327 1096 1327 1096 1302 c 0,80,81
 1096 1282 1096 1282 1078.5 1256.5 c 128,-1,82
 1061 1231 1061 1231 1031 1200.5 c 128,-1,83
 1001 1170 1001 1170 961.5 1133.5 c 128,-1,84
 922 1097 922 1097 878 1057 c 2,85,-1
 814 998 l 1,86,-1
 814 965 l 1,87,88
 824 966 824 966 834 970 c 128,-1,89
 844 974 844 974 853 976 c 2,90,-1
 885 984 l 2,91,92
 925 994 925 994 967 1005.5 c 128,-1,93
 1009 1017 1009 1017 1048 1026.5 c 128,-1,94
 1087 1036 1087 1036 1120.5 1042 c 128,-1,95
 1154 1048 1154 1048 1177 1048 c 0,96,97
 1210 1048 1210 1048 1235.5 1037.5 c 128,-1,98
 1261 1027 1261 1027 1278.5 1009 c 128,-1,99
 1296 991 1296 991 1304.5 968 c 128,-1,100
 1313 945 1313 945 1313 920 c 0,101,102
 1313 897 1313 897 1305 875.5 c 128,-1,103
 1297 854 1297 854 1281 837 c 128,-1,104
 1265 820 1265 820 1240 809.5 c 128,-1,105
 1215 799 1215 799 1182 799 c 0,106,107
 1162 799 1162 799 1128.5 804.5 c 128,-1,108
 1095 810 1095 810 1054.5 819 c 128,-1,109
 1014 828 1014 828 970 839 c 128,-1,110
 926 850 926 850 886 860 c 1,111,-1
 814 880 l 1,112,-1
 814 847 l 1,113,-1
 868 799 l 2,114,115
 911 761 911 761 952 724 c 128,-1,116
 993 687 993 687 1024.5 654.5 c 128,-1,117
 1056 622 1056 622 1075.5 595 c 128,-1,118
 1095 568 1095 568 1095 549 c 0,119,120
 1095 523 1095 523 1079.5 499.5 c 128,-1,121
 1064 476 1064 476 1039 458.5 c 128,-1,122
 1014 441 1014 441 983 430.5 c 128,-1,123
 952 420 952 420 921 420 c 0,124,125
 888 420 888 420 859.5 431 c 128,-1,126
 831 442 831 442 814 469 c 0,0,1
EndSplineSet
EndChar

StartChar: plus
Encoding: 43 43 12
Width: 1329
Flags: W
LayerCount: 2
Fore
SplineSet
876 1127 m 1,0,-1
 876 754 l 1,1,-1
 1255 754 l 1,2,-1
 1255 468 l 1,3,-1
 876 468 l 1,4,-1
 876 98 l 1,5,-1
 469 98 l 1,6,-1
 469 468 l 1,7,-1
 88 468 l 1,8,-1
 88 754 l 1,9,-1
 469 754 l 1,10,-1
 469 1127 l 1,11,-1
 876 1127 l 1,0,-1
EndSplineSet
EndChar

StartChar: comma
Encoding: 44 44 13
Width: 686
Flags: W
LayerCount: 2
Fore
SplineSet
143 184 m 0,0,1
 143 229 143 229 161 262 c 128,-1,2
 179 295 179 295 209 317.5 c 128,-1,3
 239 340 239 340 277 351 c 128,-1,4
 315 362 315 362 355 362 c 0,5,6
 411 362 411 362 452.5 344.5 c 128,-1,7
 494 327 494 327 521 297 c 128,-1,8
 548 267 548 267 561 228 c 128,-1,9
 574 189 574 189 574 146 c 0,10,11
 574 82 574 82 550 15.5 c 128,-1,12
 526 -51 526 -51 479.5 -105.5 c 128,-1,13
 433 -160 433 -160 365.5 -194.5 c 128,-1,14
 298 -229 298 -229 211 -229 c 0,15,16
 200 -229 200 -229 189 -228.5 c 128,-1,17
 178 -228 178 -228 167 -227 c 1,18,-1
 167 -159 l 1,19,20
 196 -159 196 -159 223.5 -148.5 c 128,-1,21
 251 -138 251 -138 273.5 -120 c 128,-1,22
 296 -102 296 -102 310.5 -76.5 c 128,-1,23
 325 -51 325 -51 329 -20 c 1,24,-1
 329 0 l 1,25,26
 293 3 293 3 259.5 16.5 c 128,-1,27
 226 30 226 30 200 53 c 128,-1,28
 174 76 174 76 158.5 109 c 128,-1,29
 143 142 143 142 143 184 c 0,0,1
EndSplineSet
EndChar

StartChar: hyphen
Encoding: 45 45 14
Width: 1363
Flags: W
LayerCount: 2
Fore
SplineSet
1206 468 m 1,0,-1
 165 468 l 1,1,-1
 165 754 l 1,2,-1
 1206 754 l 1,3,-1
 1206 468 l 1,0,-1
EndSplineSet
EndChar

StartChar: period
Encoding: 46 46 15
Width: 668
Flags: W
LayerCount: 2
Fore
SplineSet
135 148 m 256,0,1
 135 195 135 195 153 230 c 128,-1,2
 171 265 171 265 201 288 c 128,-1,3
 231 311 231 311 269 322.5 c 128,-1,4
 307 334 307 334 347 334 c 0,5,6
 386 334 386 334 424 322.5 c 128,-1,7
 462 311 462 311 492 288 c 128,-1,8
 522 265 522 265 540 230 c 128,-1,9
 558 195 558 195 558 148 c 256,10,11
 558 101 558 101 540 66 c 128,-1,12
 522 31 522 31 492 8 c 128,-1,13
 462 -15 462 -15 424 -26.5 c 128,-1,14
 386 -38 386 -38 347 -38 c 0,15,16
 307 -38 307 -38 269 -26.5 c 128,-1,17
 231 -15 231 -15 201 8 c 128,-1,18
 171 31 171 31 153 66 c 128,-1,19
 135 101 135 101 135 148 c 256,0,1
EndSplineSet
EndChar

StartChar: slash
Encoding: 47 47 16
Width: 927
Flags: W
LayerCount: 2
Fore
SplineSet
419 1521 m 1,0,-1
 867 1521 l 1,1,-1
 511 0 l 1,2,-1
 60 0 l 1,3,-1
 419 1521 l 1,0,-1
EndSplineSet
EndChar

StartChar: zero
Encoding: 48 48 17
Width: 1674
Flags: W
LayerCount: 2
Fore
SplineSet
923 190 m 1,0,-1
 923 1328 l 1,1,-1
 751 1328 l 1,2,-1
 751 190 l 1,3,-1
 923 190 l 1,0,-1
840 -38 m 0,4,5
 758 -38 758 -38 676 -34.5 c 128,-1,6
 594 -31 594 -31 519 -19 c 128,-1,7
 444 -7 444 -7 379.5 16.5 c 128,-1,8
 315 40 315 40 267 80 c 128,-1,9
 219 120 219 120 192 179.5 c 128,-1,10
 165 239 165 239 165 324 c 2,11,-1
 165 1196 l 2,12,13
 165 1281 165 1281 192.5 1341 c 128,-1,14
 220 1401 220 1401 268.5 1441 c 128,-1,15
 317 1481 317 1481 382 1504.5 c 128,-1,16
 447 1528 447 1528 522 1540 c 128,-1,17
 597 1552 597 1552 678 1555 c 128,-1,18
 759 1558 759 1558 839 1558 c 0,19,20
 922 1558 922 1558 1004 1554.5 c 128,-1,21
 1086 1551 1086 1551 1160.5 1538.5 c 128,-1,22
 1235 1526 1235 1526 1299 1502 c 128,-1,23
 1363 1478 1363 1478 1410 1438 c 128,-1,24
 1457 1398 1457 1398 1483.5 1338.5 c 128,-1,25
 1510 1279 1510 1279 1510 1196 c 2,26,-1
 1510 324 l 2,27,28
 1510 237 1510 237 1483 176.5 c 128,-1,29
 1456 116 1456 116 1408.5 75.5 c 128,-1,30
 1361 35 1361 35 1297 12.5 c 128,-1,31
 1233 -10 1233 -10 1158.5 -21.5 c 128,-1,32
 1084 -33 1084 -33 1002.5 -35.5 c 128,-1,33
 921 -38 921 -38 840 -38 c 0,4,5
EndSplineSet
EndChar

StartChar: one
Encoding: 49 49 18
Width: 1096
Flags: W
LayerCount: 2
Fore
SplineSet
48 1261 m 1,0,-1
 48 1439 l 1,1,2
 152 1439 152 1439 242.5 1460 c 128,-1,3
 333 1481 333 1481 402 1521 c 1,4,-1
 906 1521 l 1,5,-1
 906 0 l 1,6,-1
 277 0 l 1,7,-1
 277 1261 l 1,8,-1
 48 1261 l 1,0,-1
EndSplineSet
EndChar

StartChar: two
Encoding: 50 50 19
Width: 1580
Flags: W
LayerCount: 2
Fore
SplineSet
137 1044 m 1,0,1
 136 1055 136 1055 135.5 1063 c 128,-1,2
 135 1071 135 1071 135 1079 c 0,3,4
 135 1224 135 1224 185 1317 c 128,-1,5
 235 1410 235 1410 324 1463.5 c 128,-1,6
 413 1517 413 1517 535.5 1537.5 c 128,-1,7
 658 1558 658 1558 802 1558 c 0,8,9
 966 1558 966 1558 1089.5 1533 c 128,-1,10
 1213 1508 1213 1508 1295 1451.5 c 128,-1,11
 1377 1395 1377 1395 1418 1304 c 128,-1,12
 1459 1213 1459 1213 1459 1080 c 0,13,14
 1459 999 1459 999 1437 934 c 128,-1,15
 1415 869 1415 869 1377 816.5 c 128,-1,16
 1339 764 1339 764 1289 722.5 c 128,-1,17
 1239 681 1239 681 1182 647 c 128,-1,18
 1125 613 1125 613 1065 584.5 c 128,-1,19
 1005 556 1005 556 948 530 c 0,20,21
 907 511 907 511 864.5 488 c 128,-1,22
 822 465 822 465 787.5 434.5 c 128,-1,23
 753 404 753 404 731.5 364.5 c 128,-1,24
 710 325 710 325 710 274 c 2,25,-1
 710 255 l 1,26,-1
 1384 255 l 1,27,-1
 1384 1 l 1,28,-1
 137 1 l 1,29,-1
 137 177 l 2,30,31
 137 263 137 263 157 336.5 c 128,-1,32
 177 410 177 410 212.5 472.5 c 128,-1,33
 248 535 248 535 296.5 587.5 c 128,-1,34
 345 640 345 640 402.5 684.5 c 128,-1,35
 460 729 460 729 523.5 766 c 128,-1,36
 587 803 587 803 652 834 c 0,37,38
 688 851 688 851 726 870.5 c 128,-1,39
 764 890 764 890 796 914.5 c 128,-1,40
 828 939 828 939 848.5 970.5 c 128,-1,41
 869 1002 869 1002 869 1042 c 2,42,-1
 869 1327 l 1,43,-1
 710 1327 l 1,44,-1
 710 1041 l 1,45,-1
 137 1041 l 1,46,-1
 137 1044 l 1,0,1
EndSplineSet
EndChar

StartChar: three
Encoding: 51 51 20
Width: 1611
Flags: W
LayerCount: 2
Fore
SplineSet
797 1557 m 0,0,1
 966 1557 966 1557 1092.5 1532.5 c 128,-1,2
 1219 1508 1219 1508 1303.5 1451 c 128,-1,3
 1388 1394 1388 1394 1430.5 1300.5 c 128,-1,4
 1473 1207 1473 1207 1473 1069 c 0,5,6
 1473 970 1473 970 1416 903 c 128,-1,7
 1359 836 1359 836 1265 801 c 1,8,-1
 1265 765 l 1,9,10
 1371 727 1371 727 1423 656 c 128,-1,11
 1475 585 1475 585 1475 491 c 0,12,13
 1475 334 1475 334 1427 232 c 128,-1,14
 1379 130 1379 130 1291 70 c 128,-1,15
 1203 10 1203 10 1078 -14 c 128,-1,16
 953 -38 953 -38 799 -38 c 0,17,18
 625 -38 625 -38 498.5 -6 c 128,-1,19
 372 26 372 26 290 91.5 c 128,-1,20
 208 157 208 157 168.5 255.5 c 128,-1,21
 129 354 129 354 129 486 c 0,22,23
 129 504 129 504 129.5 523.5 c 128,-1,24
 130 543 130 543 132 560 c 1,25,-1
 706 560 l 1,26,-1
 706 192 l 1,27,-1
 885 192 l 1,28,-1
 885 690 l 1,29,-1
 616 690 l 1,30,-1
 616 871 l 1,31,-1
 885 871 l 1,32,-1
 885 1330 l 1,33,-1
 706 1330 l 1,34,-1
 706 1001 l 1,35,-1
 133 1001 l 1,36,37
 132 1011 132 1011 131.5 1018.5 c 128,-1,38
 131 1026 131 1026 130.5 1033 c 128,-1,39
 130 1040 130 1040 130 1047 c 128,-1,40
 130 1054 130 1054 130 1064 c 0,41,42
 130 1203 130 1203 172.5 1297.5 c 128,-1,43
 215 1392 215 1392 299 1449.5 c 128,-1,44
 383 1507 383 1507 508 1532 c 128,-1,45
 633 1557 633 1557 797 1557 c 0,0,1
EndSplineSet
EndChar

StartChar: four
Encoding: 52 52 21
Width: 1606
Flags: W
LayerCount: 2
Fore
SplineSet
955 0 m 1,0,-1
 955 235 l 1,1,-1
 132 235 l 1,2,-1
 132 618 l 1,3,-1
 392 1521 l 1,4,-1
 984 1521 l 1,5,-1
 730 629 l 1,6,-1
 730 551 l 1,7,-1
 955 551 l 1,8,-1
 955 879 l 1,9,-1
 1487 879 l 1,10,-1
 1487 0 l 1,11,-1
 955 0 l 1,0,-1
EndSplineSet
EndChar

StartChar: five
Encoding: 53 53 22
Width: 1593
Flags: W
LayerCount: 2
Fore
SplineSet
1050 1042 m 0,0,1
 1177 1042 1177 1042 1259.5 1004 c 128,-1,2
 1342 966 1342 966 1390 897 c 128,-1,3
 1438 828 1438 828 1456.5 732 c 128,-1,4
 1475 636 1475 636 1475 521 c 0,5,6
 1475 356 1475 356 1438.5 248 c 128,-1,7
 1402 140 1402 140 1321.5 76.5 c 128,-1,8
 1241 13 1241 13 1112 -12.5 c 128,-1,9
 983 -38 983 -38 799 -38 c 0,10,11
 643 -38 643 -38 518 -17.5 c 128,-1,12
 393 3 393 3 306 55 c 128,-1,13
 219 107 219 107 172 196.5 c 128,-1,14
 125 286 125 286 125 424 c 1,15,-1
 697 424 l 1,16,-1
 697 193 l 1,17,-1
 885 193 l 1,18,-1
 885 820 l 1,19,-1
 697 820 l 1,20,-1
 697 641 l 1,21,-1
 197 641 l 1,22,-1
 197 1522 l 1,23,-1
 1334 1522 l 1,24,-1
 1334 1270 l 1,25,-1
 719 1270 l 1,26,-1
 719 1253 l 1,27,-1
 685 960 l 1,28,-1
 685 945 l 1,29,30
 735 999 735 999 828.5 1020.5 c 128,-1,31
 922 1042 922 1042 1050 1042 c 0,0,1
EndSplineSet
EndChar

StartChar: six
Encoding: 54 54 23
Width: 1620
Flags: W
LayerCount: 2
Fore
SplineSet
895 1133 m 1,0,-1
 895 1338 l 1,1,-1
 725 1338 l 1,2,-1
 725 1007 l 1,3,-1
 855 1007 l 2,4,5
 1035 1007 1035 1007 1158.5 982 c 128,-1,6
 1282 957 1282 957 1357.5 897 c 128,-1,7
 1433 837 1433 837 1466.5 738 c 128,-1,8
 1500 639 1500 639 1500 492 c 0,9,10
 1500 329 1500 329 1452.5 226.5 c 128,-1,11
 1405 124 1405 124 1315.5 65.5 c 128,-1,12
 1226 7 1226 7 1098 -15 c 128,-1,13
 970 -37 970 -37 810 -38 c 0,14,15
 651 -38 651 -38 528.5 -13 c 128,-1,16
 406 12 406 12 322.5 69 c 128,-1,17
 239 126 239 126 195.5 218.5 c 128,-1,18
 152 311 152 311 152 446 c 2,19,-1
 152 1013 l 2,20,21
 152 1169 152 1169 195.5 1273.5 c 128,-1,22
 239 1378 239 1378 322.5 1441 c 128,-1,23
 406 1504 406 1504 528.5 1530.5 c 128,-1,24
 651 1557 651 1557 809 1557 c 0,25,26
 874 1557 874 1557 946 1553.5 c 128,-1,27
 1018 1550 1018 1550 1089 1538 c 128,-1,28
 1160 1526 1160 1526 1224.5 1502.5 c 128,-1,29
 1289 1479 1289 1479 1338.5 1438 c 128,-1,30
 1388 1397 1388 1397 1417 1336.5 c 128,-1,31
 1446 1276 1446 1276 1446 1191 c 0,32,33
 1446 1180 1446 1180 1446.5 1168.5 c 128,-1,34
 1447 1157 1447 1157 1447 1148 c 2,35,-1
 1447 1134 l 1,36,37
 1448 1134 1448 1134 1448 1133 c 1,38,-1
 1447 1133 l 1,39,-1
 895 1133 l 1,0,-1
911 193 m 1,40,-1
 911 780 l 1,41,-1
 724 780 l 1,42,-1
 724 193 l 1,43,-1
 911 193 l 1,40,-1
EndSplineSet
EndChar

StartChar: seven
Encoding: 55 55 24
Width: 1138
Flags: W
LayerCount: 2
Fore
SplineSet
1017 1305 m 1,0,-1
 787 0 l 1,1,-1
 157 0 l 1,2,-1
 385 1302 l 1,3,-1
 385 1324 l 1,4,-1
 81 1324 l 1,5,-1
 81 1521 l 1,6,-1
 1017 1521 l 1,7,-1
 1017 1305 l 1,0,-1
EndSplineSet
EndChar

StartChar: eight
Encoding: 56 56 25
Width: 1599
Flags: W
LayerCount: 2
Fore
SplineSet
183 1136 m 0,0,1
 183 1257 183 1257 229 1338 c 128,-1,2
 275 1419 275 1419 357.5 1467.5 c 128,-1,3
 440 1516 440 1516 554.5 1536 c 128,-1,4
 669 1556 669 1556 807 1556 c 256,5,6
 945 1556 945 1556 1058 1536 c 128,-1,7
 1171 1516 1171 1516 1251.5 1467 c 128,-1,8
 1332 1418 1332 1418 1376.5 1337 c 128,-1,9
 1421 1256 1421 1256 1421 1135 c 0,10,11
 1421 1081 1421 1081 1412 1034 c 128,-1,12
 1403 987 1403 987 1383 949 c 128,-1,13
 1363 911 1363 911 1331.5 884 c 128,-1,14
 1300 857 1300 857 1254 844 c 1,15,-1
 1254 806 l 1,16,17
 1315 794 1315 794 1358 761.5 c 128,-1,18
 1401 729 1401 729 1428.5 681 c 128,-1,19
 1456 633 1456 633 1469 571.5 c 128,-1,20
 1482 510 1482 510 1482 441 c 0,21,22
 1482 338 1482 338 1459.5 262.5 c 128,-1,23
 1437 187 1437 187 1395 133.5 c 128,-1,24
 1353 80 1353 80 1293.5 46.5 c 128,-1,25
 1234 13 1234 13 1159 -6 c 128,-1,26
 1084 -25 1084 -25 996 -32 c 128,-1,27
 908 -39 908 -39 809 -39 c 0,28,29
 640 -39 640 -39 512 -16 c 128,-1,30
 384 7 384 7 298.5 62 c 128,-1,31
 213 117 213 117 169.5 209.5 c 128,-1,32
 126 302 126 302 126 441 c 0,33,34
 126 489 126 489 132.5 545.5 c 128,-1,35
 139 602 139 602 160 654.5 c 128,-1,36
 181 707 181 707 219.5 748 c 128,-1,37
 258 789 258 789 321 806 c 1,38,-1
 321 844 l 1,39,40
 281 858 281 858 254.5 886.5 c 128,-1,41
 228 915 228 915 212 953.5 c 128,-1,42
 196 992 196 992 189.5 1039 c 128,-1,43
 183 1086 183 1086 183 1136 c 0,0,1
885 900 m 1,44,-1
 885 1324 l 1,45,-1
 725 1324 l 1,46,-1
 725 900 l 1,47,-1
 885 900 l 1,44,-1
885 192 m 1,48,-1
 885 705 l 1,49,-1
 712 705 l 1,50,-1
 712 192 l 1,51,-1
 885 192 l 1,48,-1
EndSplineSet
EndChar

StartChar: nine
Encoding: 57 57 26
Width: 1629
Flags: W
LayerCount: 2
Fore
SplineSet
131 1028 m 0,0,1
 131 1141 131 1141 153 1224 c 128,-1,2
 175 1307 175 1307 216 1365.5 c 128,-1,3
 257 1424 257 1424 316.5 1460.5 c 128,-1,4
 376 1497 376 1497 451.5 1518 c 128,-1,5
 527 1539 527 1539 617.5 1546.5 c 128,-1,6
 708 1554 708 1554 811 1554 c 0,7,8
 970 1554 970 1554 1094.5 1530.5 c 128,-1,9
 1219 1507 1219 1507 1304.5 1451 c 128,-1,10
 1390 1395 1390 1395 1435 1302.5 c 128,-1,11
 1480 1210 1480 1210 1480 1072 c 2,12,-1
 1480 489 l 2,13,14
 1480 335 1480 335 1435.5 233 c 128,-1,15
 1391 131 1391 131 1306.5 70.5 c 128,-1,16
 1222 10 1222 10 1099.5 -14.5 c 128,-1,17
 977 -39 977 -39 822 -39 c 0,18,19
 755 -39 755 -39 681 -33.5 c 128,-1,20
 607 -28 607 -28 535.5 -13.5 c 128,-1,21
 464 1 464 1 399.5 27.5 c 128,-1,22
 335 54 335 54 286 96 c 128,-1,23
 237 138 237 138 208 197.5 c 128,-1,24
 179 257 179 257 179 339 c 2,25,-1
 179 376 l 1,26,-1
 731 376 l 1,27,-1
 731 181 l 1,28,-1
 895 181 l 1,29,-1
 895 496 l 1,30,-1
 660 496 l 2,31,32
 505 496 505 496 403 528 c 128,-1,33
 301 560 301 560 240.5 626 c 128,-1,34
 180 692 180 692 155.5 792 c 128,-1,35
 131 892 131 892 131 1028 c 0,0,1
713 1327 m 1,36,-1
 713 723 l 1,37,-1
 891 723 l 1,38,-1
 891 1327 l 1,39,-1
 713 1327 l 1,36,-1
EndSplineSet
EndChar

StartChar: colon
Encoding: 58 58 27
Width: 747
Flags: W
LayerCount: 2
Fore
SplineSet
166 297 m 0,0,1
 166 343 166 343 184 377.5 c 128,-1,2
 202 412 202 412 232 435.5 c 128,-1,3
 262 459 262 459 300 470.5 c 128,-1,4
 338 482 338 482 378 482 c 0,5,6
 417 482 417 482 455 470.5 c 128,-1,7
 493 459 493 459 523 435.5 c 128,-1,8
 553 412 553 412 571 377.5 c 128,-1,9
 589 343 589 343 589 297 c 0,10,11
 589 250 589 250 571 215 c 128,-1,12
 553 180 553 180 523 156.5 c 128,-1,13
 493 133 493 133 455 121.5 c 128,-1,14
 417 110 417 110 378 110 c 0,15,16
 338 110 338 110 300 121.5 c 128,-1,17
 262 133 262 133 232 156.5 c 128,-1,18
 202 180 202 180 184 215 c 128,-1,19
 166 250 166 250 166 297 c 0,0,1
166 1088 m 256,20,21
 166 1135 166 1135 184 1170 c 128,-1,22
 202 1205 202 1205 232 1228.5 c 128,-1,23
 262 1252 262 1252 300 1263.5 c 128,-1,24
 338 1275 338 1275 378 1275 c 0,25,26
 417 1275 417 1275 455 1263.5 c 128,-1,27
 493 1252 493 1252 523 1228.5 c 128,-1,28
 553 1205 553 1205 571 1170 c 128,-1,29
 589 1135 589 1135 589 1088 c 256,30,31
 589 1041 589 1041 571 1006.5 c 128,-1,32
 553 972 553 972 523 948.5 c 128,-1,33
 493 925 493 925 455 913.5 c 128,-1,34
 417 902 417 902 378 902 c 0,35,36
 338 902 338 902 300 913.5 c 128,-1,37
 262 925 262 925 232 948.5 c 128,-1,38
 202 972 202 972 184 1006.5 c 128,-1,39
 166 1041 166 1041 166 1088 c 256,20,21
EndSplineSet
EndChar

StartChar: semicolon
Encoding: 59 59 28
Width: 745
Flags: W
LayerCount: 2
Fore
SplineSet
165 297 m 0,0,1
 165 341 165 341 183 374 c 128,-1,2
 201 407 201 407 231 429 c 128,-1,3
 261 451 261 451 299 462 c 128,-1,4
 337 473 337 473 377 473 c 0,5,6
 433 473 433 473 474.5 455.5 c 128,-1,7
 516 438 516 438 543 408.5 c 128,-1,8
 570 379 570 379 583 340 c 128,-1,9
 596 301 596 301 596 257 c 0,10,11
 596 193 596 193 572 126.5 c 128,-1,12
 548 60 548 60 501.5 6 c 128,-1,13
 455 -48 455 -48 387.5 -82.5 c 128,-1,14
 320 -117 320 -117 233 -117 c 0,15,16
 211 -117 211 -117 189 -114 c 1,17,-1
 189 -46 l 1,18,19
 219 -46 219 -46 246.5 -36 c 128,-1,20
 274 -26 274 -26 296 -8 c 128,-1,21
 318 10 318 10 333 35 c 128,-1,22
 348 60 348 60 351 91 c 1,23,-1
 351 111 l 1,24,25
 315 114 315 114 281.5 127.5 c 128,-1,26
 248 141 248 141 222 164 c 128,-1,27
 196 187 196 187 180.5 220.5 c 128,-1,28
 165 254 165 254 165 297 c 0,0,1
165 1088 m 256,29,30
 165 1135 165 1135 183 1170 c 128,-1,31
 201 1205 201 1205 231 1228.5 c 128,-1,32
 261 1252 261 1252 299 1263.5 c 128,-1,33
 337 1275 337 1275 377 1275 c 0,34,35
 416 1275 416 1275 454 1263.5 c 128,-1,36
 492 1252 492 1252 522 1228.5 c 128,-1,37
 552 1205 552 1205 570 1170 c 128,-1,38
 588 1135 588 1135 588 1088 c 256,39,40
 588 1041 588 1041 570 1006.5 c 128,-1,41
 552 972 552 972 522 948.5 c 128,-1,42
 492 925 492 925 454 913.5 c 128,-1,43
 416 902 416 902 377 902 c 0,44,45
 337 902 337 902 299 913.5 c 128,-1,46
 261 925 261 925 231 948.5 c 128,-1,47
 201 972 201 972 183 1006.5 c 128,-1,48
 165 1041 165 1041 165 1088 c 256,29,30
EndSplineSet
EndChar

StartChar: less
Encoding: 60 60 29
Width: 1173
Flags: W
LayerCount: 2
Fore
SplineSet
1011 1526 m 1,0,-1
 1011 1065 l 1,1,-1
 386 776 l 1,2,-1
 386 743 l 1,3,4
 544 672 544 672 699 600.5 c 128,-1,5
 854 529 854 529 1011 458 c 1,6,-1
 1011 -3 l 1,7,-1
 101 476 l 1,8,-1
 101 1038 l 1,9,-1
 1011 1526 l 1,0,-1
EndSplineSet
EndChar

StartChar: equal
Encoding: 61 61 30
Width: 1227
Flags: W
LayerCount: 2
Fore
SplineSet
1051 0 m 1,0,-1
 183 0 l 1,1,-1
 183 290 l 1,2,-1
 1051 290 l 1,3,-1
 1051 0 l 1,0,-1
1051 549 m 1,4,-1
 183 549 l 1,5,-1
 183 838 l 1,6,-1
 1051 838 l 1,7,-1
 1051 549 l 1,4,-1
EndSplineSet
EndChar

StartChar: greater
Encoding: 62 62 31
Width: 1169
Flags: W
LayerCount: 2
Fore
SplineSet
160 -3 m 1,0,-1
 160 458 l 1,1,-1
 785 743 l 1,2,-1
 785 776 l 1,3,4
 628 848 628 848 472.5 920.5 c 128,-1,5
 317 993 317 993 160 1065 c 1,6,-1
 160 1526 l 1,7,-1
 1071 1038 l 1,8,-1
 1071 476 l 1,9,-1
 160 -3 l 1,0,-1
EndSplineSet
EndChar

StartChar: question
Encoding: 63 63 32
Width: 943
Flags: W
LayerCount: 2
Fore
SplineSet
428 539 m 1,0,1
 424 516 424 516 405 507 c 128,-1,2
 386 498 386 498 363 498 c 0,3,4
 301 498 301 498 301 550 c 0,5,6
 301 600 301 600 309.5 648 c 128,-1,7
 318 696 318 696 331 741 c 128,-1,8
 344 786 344 786 360.5 827.5 c 128,-1,9
 377 869 377 869 393 907 c 0,10,11
 400 925 400 925 408 946.5 c 128,-1,12
 416 968 416 968 423.5 990.5 c 128,-1,13
 431 1013 431 1013 438 1034.5 c 128,-1,14
 445 1056 445 1056 450 1074 c 1,15,-1
 450 1075 l 1,16,17
 451 1081 451 1081 451.5 1089 c 128,-1,18
 452 1097 452 1097 452 1105 c 0,19,20
 452 1131 452 1131 444 1155 c 128,-1,21
 436 1179 436 1179 419 1197 c 128,-1,22
 402 1215 402 1215 374 1225.5 c 128,-1,23
 346 1236 346 1236 306 1236 c 0,24,25
 268 1236 268 1236 218 1224.5 c 128,-1,26
 168 1213 168 1213 102 1187 c 1,27,-1
 69 1488 l 1,28,29
 190 1525 190 1525 284.5 1541 c 128,-1,30
 379 1557 379 1557 451 1557 c 0,31,32
 582 1557 582 1557 669 1531.5 c 128,-1,33
 756 1506 756 1506 808 1465 c 128,-1,34
 860 1424 860 1424 881.5 1371.5 c 128,-1,35
 903 1319 903 1319 903 1264 c 0,36,37
 903 1218 903 1218 883 1173.5 c 128,-1,38
 863 1129 863 1129 831 1086 c 128,-1,39
 799 1043 799 1043 759.5 1003.5 c 128,-1,40
 720 964 720 964 682 928 c 0,41,42
 645 893 645 893 603.5 849 c 128,-1,43
 562 805 562 805 525.5 755 c 128,-1,44
 489 705 489 705 462 650 c 128,-1,45
 435 595 435 595 428 539 c 1,0,1
154 148 m 256,46,47
 154 195 154 195 172 230 c 128,-1,48
 190 265 190 265 219.5 288 c 128,-1,49
 249 311 249 311 287 322.5 c 128,-1,50
 325 334 325 334 365 334 c 256,51,52
 405 334 405 334 443.5 322.5 c 128,-1,53
 482 311 482 311 512 288 c 128,-1,54
 542 265 542 265 560 230 c 128,-1,55
 578 195 578 195 578 148 c 256,56,57
 578 101 578 101 560 66 c 128,-1,58
 542 31 542 31 512 8 c 128,-1,59
 482 -15 482 -15 443.5 -26.5 c 128,-1,60
 405 -38 405 -38 365 -38 c 256,61,62
 325 -38 325 -38 287 -26.5 c 128,-1,63
 249 -15 249 -15 219.5 8 c 128,-1,64
 190 31 190 31 172 66 c 128,-1,65
 154 101 154 101 154 148 c 256,46,47
EndSplineSet
EndChar

StartChar: at
Encoding: 64 64 33
Width: 2380
Flags: W
LayerCount: 2
Fore
SplineSet
1666 86 m 1,0,1
 1534 88 1534 88 1440 122 c 128,-1,2
 1346 156 1346 156 1301 227 c 1,3,4
 1281 204 1281 204 1255.5 183 c 128,-1,5
 1230 162 1230 162 1198 145.5 c 128,-1,6
 1166 129 1166 129 1126.5 119.5 c 128,-1,7
 1087 110 1087 110 1039 110 c 0,8,9
 869 110 869 110 781.5 172.5 c 128,-1,10
 694 235 694 235 689 377 c 0,11,12
 688 399 688 399 688 419.5 c 128,-1,13
 688 440 688 440 688 463 c 0,14,15
 688 545 688 545 707.5 605 c 128,-1,16
 727 665 727 665 769 703.5 c 128,-1,17
 811 742 811 742 877.5 760.5 c 128,-1,18
 944 779 944 779 1039 779 c 0,19,20
 1119 779 1119 779 1176.5 768.5 c 128,-1,21
 1234 758 1234 758 1272 734 c 1,22,-1
 1272 999 l 1,23,-1
 1212 999 l 1,24,-1
 1212 868 l 1,25,-1
 741 868 l 1,26,-1
 741 873 l 2,27,28
 741 875 741 875 740.5 877.5 c 128,-1,29
 740 880 740 880 740 882 c 2,30,-1
 740 915 l 2,31,32
 740 1000 740 1000 776.5 1052.5 c 128,-1,33
 813 1105 813 1105 878.5 1134 c 128,-1,34
 944 1163 944 1163 1034.5 1173 c 128,-1,35
 1125 1183 1125 1183 1234 1183 c 0,36,37
 1373 1183 1373 1183 1467 1163.5 c 128,-1,38
 1561 1144 1561 1144 1618 1099 c 128,-1,39
 1675 1054 1675 1054 1699 980.5 c 128,-1,40
 1723 907 1723 907 1723 799 c 2,41,-1
 1723 285 l 1,42,-1
 1900 285 l 1,43,-1
 1900 794 l 2,44,45
 1900 922 1900 922 1883 1016.5 c 128,-1,46
 1866 1111 1866 1111 1831.5 1177 c 128,-1,47
 1797 1243 1797 1243 1744 1285 c 128,-1,48
 1691 1327 1691 1327 1618.5 1351 c 128,-1,49
 1546 1375 1546 1375 1454 1383.5 c 128,-1,50
 1362 1392 1362 1392 1249 1392 c 0,51,52
 1096 1392 1096 1392 981 1373 c 128,-1,53
 866 1354 866 1354 782.5 1315.5 c 128,-1,54
 699 1277 699 1277 643.5 1217 c 128,-1,55
 588 1157 588 1157 555.5 1075.5 c 128,-1,56
 523 994 523 994 509.5 889.5 c 128,-1,57
 496 785 496 785 496 657 c 0,58,59
 496 498 496 498 511.5 380.5 c 128,-1,60
 527 263 527 263 563.5 179.5 c 128,-1,61
 600 96 600 96 661.5 42.5 c 128,-1,62
 723 -11 723 -11 814.5 -42 c 128,-1,63
 906 -73 906 -73 1031.5 -84.5 c 128,-1,64
 1157 -96 1157 -96 1322 -96 c 0,65,66
 1362 -96 1362 -96 1407.5 -92 c 128,-1,67
 1453 -88 1453 -88 1512 -79 c 128,-1,68
 1571 -70 1571 -70 1648 -55 c 128,-1,69
 1725 -40 1725 -40 1827 -17 c 1,70,-1
 1878 -234 l 1,71,72
 1829 -265 1829 -265 1769.5 -292 c 128,-1,73
 1710 -319 1710 -319 1642 -339.5 c 128,-1,74
 1574 -360 1574 -360 1498 -372 c 128,-1,75
 1422 -384 1422 -384 1340 -384 c 0,76,77
 1128 -384 1128 -384 955.5 -365 c 128,-1,78
 783 -346 783 -346 648.5 -300 c 128,-1,79
 514 -254 514 -254 415.5 -177 c 128,-1,80
 317 -100 317 -100 253 15 c 128,-1,81
 189 130 189 130 158 287.5 c 128,-1,82
 127 445 127 445 127 652 c 0,83,84
 127 846 127 846 158.5 996.5 c 128,-1,85
 190 1147 190 1147 253 1259.5 c 128,-1,86
 316 1372 316 1372 410 1449.5 c 128,-1,87
 504 1527 504 1527 628 1575 c 128,-1,88
 752 1623 752 1623 906.5 1644 c 128,-1,89
 1061 1665 1061 1665 1245 1665 c 0,90,91
 1515 1665 1515 1665 1708.5 1620.5 c 128,-1,92
 1902 1576 1902 1576 2027 1478 c 128,-1,93
 2152 1380 2152 1380 2211 1222 c 128,-1,94
 2270 1064 2270 1064 2270 838 c 0,95,96
 2270 727 2270 727 2261 628 c 128,-1,97
 2252 529 2252 529 2227.5 445.5 c 128,-1,98
 2203 362 2203 362 2160.5 295.5 c 128,-1,99
 2118 229 2118 229 2050.5 182.5 c 128,-1,100
 1983 136 1983 136 1888.5 111 c 128,-1,101
 1794 86 1794 86 1666 86 c 1,0,1
1271 290 m 1,102,-1
 1271 627 l 1,103,-1
 1174 627 l 1,104,-1
 1174 290 l 1,105,-1
 1271 290 l 1,102,-1
EndSplineSet
EndChar

StartChar: A
Encoding: 65 65 34
Width: 1374
Flags: W
LayerCount: 2
Fore
SplineSet
960 389 m 1,0,-1
 380 389 l 1,1,-1
 264 0 l 1,2,-1
 64 0 l 1,3,-1
 534 1499 l 1,4,-1
 824 1499 l 1,5,-1
 1301 0 l 1,6,-1
 1083 0 l 1,7,-1
 960 389 l 1,0,-1
423 521 m 1,8,-1
 918 521 l 1,9,-1
 667 1373 l 1,10,-1
 423 521 l 1,8,-1
EndSplineSet
EndChar

StartChar: B
Encoding: 66 66 35
Width: 1478
Flags: W
LayerCount: 2
Fore
SplineSet
1328 417 m 0,0,1
 1328 317 1328 317 1303 247 c 128,-1,2
 1278 177 1278 177 1235.5 130.5 c 128,-1,3
 1193 84 1193 84 1135 58 c 128,-1,4
 1077 32 1077 32 1011.5 19 c 128,-1,5
 946 6 946 6 876 3 c 128,-1,6
 806 0 806 0 738 0 c 2,7,-1
 194 0 l 1,8,-1
 194 1499 l 1,9,-1
 696 1499 l 2,10,11
 763 1499 763 1499 831.5 1496 c 128,-1,12
 900 1493 900 1493 964 1481 c 128,-1,13
 1028 1469 1028 1469 1084.5 1444 c 128,-1,14
 1141 1419 1141 1419 1183 1375 c 128,-1,15
 1225 1331 1225 1331 1249 1264 c 128,-1,16
 1273 1197 1273 1197 1273 1102 c 0,17,18
 1273 991 1273 991 1214 915 c 128,-1,19
 1155 839 1155 839 1022 808 c 1,20,21
 1108 794 1108 794 1166.5 758 c 128,-1,22
 1225 722 1225 722 1261 670.5 c 128,-1,23
 1297 619 1297 619 1312.5 554 c 128,-1,24
 1328 489 1328 489 1328 417 c 0,0,1
415 721 m 1,25,-1
 415 157 l 1,26,-1
 738 157 l 2,27,28
 826 157 826 157 895 161.5 c 128,-1,29
 964 166 964 166 1011.5 190 c 128,-1,30
 1059 214 1059 214 1084 264.5 c 128,-1,31
 1109 315 1109 315 1109 407 c 2,32,-1
 1109 429 l 2,33,34
 1109 524 1109 524 1087 581.5 c 128,-1,35
 1065 639 1065 639 1022 670 c 128,-1,36
 979 701 979 701 914 711 c 128,-1,37
 849 721 849 721 764 721 c 2,38,-1
 415 721 l 1,25,-1
415 867 m 1,39,-1
 718 867 l 2,40,41
 802 867 802 867 865 872.5 c 128,-1,42
 928 878 928 878 970 900.5 c 128,-1,43
 1012 923 1012 923 1033 967.5 c 128,-1,44
 1054 1012 1054 1012 1054 1090 c 2,45,-1
 1054 1112 l 2,46,47
 1054 1197 1054 1197 1028.5 1243.5 c 128,-1,48
 1003 1290 1003 1290 955 1312 c 128,-1,49
 907 1334 907 1334 836.5 1338 c 128,-1,50
 766 1342 766 1342 676 1342 c 2,51,-1
 415 1342 l 1,52,-1
 415 867 l 1,39,-1
EndSplineSet
EndChar

StartChar: C
Encoding: 67 67 36
Width: 1511
Flags: W
LayerCount: 2
Fore
SplineSet
1345 467 m 1,0,1
 1345 354 1345 354 1329 272.5 c 128,-1,2
 1313 191 1313 191 1280.5 135 c 128,-1,3
 1248 79 1248 79 1200 45.5 c 128,-1,4
 1152 12 1152 12 1088.5 -6.5 c 128,-1,5
 1025 -25 1025 -25 946 -31 c 128,-1,6
 867 -37 867 -37 773 -37 c 0,7,8
 681 -37 681 -37 599.5 -30 c 128,-1,9
 518 -23 518 -23 450 -0.5 c 128,-1,10
 382 22 382 22 328 64.5 c 128,-1,11
 274 107 274 107 236.5 178.5 c 128,-1,12
 199 250 199 250 179 355 c 128,-1,13
 159 460 159 460 159 608 c 2,14,-1
 159 922 l 2,15,16
 159 1062 159 1062 180 1161.5 c 128,-1,17
 201 1261 201 1261 240 1329 c 128,-1,18
 279 1397 279 1397 335 1437.5 c 128,-1,19
 391 1478 391 1478 460.5 1499 c 128,-1,20
 530 1520 530 1520 611 1526.5 c 128,-1,21
 692 1533 692 1533 783 1533 c 0,22,23
 924 1533 924 1533 1029.5 1515 c 128,-1,24
 1135 1497 1135 1497 1205.5 1442 c 128,-1,25
 1276 1387 1276 1387 1311 1286 c 128,-1,26
 1346 1185 1346 1185 1346 1020 c 1,27,-1
 1134 1020 l 1,28,29
 1134 1128 1134 1128 1124 1197.5 c 128,-1,30
 1114 1267 1114 1267 1078.5 1306.5 c 128,-1,31
 1043 1346 1043 1346 973.5 1361 c 128,-1,32
 904 1376 904 1376 786 1376 c 0,33,34
 691 1376 691 1376 624 1368.5 c 128,-1,35
 557 1361 557 1361 511.5 1338 c 128,-1,36
 466 1315 466 1315 440 1273.5 c 128,-1,37
 414 1232 414 1232 400.5 1164.5 c 128,-1,38
 387 1097 387 1097 383.5 999.5 c 128,-1,39
 380 902 380 902 380 768 c 256,40,41
 380 634 380 634 382 534 c 128,-1,42
 384 434 384 434 395.5 363 c 128,-1,43
 407 292 407 292 431 246 c 128,-1,44
 455 200 455 200 499 173.5 c 128,-1,45
 543 147 543 147 610.5 136.5 c 128,-1,46
 678 126 678 126 776 126 c 0,47,48
 855 126 855 126 912 131.5 c 128,-1,49
 969 137 969 137 1009 151 c 128,-1,50
 1049 165 1049 165 1073.5 189.5 c 128,-1,51
 1098 214 1098 214 1111.5 252 c 128,-1,52
 1125 290 1125 290 1129.5 343 c 128,-1,53
 1134 396 1134 396 1134 467 c 1,54,-1
 1345 467 l 1,0,1
EndSplineSet
EndChar

StartChar: D
Encoding: 68 68 37
Width: 1559
Flags: W
LayerCount: 2
Fore
SplineSet
772 0 m 0,0,1
 649 0 649 0 544 -0.5 c 128,-1,2
 439 -1 439 -1 361 -1 c 2,3,-1
 194 -1 l 1,4,-1
 194 1498 l 1,5,-1
 364 1498 l 2,6,7
 443 1498 443 1498 547.5 1498.5 c 128,-1,8
 652 1499 652 1499 772 1499 c 0,9,10
 858 1499 858 1499 937 1492 c 128,-1,11
 1016 1485 1016 1485 1084.5 1464.5 c 128,-1,12
 1153 1444 1153 1444 1209.5 1405 c 128,-1,13
 1266 1366 1266 1366 1306 1302 c 128,-1,14
 1346 1238 1346 1238 1368 1144.5 c 128,-1,15
 1390 1051 1390 1051 1390 922 c 2,16,-1
 1390 608 l 2,17,18
 1390 465 1390 465 1369 364.5 c 128,-1,19
 1348 264 1348 264 1309 196.5 c 128,-1,20
 1270 129 1270 129 1214.5 89.5 c 128,-1,21
 1159 50 1159 50 1090.5 30.5 c 128,-1,22
 1022 11 1022 11 941.5 5.5 c 128,-1,23
 861 0 861 0 772 0 c 0,0,1
772 163 m 2,24,25
 883 163 883 163 956 175 c 128,-1,26
 1029 187 1029 187 1073 217.5 c 128,-1,27
 1117 248 1117 248 1137.5 299.5 c 128,-1,28
 1158 351 1158 351 1165 430 c 128,-1,29
 1172 509 1172 509 1170.5 618 c 128,-1,30
 1169 727 1169 727 1169 873 c 0,31,32
 1169 969 1169 969 1166 1041.5 c 128,-1,33
 1163 1114 1163 1114 1150 1166 c 128,-1,34
 1137 1218 1137 1218 1112 1252 c 128,-1,35
 1087 1286 1087 1286 1042.5 1306 c 128,-1,36
 998 1326 998 1326 932 1334 c 128,-1,37
 866 1342 866 1342 772 1342 c 0,38,39
 708 1342 708 1342 644.5 1341.5 c 128,-1,40
 581 1341 581 1341 530 1341 c 2,41,-1
 415 1341 l 1,42,-1
 415 164 l 1,43,44
 464 163 464 163 521 163 c 2,45,-1
 772 163 l 2,24,25
EndSplineSet
EndChar

StartChar: E
Encoding: 69 69 38
Width: 1283
Flags: W
LayerCount: 2
Fore
SplineSet
415 703 m 1,0,-1
 415 160 l 1,1,-1
 1157 160 l 1,2,-1
 1157 0 l 1,3,-1
 194 0 l 1,4,-1
 194 1499 l 1,5,-1
 1139 1499 l 1,6,-1
 1139 1339 l 1,7,-1
 415 1339 l 1,8,-1
 415 863 l 1,9,-1
 1049 863 l 1,10,-1
 1049 703 l 1,11,-1
 415 703 l 1,0,-1
EndSplineSet
EndChar

StartChar: F
Encoding: 70 70 39
Width: 1146
Flags: W
LayerCount: 2
Fore
SplineSet
415 688 m 1,0,-1
 415 0 l 1,1,-1
 194 0 l 1,2,-1
 194 1499 l 1,3,-1
 1060 1499 l 1,4,-1
 1060 1339 l 1,5,-1
 415 1339 l 1,6,-1
 415 848 l 1,7,-1
 1010 848 l 1,8,-1
 1010 688 l 1,9,-1
 415 688 l 1,0,-1
EndSplineSet
EndChar

StartChar: G
Encoding: 71 71 40
Width: 1518
Flags: W
LayerCount: 2
Fore
SplineSet
1165 107 m 1,0,1
 1154 67 1154 67 1111 35 c 0,2,3
 1092 21 1092 21 1064.5 8.5 c 128,-1,4
 1037 -4 1037 -4 998 -14.5 c 128,-1,5
 959 -25 959 -25 907 -31 c 128,-1,6
 855 -37 855 -37 788 -37 c 0,7,8
 699 -37 699 -37 617.5 -29.5 c 128,-1,9
 536 -22 536 -22 466 1.5 c 128,-1,10
 396 25 396 25 339 68.5 c 128,-1,11
 282 112 282 112 241.5 184 c 128,-1,12
 201 256 201 256 179 359.5 c 128,-1,13
 157 463 157 463 157 608 c 2,14,-1
 157 922 l 2,15,16
 157 1058 157 1058 179.5 1156.5 c 128,-1,17
 202 1255 202 1255 242.5 1323 c 128,-1,18
 283 1391 283 1391 340 1432 c 128,-1,19
 397 1473 397 1473 466.5 1495.5 c 128,-1,20
 536 1518 536 1518 615.5 1525.5 c 128,-1,21
 695 1533 695 1533 781 1533 c 0,22,23
 861 1533 861 1533 932 1526.5 c 128,-1,24
 1003 1520 1003 1520 1063 1500.5 c 128,-1,25
 1123 1481 1123 1481 1171 1446 c 128,-1,26
 1219 1411 1219 1411 1253 1354 c 128,-1,27
 1287 1297 1287 1297 1306 1215 c 128,-1,28
 1325 1133 1325 1133 1327 1020 c 1,29,-1
 1125 1020 l 1,30,31
 1122 1117 1122 1117 1112 1184.5 c 128,-1,32
 1102 1252 1102 1252 1068 1294.5 c 128,-1,33
 1034 1337 1034 1337 966.5 1356.5 c 128,-1,34
 899 1376 899 1376 781 1376 c 0,35,36
 681 1376 681 1376 612.5 1362.5 c 128,-1,37
 544 1349 544 1349 499.5 1319.5 c 128,-1,38
 455 1290 455 1290 430.5 1244 c 128,-1,39
 406 1198 406 1198 394 1134 c 128,-1,40
 382 1070 382 1070 380 986.5 c 128,-1,41
 378 903 378 903 378 799 c 0,42,43
 378 679 378 679 378.5 582.5 c 128,-1,44
 379 486 379 486 388.5 411 c 128,-1,45
 398 336 398 336 421 282.5 c 128,-1,46
 444 229 444 229 489.5 194 c 128,-1,47
 535 159 535 159 607.5 142.5 c 128,-1,48
 680 126 680 126 788 126 c 0,49,50
 902 126 902 126 970 134 c 128,-1,51
 1038 142 1038 142 1075 152 c 0,52,53
 1118 163 1118 163 1135 179 c 1,54,-1
 1135 538 l 1,55,-1
 826 538 l 1,56,-1
 826 703 l 1,57,-1
 1335 703 l 1,58,-1
 1335 -1 l 1,59,-1
 1184 -1 l 1,60,-1
 1165 107 l 1,0,1
EndSplineSet
EndChar

StartChar: H
Encoding: 72 72 41
Width: 1558
Flags: W
LayerCount: 2
Fore
SplineSet
415 681 m 1,0,-1
 415 0 l 1,1,-1
 194 0 l 1,2,-1
 194 1499 l 1,3,-1
 415 1499 l 1,4,-1
 415 838 l 1,5,-1
 1140 838 l 1,6,-1
 1140 1499 l 1,7,-1
 1361 1499 l 1,8,-1
 1361 0 l 1,9,-1
 1140 0 l 1,10,-1
 1140 681 l 1,11,-1
 415 681 l 1,0,-1
EndSplineSet
EndChar

StartChar: I
Encoding: 73 73 42
Width: 612
Flags: W
LayerCount: 2
Fore
SplineSet
415 0 m 1,0,-1
 194 0 l 1,1,-1
 194 1499 l 1,2,-1
 415 1499 l 1,3,-1
 415 0 l 1,0,-1
EndSplineSet
EndChar

StartChar: J
Encoding: 74 74 43
Width: 688
Flags: W
LayerCount: 2
Fore
SplineSet
491 45 m 2,0,1
 491 -11 491 -11 473.5 -49 c 128,-1,2
 456 -87 456 -87 426.5 -110 c 128,-1,3
 397 -133 397 -133 358 -143 c 128,-1,4
 319 -153 319 -153 276 -153 c 0,5,6
 157 -153 157 -153 33 -129 c 1,7,-1
 33 45 l 1,8,-1
 270 45 l 1,9,-1
 270 1498 l 1,10,-1
 491 1498 l 1,11,-1
 491 45 l 2,0,1
EndSplineSet
EndChar

StartChar: K
Encoding: 75 75 44
Width: 1340
Flags: W
LayerCount: 2
Fore
SplineSet
658 795 m 1,0,-1
 1324 0 l 1,1,-1
 1053 0 l 1,2,-1
 468 716 l 1,3,-1
 415 658 l 1,4,-1
 415 0 l 1,5,-1
 194 0 l 1,6,-1
 194 1499 l 1,7,-1
 415 1499 l 1,8,-1
 415 815 l 1,9,-1
 993 1499 l 1,10,-1
 1254 1499 l 1,11,-1
 658 795 l 1,0,-1
EndSplineSet
EndChar

StartChar: L
Encoding: 76 76 45
Width: 1087
Flags: W
LayerCount: 2
Fore
SplineSet
194 0 m 1,0,-1
 194 1499 l 1,1,-1
 415 1499 l 1,2,-1
 415 160 l 1,3,-1
 1020 160 l 1,4,-1
 1020 0 l 1,5,-1
 194 0 l 1,0,-1
EndSplineSet
EndChar

StartChar: M
Encoding: 77 77 46
Width: 1880
Flags: W
LayerCount: 2
Fore
SplineSet
366 1163 m 1,0,-1
 366 0 l 1,1,-1
 194 0 l 1,2,-1
 194 1499 l 1,3,-1
 429 1499 l 1,4,-1
 934 319 l 1,5,-1
 1433 1499 l 1,6,-1
 1683 1499 l 1,7,-1
 1683 0 l 1,8,-1
 1474 0 l 1,9,-1
 1474 1163 l 1,10,-1
 995 0 l 1,11,-1
 864 0 l 1,12,-1
 366 1163 l 1,0,-1
EndSplineSet
EndChar

StartChar: N
Encoding: 78 78 47
Width: 1600
Flags: W
LayerCount: 2
Fore
SplineSet
1224 288 m 1,0,-1
 1224 1499 l 1,1,-1
 1403 1499 l 1,2,-1
 1403 0 l 1,3,-1
 1183 0 l 1,4,-1
 376 1193 l 1,5,-1
 376 0 l 1,6,-1
 194 0 l 1,7,-1
 194 1499 l 1,8,-1
 414 1499 l 1,9,-1
 1224 288 l 1,0,-1
EndSplineSet
EndChar

StartChar: O
Encoding: 79 79 48
Width: 1580
Flags: W
LayerCount: 2
Fore
SplineSet
784 -37 m 256,0,1
 695 -37 695 -37 614 -31.5 c 128,-1,2
 533 -26 533 -26 463.5 -5 c 128,-1,3
 394 16 394 16 338 57.5 c 128,-1,4
 282 99 282 99 242 170.5 c 128,-1,5
 202 242 202 242 180.5 349 c 128,-1,6
 159 456 159 456 159 608 c 2,7,-1
 159 922 l 2,8,9
 159 1066 159 1066 181.5 1167 c 128,-1,10
 204 1268 204 1268 245 1336 c 128,-1,11
 286 1404 286 1404 343 1443 c 128,-1,12
 400 1482 400 1482 469.5 1502 c 128,-1,13
 539 1522 539 1522 618.5 1527.5 c 128,-1,14
 698 1533 698 1533 784 1533 c 256,15,16
 870 1533 870 1533 949.5 1527.5 c 128,-1,17
 1029 1522 1029 1522 1098.5 1502 c 128,-1,18
 1168 1482 1168 1482 1225 1443 c 128,-1,19
 1282 1404 1282 1404 1323 1336 c 128,-1,20
 1364 1268 1364 1268 1386.5 1167 c 128,-1,21
 1409 1066 1409 1066 1409 922 c 2,22,-1
 1409 608 l 2,23,24
 1409 456 1409 456 1387.5 349 c 128,-1,25
 1366 242 1366 242 1326 170.5 c 128,-1,26
 1286 99 1286 99 1230 57.5 c 128,-1,27
 1174 16 1174 16 1104.5 -5 c 128,-1,28
 1035 -26 1035 -26 954 -31.5 c 128,-1,29
 873 -37 873 -37 784 -37 c 256,0,1
784 126 m 0,30,31
 893 126 893 126 966 138.5 c 128,-1,32
 1039 151 1039 151 1083.5 181.5 c 128,-1,33
 1128 212 1128 212 1150 264.5 c 128,-1,34
 1172 317 1172 317 1180.5 396.5 c 128,-1,35
 1189 476 1189 476 1188.5 586 c 128,-1,36
 1188 696 1188 696 1188 843 c 0,37,38
 1188 951 1188 951 1185 1032.5 c 128,-1,39
 1182 1114 1182 1114 1169.5 1173.5 c 128,-1,40
 1157 1233 1157 1233 1131.5 1272 c 128,-1,41
 1106 1311 1106 1311 1061 1334 c 128,-1,42
 1016 1357 1016 1357 948.5 1366.5 c 128,-1,43
 881 1376 881 1376 784 1376 c 0,44,45
 675 1376 675 1376 602 1364 c 128,-1,46
 529 1352 529 1352 484.5 1321 c 128,-1,47
 440 1290 440 1290 418 1237.5 c 128,-1,48
 396 1185 396 1185 387.5 1103.5 c 128,-1,49
 379 1022 379 1022 379.5 908.5 c 128,-1,50
 380 795 380 795 380 643 c 0,51,52
 380 540 380 540 383 461.5 c 128,-1,53
 386 383 386 383 398.5 325.5 c 128,-1,54
 411 268 411 268 436.5 229.5 c 128,-1,55
 462 191 462 191 507 168 c 128,-1,56
 552 145 552 145 619.5 135.5 c 128,-1,57
 687 126 687 126 784 126 c 0,30,31
EndSplineSet
EndChar

StartChar: P
Encoding: 80 80 49
Width: 1433
Flags: W
LayerCount: 2
Fore
SplineSet
662 1499 m 2,0,1
 748 1499 748 1499 827 1493.5 c 128,-1,2
 906 1488 906 1488 975 1471.5 c 128,-1,3
 1044 1455 1044 1455 1100.5 1424 c 128,-1,4
 1157 1393 1157 1393 1197.5 1342.5 c 128,-1,5
 1238 1292 1238 1292 1260 1218 c 128,-1,6
 1282 1144 1282 1144 1282 1042 c 2,7,-1
 1282 978 l 2,8,9
 1282 872 1282 872 1261 795 c 128,-1,10
 1240 718 1240 718 1200.5 665 c 128,-1,11
 1161 612 1161 612 1105.5 579.5 c 128,-1,12
 1050 547 1050 547 981 529.5 c 128,-1,13
 912 512 912 512 831.5 506 c 128,-1,14
 751 500 751 500 662 500 c 2,15,-1
 415 500 l 1,16,-1
 415 0 l 1,17,-1
 194 0 l 1,18,-1
 194 1499 l 1,19,-1
 662 1499 l 2,0,1
662 663 m 2,20,21
 760 663 760 663 827.5 670.5 c 128,-1,22
 895 678 895 678 939.5 693.5 c 128,-1,23
 984 709 984 709 1009 733 c 128,-1,24
 1034 757 1034 757 1046 790.5 c 128,-1,25
 1058 824 1058 824 1060.5 867 c 128,-1,26
 1063 910 1063 910 1063 964 c 0,27,28
 1063 1041 1063 1041 1062.5 1099 c 128,-1,29
 1062 1157 1062 1157 1051.5 1199.5 c 128,-1,30
 1041 1242 1041 1242 1015.5 1270 c 128,-1,31
 990 1298 990 1298 939.5 1314.5 c 128,-1,32
 889 1331 889 1331 808.5 1338 c 128,-1,33
 728 1345 728 1345 608 1345 c 0,34,35
 523 1345 523 1345 415 1342 c 1,36,-1
 415 663 l 1,37,-1
 662 663 l 2,20,21
EndSplineSet
EndChar

StartChar: Q
Encoding: 81 81 50
Width: 1579
Flags: W
LayerCount: 2
Fore
SplineSet
1261 -339 m 1,0,1
 1207 -345 1207 -345 1159 -348.5 c 128,-1,2
 1111 -352 1111 -352 1066 -352 c 0,3,4
 980 -352 980 -352 912.5 -336.5 c 128,-1,5
 845 -321 845 -321 796.5 -284.5 c 128,-1,6
 748 -248 748 -248 719.5 -187 c 128,-1,7
 691 -126 691 -126 684 -35 c 1,8,9
 608 -32 608 -32 539.5 -21.5 c 128,-1,10
 471 -11 471 -11 412.5 14.5 c 128,-1,11
 354 40 354 40 307 84.5 c 128,-1,12
 260 129 260 129 227 199.5 c 128,-1,13
 194 270 194 270 176.5 370 c 128,-1,14
 159 470 159 470 159 608 c 2,15,-1
 159 922 l 2,16,17
 159 1066 159 1066 181.5 1167 c 128,-1,18
 204 1268 204 1268 245 1336 c 128,-1,19
 286 1404 286 1404 343 1443 c 128,-1,20
 400 1482 400 1482 469.5 1502 c 128,-1,21
 539 1522 539 1522 618.5 1527.5 c 128,-1,22
 698 1533 698 1533 784 1533 c 256,23,24
 870 1533 870 1533 949.5 1527.5 c 128,-1,25
 1029 1522 1029 1522 1098.5 1502 c 128,-1,26
 1168 1482 1168 1482 1225 1443 c 128,-1,27
 1282 1404 1282 1404 1323 1336 c 128,-1,28
 1364 1268 1364 1268 1386.5 1167 c 128,-1,29
 1409 1066 1409 1066 1409 922 c 2,30,-1
 1409 608 l 2,31,32
 1409 469 1409 469 1391 368 c 128,-1,33
 1373 267 1373 267 1339.5 196.5 c 128,-1,34
 1306 126 1306 126 1258 81.5 c 128,-1,35
 1210 37 1210 37 1150.5 12 c 128,-1,36
 1091 -13 1091 -13 1021 -23.5 c 128,-1,37
 951 -34 951 -34 874 -36 c 1,38,39
 877 -83 877 -83 890.5 -115 c 128,-1,40
 904 -147 904 -147 929 -166 c 128,-1,41
 954 -185 954 -185 991 -193 c 128,-1,42
 1028 -201 1028 -201 1078 -201 c 0,43,44
 1122 -201 1122 -201 1175 -196.5 c 128,-1,45
 1228 -192 1228 -192 1292 -185 c 1,46,-1
 1261 -339 l 1,0,1
784 126 m 0,47,48
 893 126 893 126 966 138.5 c 128,-1,49
 1039 151 1039 151 1083.5 181.5 c 128,-1,50
 1128 212 1128 212 1150 264.5 c 128,-1,51
 1172 317 1172 317 1180.5 396.5 c 128,-1,52
 1189 476 1189 476 1188.5 586 c 128,-1,53
 1188 696 1188 696 1188 843 c 0,54,55
 1188 951 1188 951 1185 1032.5 c 128,-1,56
 1182 1114 1182 1114 1169.5 1173.5 c 128,-1,57
 1157 1233 1157 1233 1131.5 1272 c 128,-1,58
 1106 1311 1106 1311 1061 1334 c 128,-1,59
 1016 1357 1016 1357 948.5 1366.5 c 128,-1,60
 881 1376 881 1376 784 1376 c 0,61,62
 675 1376 675 1376 602 1364 c 128,-1,63
 529 1352 529 1352 484.5 1321 c 128,-1,64
 440 1290 440 1290 418 1237.5 c 128,-1,65
 396 1185 396 1185 387.5 1103.5 c 128,-1,66
 379 1022 379 1022 379.5 908.5 c 128,-1,67
 380 795 380 795 380 643 c 0,68,69
 380 540 380 540 383 461.5 c 128,-1,70
 386 383 386 383 398.5 325.5 c 128,-1,71
 411 268 411 268 436.5 229.5 c 128,-1,72
 462 191 462 191 507 168 c 128,-1,73
 552 145 552 145 619.5 135.5 c 128,-1,74
 687 126 687 126 784 126 c 0,47,48
EndSplineSet
EndChar

StartChar: R
Encoding: 82 82 51
Width: 1513
Flags: W
LayerCount: 2
Fore
SplineSet
415 0 m 1,0,-1
 194 0 l 1,1,-1
 194 1499 l 1,2,-1
 712 1499 l 2,3,4
 784 1499 784 1499 857.5 1496 c 128,-1,5
 931 1493 931 1493 1000 1481 c 128,-1,6
 1069 1469 1069 1469 1129 1445 c 128,-1,7
 1189 1421 1189 1421 1234 1378 c 128,-1,8
 1279 1335 1279 1335 1305 1270 c 128,-1,9
 1331 1205 1331 1205 1331 1112 c 0,10,11
 1331 1025 1331 1025 1319.5 955 c 128,-1,12
 1308 885 1308 885 1276.5 835 c 128,-1,13
 1245 785 1245 785 1188.5 755.5 c 128,-1,14
 1132 726 1132 726 1042 719 c 1,15,16
 1116 716 1116 716 1168 692 c 128,-1,17
 1220 668 1220 668 1254 623.5 c 128,-1,18
 1288 579 1288 579 1306.5 514.5 c 128,-1,19
 1325 450 1325 450 1332 365 c 2,20,-1
 1362 1 l 1,21,-1
 1143 1 l 1,22,-1
 1113 343 l 2,23,24
 1105 437 1105 437 1083 495 c 128,-1,25
 1061 553 1061 553 1018 584.5 c 128,-1,26
 975 616 975 616 907 626.5 c 128,-1,27
 839 637 839 637 739 637 c 2,28,-1
 415 637 l 1,29,-1
 415 0 l 1,0,-1
760 793 m 2,30,31
 804 793 804 793 856.5 796 c 128,-1,32
 909 799 909 799 957.5 811 c 128,-1,33
 1006 823 1006 823 1044 847 c 128,-1,34
 1082 871 1082 871 1097 914 c 0,35,36
 1109 949 1109 949 1110.5 991 c 128,-1,37
 1112 1033 1112 1033 1112 1070 c 2,38,-1
 1112 1092 l 2,39,40
 1112 1128 1112 1128 1110.5 1170 c 128,-1,41
 1109 1212 1109 1212 1093 1245 c 0,42,43
 1076 1279 1076 1279 1037 1298.5 c 128,-1,44
 998 1318 998 1318 949.5 1327.5 c 128,-1,45
 901 1337 901 1337 849.5 1339.5 c 128,-1,46
 798 1342 798 1342 756 1342 c 2,47,-1
 415 1342 l 1,48,-1
 415 793 l 1,49,-1
 760 793 l 2,30,31
EndSplineSet
EndChar

StartChar: S
Encoding: 83 83 52
Width: 1436
Flags: W
LayerCount: 2
Fore
SplineSet
1032 1106 m 1,0,1
 1030 1191 1030 1191 1012 1243 c 128,-1,2
 994 1295 994 1295 958 1323 c 128,-1,3
 922 1351 922 1351 868.5 1360.5 c 128,-1,4
 815 1370 815 1370 743 1370 c 0,5,6
 656 1370 656 1370 596.5 1366 c 128,-1,7
 537 1362 537 1362 498 1351 c 128,-1,8
 459 1340 459 1340 437.5 1320 c 128,-1,9
 416 1300 416 1300 406 1267 c 128,-1,10
 396 1234 396 1234 394 1187 c 128,-1,11
 392 1140 392 1140 392 1075 c 0,12,13
 392 1052 392 1052 393 1026.5 c 128,-1,14
 394 1001 394 1001 400.5 978.5 c 128,-1,15
 407 956 407 956 420.5 939 c 128,-1,16
 434 922 434 922 460 917 c 0,17,18
 615 885 615 885 735.5 870.5 c 128,-1,19
 856 856 856 856 947 841.5 c 128,-1,20
 1038 827 1038 827 1100.5 805 c 128,-1,21
 1163 783 1163 783 1202 737 c 128,-1,22
 1241 691 1241 691 1258.5 612.5 c 128,-1,23
 1276 534 1276 534 1276 407 c 0,24,25
 1276 303 1276 303 1257 229.5 c 128,-1,26
 1238 156 1238 156 1202 107 c 128,-1,27
 1166 58 1166 58 1114.5 29 c 128,-1,28
 1063 0 1063 0 998.5 -14.5 c 128,-1,29
 934 -29 934 -29 858 -33 c 128,-1,30
 782 -37 782 -37 696 -37 c 0,31,32
 562 -37 562 -37 459 -19 c 128,-1,33
 356 -1 356 -1 286.5 47 c 128,-1,34
 217 95 217 95 181 180 c 128,-1,35
 145 265 145 265 145 399 c 2,36,-1
 145 416 l 1,37,-1
 354 416 l 1,38,39
 354 408 354 408 353.5 401 c 128,-1,40
 353 394 353 394 353 386 c 0,41,42
 353 308 353 308 370 259.5 c 128,-1,43
 387 211 387 211 426 184 c 128,-1,44
 465 157 465 157 528 147 c 128,-1,45
 591 137 591 137 683 137 c 0,46,47
 791 137 791 137 864.5 141 c 128,-1,48
 938 145 938 145 983.5 170 c 128,-1,49
 1029 195 1029 195 1048.5 248.5 c 128,-1,50
 1068 302 1068 302 1068 401 c 0,51,52
 1068 435 1068 435 1065.5 475.5 c 128,-1,53
 1063 516 1063 516 1054 551.5 c 128,-1,54
 1045 587 1045 587 1027.5 612.5 c 128,-1,55
 1010 638 1010 638 980 643 c 1,56,57
 927 655 927 655 864 664 c 128,-1,58
 801 673 801 673 733.5 682 c 128,-1,59
 666 691 666 691 598.5 700.5 c 128,-1,60
 531 710 531 710 471 722 c 1,61,62
 379 737 379 737 321 768.5 c 128,-1,63
 263 800 263 800 230.5 848.5 c 128,-1,64
 198 897 198 897 186 961.5 c 128,-1,65
 174 1026 174 1026 174 1106 c 0,66,67
 174 1237 174 1237 203.5 1320 c 128,-1,68
 233 1403 233 1403 295.5 1450.5 c 128,-1,69
 358 1498 358 1498 455.5 1515.5 c 128,-1,70
 553 1533 553 1533 689 1533 c 0,71,72
 837 1533 837 1533 941 1515 c 128,-1,73
 1045 1497 1045 1497 1110.5 1450 c 128,-1,74
 1176 1403 1176 1403 1206.5 1319.5 c 128,-1,75
 1237 1236 1237 1236 1239 1106 c 1,76,-1
 1032 1106 l 1,0,1
EndSplineSet
EndChar

StartChar: T
Encoding: 84 84 53
Width: 1009
Flags: W
LayerCount: 2
Fore
SplineSet
1027 1499 m 1,0,-1
 1027 1339 l 1,1,-1
 602 1339 l 1,2,-1
 602 0 l 1,3,-1
 381 0 l 1,4,-1
 381 1339 l 1,5,-1
 -36 1339 l 1,6,-1
 -36 1499 l 1,7,-1
 1027 1499 l 1,0,-1
EndSplineSet
EndChar

StartChar: U
Encoding: 85 85 54
Width: 1605
Flags: W
LayerCount: 2
Fore
SplineSet
799 -37 m 256,0,1
 688 -37 688 -37 599 -31.5 c 128,-1,2
 510 -26 510 -26 441.5 -6.5 c 128,-1,3
 373 13 373 13 324 51 c 128,-1,4
 275 89 275 89 243.5 154.5 c 128,-1,5
 212 220 212 220 197 316 c 128,-1,6
 182 412 182 412 182 549 c 2,7,-1
 182 1499 l 1,8,-1
 403 1499 l 1,9,-1
 403 467 l 2,10,11
 403 396 403 396 407.5 343.5 c 128,-1,12
 412 291 412 291 426.5 253 c 128,-1,13
 441 215 441 215 467.5 190.5 c 128,-1,14
 494 166 494 166 538 151.5 c 128,-1,15
 582 137 582 137 646 131.5 c 128,-1,16
 710 126 710 126 799 126 c 256,17,18
 888 126 888 126 952 131.5 c 128,-1,19
 1016 137 1016 137 1060 151.5 c 128,-1,20
 1104 166 1104 166 1130.5 190.5 c 128,-1,21
 1157 215 1157 215 1171.5 253 c 128,-1,22
 1186 291 1186 291 1190.5 343.5 c 128,-1,23
 1195 396 1195 396 1195 467 c 2,24,-1
 1195 1499 l 1,25,-1
 1416 1499 l 1,26,-1
 1416 549 l 2,27,28
 1416 413 1416 413 1401 316.5 c 128,-1,29
 1386 220 1386 220 1354.5 154.5 c 128,-1,30
 1323 89 1323 89 1274 51 c 128,-1,31
 1225 13 1225 13 1156.5 -6.5 c 128,-1,32
 1088 -26 1088 -26 999 -31.5 c 128,-1,33
 910 -37 910 -37 799 -37 c 256,0,1
EndSplineSet
EndChar

StartChar: V
Encoding: 86 86 55
Width: 1339
Flags: W
LayerCount: 2
Fore
SplineSet
667 256 m 1,0,-1
 673 256 l 1,1,-1
 1067 1499 l 1,2,-1
 1305 1499 l 1,3,-1
 778 0 l 1,4,-1
 548 0 l 1,5,-1
 28 1499 l 1,6,-1
 262 1499 l 1,7,-1
 667 256 l 1,0,-1
EndSplineSet
EndChar

StartChar: W
Encoding: 87 87 56
Width: 1989
Flags: W
LayerCount: 2
Fore
SplineSet
1422 266 m 1,0,-1
 1428 266 l 1,1,-1
 1692 1499 l 1,2,-1
 1920 1499 l 1,3,-1
 1543 0 l 1,4,-1
 1293 0 l 1,5,-1
 992 1192 l 1,6,-1
 684 0 l 1,7,-1
 434 0 l 1,8,-1
 64 1499 l 1,9,-1
 298 1499 l 1,10,-1
 563 266 l 1,11,-1
 569 266 l 1,12,-1
 883 1499 l 1,13,-1
 1097 1499 l 1,14,-1
 1422 266 l 1,0,-1
EndSplineSet
EndChar

StartChar: X
Encoding: 88 88 57
Width: 1299
Flags: W
LayerCount: 2
Fore
SplineSet
652 598 m 1,0,-1
 301 0 l 1,1,-1
 64 0 l 1,2,-1
 532 770 l 1,3,-1
 86 1499 l 1,4,-1
 317 1499 l 1,5,-1
 652 934 l 1,6,-1
 987 1499 l 1,7,-1
 1218 1499 l 1,8,-1
 772 770 l 1,9,-1
 1240 0 l 1,10,-1
 1003 0 l 1,11,-1
 652 598 l 1,0,-1
EndSplineSet
EndChar

StartChar: Y
Encoding: 89 89 58
Width: 1148
Flags: W
LayerCount: 2
Fore
SplineSet
224 1499 m 1,0,-1
 571 717 l 1,1,-1
 925 1499 l 1,2,-1
 1151 1499 l 1,3,-1
 676 510 l 1,4,-1
 676 0 l 1,5,-1
 455 0 l 1,6,-1
 455 510 l 1,7,-1
 -12 1499 l 1,8,-1
 224 1499 l 1,0,-1
EndSplineSet
EndChar

StartChar: Z
Encoding: 90 90 59
Width: 1189
Flags: W
LayerCount: 2
Fore
SplineSet
106 0 m 1,0,-1
 106 147 l 1,1,-1
 833 1336 l 1,2,-1
 184 1336 l 1,3,-1
 184 1499 l 1,4,-1
 1059 1499 l 1,5,-1
 1059 1328 l 1,6,-1
 356 168 l 1,7,-1
 1058 168 l 1,8,-1
 1058 0 l 1,9,-1
 106 0 l 1,0,-1
EndSplineSet
EndChar

StartChar: bracketleft
Encoding: 91 91 60
Width: 674
Flags: W
LayerCount: 2
Fore
SplineSet
708 1710 m 1,0,-1
 708 1543 l 1,1,-1
 423 1543 l 1,2,-1
 423 -114 l 1,3,-1
 708 -114 l 1,4,-1
 708 -282 l 1,5,-1
 201 -282 l 1,6,-1
 201 1710 l 1,7,-1
 708 1710 l 1,0,-1
EndSplineSet
EndChar

StartChar: backslash
Encoding: 92 92 61
Width: 951
Flags: W
LayerCount: 2
Fore
SplineSet
903 0 m 1,0,-1
 411 0 l 1,1,-1
 56 1521 l 1,2,-1
 546 1521 l 1,3,-1
 903 0 l 1,0,-1
EndSplineSet
EndChar

StartChar: bracketright
Encoding: 93 93 62
Width: 679
Flags: W
LayerCount: 2
Fore
SplineSet
478 1710 m 1,0,-1
 478 -282 l 1,1,-1
 -29 -282 l 1,2,-1
 -29 -114 l 1,3,-1
 256 -114 l 1,4,-1
 256 1543 l 1,5,-1
 -29 1543 l 1,6,-1
 -29 1710 l 1,7,-1
 478 1710 l 1,0,-1
EndSplineSet
EndChar

StartChar: asciicircum
Encoding: 94 94 63
Width: 1325
Flags: W
LayerCount: 2
Fore
SplineSet
1250 60 m 1,0,-1
 760 60 l 1,1,-1
 673 358 l 1,2,-1
 590 60 l 1,3,-1
 99 60 l 1,4,-1
 362 622 l 1,5,-1
 974 622 l 1,6,-1
 1250 60 l 1,0,-1
EndSplineSet
EndChar

StartChar: underscore
Encoding: 95 95 64
Width: 1203
Flags: W
LayerCount: 2
Fore
SplineSet
1061 -425 m 1,0,-1
 138 -425 l 1,1,-1
 138 -38 l 1,2,-1
 1061 -38 l 1,3,-1
 1061 -425 l 1,0,-1
EndSplineSet
EndChar

StartChar: grave
Encoding: 96 96 65
Width: 1002
Flags: W
LayerCount: 2
Fore
SplineSet
840 1411 m 1,0,1
 874 1383 874 1383 874 1370 c 256,2,3
 874 1357 874 1357 855.5 1348 c 128,-1,4
 837 1339 837 1339 810 1339 c 0,5,6
 802 1339 802 1339 792.5 1340 c 128,-1,7
 783 1341 783 1341 776 1344 c 2,8,-1
 732 1358 l 1,9,10
 656 1378 656 1378 570 1401 c 128,-1,11
 484 1424 484 1424 404 1447 c 128,-1,12
 324 1470 324 1470 258 1492 c 128,-1,13
 192 1514 192 1514 156 1532 c 1,14,15
 96 1566 96 1566 66 1609.5 c 128,-1,16
 36 1653 36 1653 36 1694 c 0,17,18
 36 1725 36 1725 49 1753 c 128,-1,19
 62 1781 62 1781 86 1802.5 c 128,-1,20
 110 1824 110 1824 143.5 1836.5 c 128,-1,21
 177 1849 177 1849 217 1849 c 0,22,23
 245 1849 245 1849 280.5 1840 c 128,-1,24
 316 1831 316 1831 346 1814 c 0,25,26
 380 1794 380 1794 424.5 1761 c 128,-1,27
 469 1728 469 1728 519.5 1688 c 128,-1,28
 570 1648 570 1648 622 1604 c 128,-1,29
 674 1560 674 1560 723 1517 c 2,30,-1
 740 1502 l 2,31,32
 765 1479 765 1479 790 1456 c 128,-1,33
 815 1433 815 1433 840 1415 c 1,34,-1
 840 1411 l 1,0,1
EndSplineSet
EndChar

StartChar: a
Encoding: 97 97 66
Width: 1255
Flags: W
LayerCount: 2
Fore
SplineSet
874 127 m 1,0,1
 864 85 864 85 824 52 c 0,2,3
 807 38 807 38 782 24.5 c 128,-1,4
 757 11 757 11 721.5 0.5 c 128,-1,5
 686 -10 686 -10 639 -16.5 c 128,-1,6
 592 -23 592 -23 532 -23 c 0,7,8
 447 -23 447 -23 374 -9 c 128,-1,9
 301 5 301 5 247.5 39 c 128,-1,10
 194 73 194 73 163.5 130 c 128,-1,11
 133 187 133 187 133 274 c 0,12,13
 133 392 133 392 159 466.5 c 128,-1,14
 185 541 185 541 237 583 c 128,-1,15
 289 625 289 625 367 640 c 128,-1,16
 445 655 445 655 550 655 c 0,17,18
 625 655 625 655 702 650.5 c 128,-1,19
 779 646 779 646 854 637 c 1,20,-1
 854 924 l 2,21,22
 854 966 854 966 834.5 990 c 128,-1,23
 815 1014 815 1014 785 1026 c 128,-1,24
 755 1038 755 1038 718.5 1041 c 128,-1,25
 682 1044 682 1044 648 1044 c 0,26,27
 562 1044 562 1044 507.5 1041 c 128,-1,28
 453 1038 453 1038 422 1020.5 c 128,-1,29
 391 1003 391 1003 379 965.5 c 128,-1,30
 367 928 367 928 367 858 c 1,31,-1
 186 858 l 1,32,33
 186 966 186 966 214 1031 c 128,-1,34
 242 1096 242 1096 295.5 1130.5 c 128,-1,35
 349 1165 349 1165 426.5 1175.5 c 128,-1,36
 504 1186 504 1186 603 1186 c 0,37,38
 657 1186 657 1186 712.5 1183 c 128,-1,39
 768 1180 768 1180 820.5 1170 c 128,-1,40
 873 1160 873 1160 919.5 1140.5 c 128,-1,41
 966 1121 966 1121 1000.5 1088 c 128,-1,42
 1035 1055 1035 1055 1055 1006 c 128,-1,43
 1075 957 1075 957 1075 889 c 2,44,-1
 1075 195 l 2,45,46
 1075 161 1075 161 1076 126.5 c 128,-1,47
 1077 92 1077 92 1079 64 c 0,48,49
 1081 31 1081 31 1084 0 c 1,50,-1
 907 0 l 1,51,-1
 874 127 l 1,0,1
625 109 m 0,52,53
 654 109 654 109 693.5 118 c 128,-1,54
 733 127 733 127 768.5 145.5 c 128,-1,55
 804 164 804 164 829 194 c 128,-1,56
 854 224 854 224 854 266 c 2,57,-1
 854 529 l 1,58,-1
 559 529 l 2,59,60
 498 529 498 529 455.5 519 c 128,-1,61
 413 509 413 509 386.5 484.5 c 128,-1,62
 360 460 360 460 348 419 c 128,-1,63
 336 378 336 378 336 317 c 0,64,65
 336 250 336 250 348 209 c 128,-1,66
 360 168 360 168 392.5 146 c 128,-1,67
 425 124 425 124 481 116.5 c 128,-1,68
 537 109 537 109 625 109 c 0,52,53
EndSplineSet
EndChar

StartChar: b
Encoding: 98 98 67
Width: 1344
Flags: W
LayerCount: 2
Fore
SplineSet
686 1042 m 256,0,1
 613 1042 613 1042 560 1034.5 c 128,-1,2
 507 1027 507 1027 472.5 1001.5 c 128,-1,3
 438 976 438 976 421 928 c 128,-1,4
 404 880 404 880 404 800 c 2,5,-1
 404 343 l 2,6,7
 404 264 404 264 422.5 218.5 c 128,-1,8
 441 173 441 173 477 150 c 128,-1,9
 513 127 513 127 565.5 121 c 128,-1,10
 618 115 618 115 686 115 c 256,11,12
 754 115 754 115 806.5 121 c 128,-1,13
 859 127 859 127 895 150 c 128,-1,14
 931 173 931 173 949.5 218.5 c 128,-1,15
 968 264 968 264 968 343 c 2,16,-1
 968 800 l 2,17,18
 968 880 968 880 951 928 c 128,-1,19
 934 976 934 976 899.5 1001.5 c 128,-1,20
 865 1027 865 1027 812 1034.5 c 128,-1,21
 759 1042 759 1042 686 1042 c 256,0,1
718 -23 m 0,22,23
 656 -23 656 -23 608 -15 c 128,-1,24
 560 -7 560 -7 525 6 c 128,-1,25
 490 19 490 19 465.5 35.5 c 128,-1,26
 441 52 441 52 425 70 c 0,27,28
 387 111 387 111 382 164 c 1,29,-1
 360 0 l 1,30,-1
 194 0 l 1,31,-1
 194 1595 l 1,32,-1
 397 1595 l 1,33,-1
 397 992 l 1,34,35
 402 1045 402 1045 433 1086 c 0,36,37
 446 1104 446 1104 466.5 1120.5 c 128,-1,38
 487 1137 487 1137 516.5 1150.5 c 128,-1,39
 546 1164 546 1164 586 1172 c 128,-1,40
 626 1180 626 1180 679 1180 c 0,41,42
 798 1180 798 1180 881.5 1166 c 128,-1,43
 965 1152 965 1152 1021 1121.5 c 128,-1,44
 1077 1091 1077 1091 1109.5 1043.5 c 128,-1,45
 1142 996 1142 996 1158.5 929.5 c 128,-1,46
 1175 863 1175 863 1179.5 776 c 128,-1,47
 1184 689 1184 689 1184 581 c 0,48,49
 1184 469 1184 469 1180 380.5 c 128,-1,50
 1176 292 1176 292 1161 225 c 128,-1,51
 1146 158 1146 158 1116.5 111 c 128,-1,52
 1087 64 1087 64 1035 34 c 128,-1,53
 983 4 983 4 905.5 -9.5 c 128,-1,54
 828 -23 828 -23 718 -23 c 0,22,23
EndSplineSet
EndChar

StartChar: c
Encoding: 99 99 68
Width: 1242
Flags: W
LayerCount: 2
Fore
SplineSet
1089 375 m 1,0,1
 1086 321 1086 321 1079.5 270.5 c 128,-1,2
 1073 220 1073 220 1055.5 176 c 128,-1,3
 1038 132 1038 132 1008 95.5 c 128,-1,4
 978 59 978 59 928.5 32.5 c 128,-1,5
 879 6 879 6 807 -8.5 c 128,-1,6
 735 -23 735 -23 636 -23 c 0,7,8
 529 -23 529 -23 450.5 -10 c 128,-1,9
 372 3 372 3 317.5 31.5 c 128,-1,10
 263 60 263 60 229 104.5 c 128,-1,11
 195 149 195 149 176 211.5 c 128,-1,12
 157 274 157 274 150.5 355.5 c 128,-1,13
 144 437 144 437 144 539 c 0,14,15
 144 665 144 665 149.5 761.5 c 128,-1,16
 155 858 155 858 173 929 c 128,-1,17
 191 1000 191 1000 225 1048.5 c 128,-1,18
 259 1097 259 1097 316 1126 c 128,-1,19
 373 1155 373 1155 457 1167.5 c 128,-1,20
 541 1180 541 1180 659 1180 c 0,21,22
 753 1180 753 1180 821 1167 c 128,-1,23
 889 1154 889 1154 936 1129.5 c 128,-1,24
 983 1105 983 1105 1011.5 1070.5 c 128,-1,25
 1040 1036 1040 1036 1056.5 993.5 c 128,-1,26
 1073 951 1073 951 1079.5 901.5 c 128,-1,27
 1086 852 1086 852 1089 797 c 1,28,-1
 880 797 l 1,29,30
 881 811 881 811 881 823.5 c 128,-1,31
 881 836 881 836 881 847 c 0,32,33
 881 905 881 905 871.5 943 c 128,-1,34
 862 981 862 981 836 1003 c 128,-1,35
 810 1025 810 1025 763.5 1033.5 c 128,-1,36
 717 1042 717 1042 643 1042 c 0,37,38
 556 1042 556 1042 500.5 1031 c 128,-1,39
 445 1020 445 1020 414 989.5 c 128,-1,40
 383 959 383 959 371.5 905.5 c 128,-1,41
 360 852 360 852 360 767 c 2,42,-1
 360 360 l 2,43,44
 360 283 360 283 373 235.5 c 128,-1,45
 386 188 386 188 418 161 c 128,-1,46
 450 134 450 134 503.5 124.5 c 128,-1,47
 557 115 557 115 638 115 c 0,48,49
 708 115 708 115 755.5 121.5 c 128,-1,50
 803 128 803 128 831.5 147 c 128,-1,51
 860 166 860 166 872 201.5 c 128,-1,52
 884 237 884 237 884 294 c 0,53,54
 884 312 884 312 883 332 c 128,-1,55
 882 352 882 352 880 375 c 1,56,-1
 1089 375 l 1,0,1
EndSplineSet
EndChar

StartChar: d
Encoding: 100 100 69
Width: 1330
Flags: W
LayerCount: 2
Fore
SplineSet
608 -23 m 0,0,1
 498 -23 498 -23 420.5 -9.5 c 128,-1,2
 343 4 343 4 291 34 c 128,-1,3
 239 64 239 64 209.5 111 c 128,-1,4
 180 158 180 158 165 225 c 128,-1,5
 150 292 150 292 146 380.5 c 128,-1,6
 142 469 142 469 142 581 c 0,7,8
 142 689 142 689 146.5 776 c 128,-1,9
 151 863 151 863 167.5 929.5 c 128,-1,10
 184 996 184 996 216.5 1043.5 c 128,-1,11
 249 1091 249 1091 305 1121.5 c 128,-1,12
 361 1152 361 1152 444.5 1166 c 128,-1,13
 528 1180 528 1180 647 1180 c 0,14,15
 699 1180 699 1180 739.5 1172 c 128,-1,16
 780 1164 780 1164 809.5 1150.5 c 128,-1,17
 839 1137 839 1137 859.5 1120.5 c 128,-1,18
 880 1104 880 1104 893 1086 c 0,19,20
 924 1045 924 1045 929 992 c 1,21,-1
 929 1595 l 1,22,-1
 1132 1595 l 1,23,-1
 1132 0 l 1,24,-1
 966 0 l 1,25,-1
 944 164 l 1,26,27
 937 111 937 111 900 70 c 0,28,29
 884 52 884 52 859.5 35.5 c 128,-1,30
 835 19 835 19 800 6 c 128,-1,31
 765 -7 765 -7 717.5 -15 c 128,-1,32
 670 -23 670 -23 608 -23 c 0,0,1
640 1042 m 256,33,34
 567 1042 567 1042 514 1034.5 c 128,-1,35
 461 1027 461 1027 426.5 1001.5 c 128,-1,36
 392 976 392 976 375 928 c 128,-1,37
 358 880 358 880 358 800 c 2,38,-1
 358 343 l 2,39,40
 358 264 358 264 376.5 218.5 c 128,-1,41
 395 173 395 173 431 150 c 128,-1,42
 467 127 467 127 519.5 121 c 128,-1,43
 572 115 572 115 640 115 c 256,44,45
 708 115 708 115 760.5 121 c 128,-1,46
 813 127 813 127 849 150 c 128,-1,47
 885 173 885 173 903.5 218.5 c 128,-1,48
 922 264 922 264 922 343 c 2,49,-1
 922 800 l 2,50,51
 922 880 922 880 905 928 c 128,-1,52
 888 976 888 976 853.5 1001.5 c 128,-1,53
 819 1027 819 1027 766 1034.5 c 128,-1,54
 713 1042 713 1042 640 1042 c 256,33,34
EndSplineSet
EndChar

StartChar: e
Encoding: 101 101 70
Width: 1286
Flags: W
LayerCount: 2
Fore
SplineSet
1117 354 m 1,0,1
 1117 293 1117 293 1113.5 241.5 c 128,-1,2
 1110 190 1110 190 1094.5 148 c 128,-1,3
 1079 106 1079 106 1048.5 74 c 128,-1,4
 1018 42 1018 42 963.5 20.5 c 128,-1,5
 909 -1 909 -1 827 -12 c 128,-1,6
 745 -23 745 -23 628 -23 c 0,7,8
 464 -23 464 -23 367.5 11 c 128,-1,9
 271 45 271 45 221.5 116.5 c 128,-1,10
 172 188 172 188 158 298.5 c 128,-1,11
 144 409 144 409 144 561 c 0,12,13
 144 679 144 679 149.5 770.5 c 128,-1,14
 155 862 155 862 173.5 931 c 128,-1,15
 192 1000 192 1000 225.5 1047.5 c 128,-1,16
 259 1095 259 1095 314.5 1124.5 c 128,-1,17
 370 1154 370 1154 451.5 1167 c 128,-1,18
 533 1180 533 1180 646 1180 c 0,19,20
 766 1180 766 1180 850 1159.5 c 128,-1,21
 934 1139 934 1139 988.5 1100 c 128,-1,22
 1043 1061 1043 1061 1071.5 1003.5 c 128,-1,23
 1100 946 1100 946 1109 872 c 0,24,25
 1119 792 1119 792 1121.5 714 c 128,-1,26
 1124 636 1124 636 1124 555 c 1,27,-1
 360 555 l 1,28,-1
 360 349 l 2,29,30
 360 281 360 281 371.5 236 c 128,-1,31
 383 191 383 191 413.5 164 c 128,-1,32
 444 137 444 137 498 126 c 128,-1,33
 552 115 552 115 638 115 c 0,34,35
 729 115 729 115 784 122 c 128,-1,36
 839 129 839 129 869 153.5 c 128,-1,37
 899 178 899 178 908.5 225.5 c 128,-1,38
 918 273 918 273 918 354 c 1,39,-1
 1117 354 l 1,0,1
360 659 m 1,40,-1
 908 659 l 1,41,-1
 908 766 l 2,42,43
 908 835 908 835 904 886.5 c 128,-1,44
 900 938 900 938 874 972.5 c 128,-1,45
 848 1007 848 1007 792 1024.5 c 128,-1,46
 736 1042 736 1042 632 1042 c 0,47,48
 571 1042 571 1042 521 1035.5 c 128,-1,49
 471 1029 471 1029 435 1006 c 128,-1,50
 399 983 399 983 379.5 939.5 c 128,-1,51
 360 896 360 896 360 822 c 2,52,-1
 360 659 l 1,40,-1
EndSplineSet
EndChar

StartChar: f
Encoding: 102 102 71
Width: 802
Flags: W
LayerCount: 2
Fore
SplineSet
99 1147 m 1,0,-1
 242 1147 l 1,1,-1
 242 1359 l 2,2,3
 242 1431 242 1431 262.5 1477.5 c 128,-1,4
 283 1524 283 1524 318 1551 c 128,-1,5
 353 1578 353 1578 399.5 1588.5 c 128,-1,6
 446 1599 446 1599 498 1599 c 0,7,8
 543 1599 543 1599 589.5 1593.5 c 128,-1,9
 636 1588 636 1588 681 1581 c 1,10,-1
 681 1432 l 1,11,-1
 459 1432 l 1,12,-1
 459 1147 l 1,13,-1
 677 1147 l 1,14,-1
 677 1028 l 1,15,-1
 459 1028 l 1,16,-1
 459 0 l 1,17,-1
 242 0 l 1,18,-1
 242 1028 l 1,19,-1
 99 1028 l 1,20,-1
 99 1147 l 1,0,-1
EndSplineSet
EndChar

StartChar: g
Encoding: 103 103 72
Width: 1309
Flags: W
LayerCount: 2
Fore
SplineSet
1123 1147 m 1,0,-1
 1123 115 l 2,1,2
 1123 37 1123 37 1116.5 -30 c 128,-1,3
 1110 -97 1110 -97 1091.5 -152.5 c 128,-1,4
 1073 -208 1073 -208 1038.5 -250.5 c 128,-1,5
 1004 -293 1004 -293 947.5 -322.5 c 128,-1,6
 891 -352 891 -352 809.5 -367 c 128,-1,7
 728 -382 728 -382 616 -382 c 0,8,9
 542 -382 542 -382 479 -372.5 c 128,-1,10
 416 -363 416 -363 369 -352 c 0,11,12
 314 -339 314 -339 269 -322 c 1,13,-1
 301 -176 l 1,14,15
 340 -190 340 -190 389 -201 c 0,16,17
 431 -210 431 -210 490.5 -217.5 c 128,-1,18
 550 -225 550 -225 622 -225 c 0,19,20
 697 -225 697 -225 751 -216 c 128,-1,21
 805 -207 805 -207 839.5 -184.5 c 128,-1,22
 874 -162 874 -162 890 -124 c 128,-1,23
 906 -86 906 -86 906 -28 c 2,24,-1
 906 162 l 1,25,26
 900 116 900 116 867 81 c 0,27,28
 853 66 853 66 830.5 51 c 128,-1,29
 808 36 808 36 776 25 c 128,-1,30
 744 14 744 14 700.5 7 c 128,-1,31
 657 0 657 0 600 0 c 0,32,33
 486 0 486 0 407 20.5 c 128,-1,34
 328 41 328 41 277 80 c 128,-1,35
 226 119 226 119 198.5 174.5 c 128,-1,36
 171 230 171 230 158 301 c 128,-1,37
 145 372 145 372 143 456 c 128,-1,38
 141 540 141 540 141 635 c 0,39,40
 141 764 141 764 155 865.5 c 128,-1,41
 169 967 169 967 216.5 1036.5 c 128,-1,42
 264 1106 264 1106 354.5 1143 c 128,-1,43
 445 1180 445 1180 598 1180 c 0,44,45
 657 1180 657 1180 703.5 1172 c 128,-1,46
 750 1164 750 1164 785 1150.5 c 128,-1,47
 820 1137 820 1137 845 1120.5 c 128,-1,48
 870 1104 870 1104 887 1086 c 0,49,50
 927 1045 927 1045 938 992 c 1,51,-1
 955 1147 l 1,52,-1
 1123 1147 l 1,0,-1
580 143 m 0,53,54
 660 143 660 143 721 149.5 c 128,-1,55
 782 156 782 156 823 178.5 c 128,-1,56
 864 201 864 201 885 244 c 128,-1,57
 906 287 906 287 906 360 c 2,58,-1
 906 824 l 2,59,60
 906 902 906 902 884 946 c 128,-1,61
 862 990 862 990 823.5 1011.5 c 128,-1,62
 785 1033 785 1033 733.5 1037.5 c 128,-1,63
 682 1042 682 1042 623 1042 c 0,64,65
 560 1042 560 1042 511 1038 c 128,-1,66
 462 1034 462 1034 428 1011.5 c 128,-1,67
 394 989 394 989 376 941.5 c 128,-1,68
 358 894 358 894 358 807 c 2,69,-1
 358 383 l 2,70,71
 358 303 358 303 371.5 255.5 c 128,-1,72
 385 208 385 208 412 183 c 128,-1,73
 439 158 439 158 481 150.5 c 128,-1,74
 523 143 523 143 580 143 c 0,53,54
EndSplineSet
EndChar

StartChar: h
Encoding: 104 104 73
Width: 1326
Flags: W
LayerCount: 2
Fore
SplineSet
690 1038 m 0,0,1
 588 1038 588 1038 532 1020 c 128,-1,2
 476 1002 476 1002 449 966 c 128,-1,3
 422 930 422 930 416.5 876.5 c 128,-1,4
 411 823 411 823 411 752 c 2,5,-1
 411 0 l 1,6,-1
 194 0 l 1,7,-1
 194 1552 l 1,8,-1
 411 1552 l 1,9,-1
 411 1013 l 1,10,11
 415 1060 415 1060 453 1097 c 0,12,13
 469 1113 469 1113 493.5 1128 c 128,-1,14
 518 1143 518 1143 554 1155 c 128,-1,15
 590 1167 590 1167 638.5 1174.5 c 128,-1,16
 687 1182 687 1182 751 1182 c 0,17,18
 859 1182 859 1182 934.5 1160.5 c 128,-1,19
 1010 1139 1010 1139 1058 1091.5 c 128,-1,20
 1106 1044 1106 1044 1128 967.5 c 128,-1,21
 1150 891 1150 891 1150 780 c 2,22,-1
 1150 0 l 1,23,-1
 931 0 l 1,24,-1
 931 772 l 2,25,26
 931 853 931 853 924.5 904.5 c 128,-1,27
 918 956 918 956 893.5 985.5 c 128,-1,28
 869 1015 869 1015 821 1026.5 c 128,-1,29
 773 1038 773 1038 690 1038 c 0,0,1
EndSplineSet
EndChar

StartChar: i
Encoding: 105 105 74
Width: 611
Flags: W
LayerCount: 2
Fore
SplineSet
413 0 m 1,0,-1
 194 0 l 1,1,-1
 194 1147 l 1,2,-1
 413 1147 l 1,3,-1
 413 0 l 1,0,-1
413 1384 m 1,4,-1
 194 1384 l 1,5,-1
 194 1571 l 1,6,-1
 413 1571 l 1,7,-1
 413 1384 l 1,4,-1
EndSplineSet
EndChar

StartChar: j
Encoding: 106 106 75
Width: 587
Flags: W
LayerCount: 2
Fore
SplineSet
389 -49 m 2,0,1
 389 -104 389 -104 379 -152 c 128,-1,2
 369 -200 369 -200 341 -235 c 128,-1,3
 313 -270 313 -270 262.5 -290.5 c 128,-1,4
 212 -311 212 -311 131 -311 c 0,5,6
 93 -311 93 -311 59 -307 c 128,-1,7
 25 -303 25 -303 -10 -297 c 1,8,-1
 -14 -156 l 1,9,-1
 172 -156 l 1,10,-1
 172 1147 l 1,11,-1
 389 1147 l 1,12,-1
 389 -49 l 2,0,1
391 1384 m 1,13,-1
 172 1384 l 1,14,-1
 172 1571 l 1,15,-1
 391 1571 l 1,16,-1
 391 1384 l 1,13,-1
EndSplineSet
EndChar

StartChar: k
Encoding: 107 107 76
Width: 1226
Flags: W
LayerCount: 2
Fore
SplineSet
411 660 m 1,0,-1
 889 1147 l 1,1,-1
 1139 1147 l 1,2,-1
 659 674 l 1,3,-1
 1175 0 l 1,4,-1
 932 0 l 1,5,-1
 508 568 l 1,6,-1
 411 481 l 1,7,-1
 411 0 l 1,8,-1
 194 0 l 1,9,-1
 194 1552 l 1,10,-1
 411 1552 l 1,11,-1
 411 660 l 1,0,-1
EndSplineSet
EndChar

StartChar: l
Encoding: 108 108 77
Width: 609
Flags: W
LayerCount: 2
Fore
SplineSet
411 0 m 1,0,-1
 194 0 l 1,1,-1
 194 1552 l 1,2,-1
 411 1552 l 1,3,-1
 411 0 l 1,0,-1
EndSplineSet
EndChar

StartChar: m
Encoding: 109 109 78
Width: 1941
Flags: W
LayerCount: 2
Fore
SplineSet
659 1038 m 0,0,1
 567 1038 567 1038 514 1024 c 128,-1,2
 461 1010 461 1010 434.5 982 c 128,-1,3
 408 954 408 954 401.5 911.5 c 128,-1,4
 395 869 395 869 395 813 c 2,5,-1
 395 0 l 1,6,-1
 178 0 l 1,7,-1
 178 1147 l 1,8,-1
 351 1147 l 1,9,-1
 377 1002 l 1,10,11
 387 1051 387 1051 426 1091 c 0,12,13
 442 1107 442 1107 466 1123 c 128,-1,14
 490 1139 490 1139 524 1152 c 128,-1,15
 558 1165 558 1165 602.5 1172.5 c 128,-1,16
 647 1180 647 1180 704 1180 c 0,17,18
 782 1180 782 1180 838 1165.5 c 128,-1,19
 894 1151 894 1151 933 1127 c 128,-1,20
 972 1103 972 1103 995.5 1072 c 128,-1,21
 1019 1041 1019 1041 1032 1008 c 1,22,23
 1044 1041 1044 1041 1070.5 1072 c 128,-1,24
 1097 1103 1097 1103 1139.5 1127 c 128,-1,25
 1182 1151 1182 1151 1241 1165.5 c 128,-1,26
 1300 1180 1300 1180 1378 1180 c 0,27,28
 1492 1180 1492 1180 1566 1160 c 128,-1,29
 1640 1140 1640 1140 1683.5 1095 c 128,-1,30
 1727 1050 1727 1050 1744 977.5 c 128,-1,31
 1761 905 1761 905 1761 801 c 2,32,-1
 1761 0 l 1,33,-1
 1544 0 l 1,34,-1
 1544 788 l 2,35,36
 1544 864 1544 864 1539.5 913 c 128,-1,37
 1535 962 1535 962 1514.5 990 c 128,-1,38
 1494 1018 1494 1018 1451 1029 c 128,-1,39
 1408 1040 1408 1040 1331 1040 c 0,40,41
 1264 1040 1264 1040 1217 1027 c 128,-1,42
 1170 1014 1170 1014 1140 988 c 128,-1,43
 1110 962 1110 962 1096.5 922 c 128,-1,44
 1083 882 1083 882 1083 827 c 2,45,-1
 1083 0 l 1,46,-1
 866 0 l 1,47,-1
 866 813 l 2,48,49
 866 881 866 881 860 925 c 128,-1,50
 854 969 854 969 833 994 c 128,-1,51
 812 1019 812 1019 770.5 1028.5 c 128,-1,52
 729 1038 729 1038 659 1038 c 0,0,1
EndSplineSet
EndChar

StartChar: n
Encoding: 110 110 79
Width: 1313
Flags: W
LayerCount: 2
Fore
SplineSet
674 1038 m 0,0,1
 572 1038 572 1038 516 1020 c 128,-1,2
 460 1002 460 1002 433 966 c 128,-1,3
 406 930 406 930 400.5 876.5 c 128,-1,4
 395 823 395 823 395 752 c 2,5,-1
 395 0 l 1,6,-1
 178 0 l 1,7,-1
 178 1147 l 1,8,-1
 351 1147 l 1,9,-1
 377 1004 l 1,10,11
 387 1053 387 1053 428 1092 c 0,12,13
 446 1108 446 1108 472 1124 c 128,-1,14
 498 1140 498 1140 535.5 1152.5 c 128,-1,15
 573 1165 573 1165 622 1172.5 c 128,-1,16
 671 1180 671 1180 735 1180 c 0,17,18
 843 1180 843 1180 918.5 1159 c 128,-1,19
 994 1138 994 1138 1042 1090.5 c 128,-1,20
 1090 1043 1090 1043 1112 967 c 128,-1,21
 1134 891 1134 891 1134 780 c 2,22,-1
 1134 0 l 1,23,-1
 915 0 l 1,24,-1
 915 772 l 2,25,26
 915 853 915 853 908.5 904.5 c 128,-1,27
 902 956 902 956 877.5 985.5 c 128,-1,28
 853 1015 853 1015 805 1026.5 c 128,-1,29
 757 1038 757 1038 674 1038 c 0,0,1
EndSplineSet
EndChar

StartChar: o
Encoding: 111 111 80
Width: 1302
Flags: W
LayerCount: 2
Fore
SplineSet
144 584 m 0,0,1
 144 694 144 694 150 781 c 128,-1,2
 156 868 156 868 174 934.5 c 128,-1,3
 192 1001 192 1001 226 1047.5 c 128,-1,4
 260 1094 260 1094 315 1123.5 c 128,-1,5
 370 1153 370 1153 450.5 1166.5 c 128,-1,6
 531 1180 531 1180 642 1180 c 256,7,8
 753 1180 753 1180 833.5 1166.5 c 128,-1,9
 914 1153 914 1153 969 1123.5 c 128,-1,10
 1024 1094 1024 1094 1058 1047.5 c 128,-1,11
 1092 1001 1092 1001 1110 934.5 c 128,-1,12
 1128 868 1128 868 1134 781 c 128,-1,13
 1140 694 1140 694 1140 584 c 0,14,15
 1140 472 1140 472 1134.5 383.5 c 128,-1,16
 1129 295 1129 295 1111.5 227.5 c 128,-1,17
 1094 160 1094 160 1060.5 112.5 c 128,-1,18
 1027 65 1027 65 972 35 c 128,-1,19
 917 5 917 5 836 -9 c 128,-1,20
 755 -23 755 -23 642 -23 c 256,21,22
 529 -23 529 -23 448 -9 c 128,-1,23
 367 5 367 5 312 35 c 128,-1,24
 257 65 257 65 223.5 112.5 c 128,-1,25
 190 160 190 160 172.5 227.5 c 128,-1,26
 155 295 155 295 149.5 383.5 c 128,-1,27
 144 472 144 472 144 584 c 0,0,1
642 1042 m 256,28,29
 569 1042 569 1042 516 1034.5 c 128,-1,30
 463 1027 463 1027 428.5 1001.5 c 128,-1,31
 394 976 394 976 377 928 c 128,-1,32
 360 880 360 880 360 800 c 2,33,-1
 360 343 l 2,34,35
 360 264 360 264 378.5 218.5 c 128,-1,36
 397 173 397 173 433 150 c 128,-1,37
 469 127 469 127 521.5 121 c 128,-1,38
 574 115 574 115 642 115 c 256,39,40
 710 115 710 115 762.5 121 c 128,-1,41
 815 127 815 127 851 150 c 128,-1,42
 887 173 887 173 905.5 218.5 c 128,-1,43
 924 264 924 264 924 343 c 2,44,-1
 924 800 l 2,45,46
 924 880 924 880 907 928 c 128,-1,47
 890 976 890 976 855.5 1001.5 c 128,-1,48
 821 1027 821 1027 768 1034.5 c 128,-1,49
 715 1042 715 1042 642 1042 c 256,28,29
EndSplineSet
EndChar

StartChar: p
Encoding: 112 112 81
Width: 1331
Flags: W
LayerCount: 2
Fore
SplineSet
670 115 m 256,0,1
 743 115 743 115 796 122.5 c 128,-1,2
 849 130 849 130 883.5 155.5 c 128,-1,3
 918 181 918 181 935 229 c 128,-1,4
 952 277 952 277 952 357 c 2,5,-1
 952 814 l 2,6,7
 952 893 952 893 933.5 938.5 c 128,-1,8
 915 984 915 984 879 1007 c 128,-1,9
 843 1030 843 1030 790.5 1036 c 128,-1,10
 738 1042 738 1042 670 1042 c 256,11,12
 602 1042 602 1042 549.5 1036 c 128,-1,13
 497 1030 497 1030 461 1007 c 128,-1,14
 425 984 425 984 406.5 938.5 c 128,-1,15
 388 893 388 893 388 814 c 2,16,-1
 388 357 l 2,17,18
 388 277 388 277 405 229 c 128,-1,19
 422 181 422 181 456.5 155.5 c 128,-1,20
 491 130 491 130 544 122.5 c 128,-1,21
 597 115 597 115 670 115 c 256,0,1
702 1180 m 0,22,23
 812 1180 812 1180 889.5 1166.5 c 128,-1,24
 967 1153 967 1153 1019 1123 c 128,-1,25
 1071 1093 1071 1093 1100.5 1046 c 128,-1,26
 1130 999 1130 999 1145 932 c 128,-1,27
 1160 865 1160 865 1164 776.5 c 128,-1,28
 1168 688 1168 688 1168 576 c 0,29,30
 1168 468 1168 468 1163.5 381 c 128,-1,31
 1159 294 1159 294 1142.5 227.5 c 128,-1,32
 1126 161 1126 161 1093.5 113.5 c 128,-1,33
 1061 66 1061 66 1005 35.5 c 128,-1,34
 949 5 949 5 865.5 -9 c 128,-1,35
 782 -23 782 -23 663 -23 c 0,36,37
 610 -23 610 -23 570 -15 c 128,-1,38
 530 -7 530 -7 500.5 6.5 c 128,-1,39
 471 20 471 20 450.5 36.5 c 128,-1,40
 430 53 430 53 417 71 c 0,41,42
 386 112 386 112 381 165 c 1,43,-1
 381 -409 l 1,44,-1
 178 -409 l 1,45,-1
 178 1147 l 1,46,-1
 344 1147 l 1,47,-1
 366 993 l 1,48,49
 371 1045 371 1045 409 1086 c 0,50,51
 425 1104 425 1104 449.5 1120.5 c 128,-1,52
 474 1137 474 1137 509 1150.5 c 128,-1,53
 544 1164 544 1164 592 1172 c 128,-1,54
 640 1180 640 1180 702 1180 c 0,22,23
EndSplineSet
EndChar

StartChar: q
Encoding: 113 113 82
Width: 1323
Flags: W
LayerCount: 2
Fore
SplineSet
644 115 m 256,0,1
 717 115 717 115 770 122.5 c 128,-1,2
 823 130 823 130 857.5 155.5 c 128,-1,3
 892 181 892 181 909 229 c 128,-1,4
 926 277 926 277 926 357 c 2,5,-1
 926 814 l 2,6,7
 926 893 926 893 907.5 938.5 c 128,-1,8
 889 984 889 984 853 1007 c 128,-1,9
 817 1030 817 1030 764.5 1036 c 128,-1,10
 712 1042 712 1042 644 1042 c 256,11,12
 576 1042 576 1042 523.5 1036 c 128,-1,13
 471 1030 471 1030 435 1007 c 128,-1,14
 399 984 399 984 380.5 938.5 c 128,-1,15
 362 893 362 893 362 814 c 2,16,-1
 362 357 l 2,17,18
 362 277 362 277 379 229 c 128,-1,19
 396 181 396 181 430.5 155.5 c 128,-1,20
 465 130 465 130 518 122.5 c 128,-1,21
 571 115 571 115 644 115 c 256,0,1
612 1180 m 0,22,23
 674 1180 674 1180 721.5 1172 c 128,-1,24
 769 1164 769 1164 804 1150.5 c 128,-1,25
 839 1137 839 1137 863.5 1120.5 c 128,-1,26
 888 1104 888 1104 904 1086 c 0,27,28
 941 1045 941 1045 948 993 c 1,29,-1
 970 1147 l 1,30,-1
 1136 1147 l 1,31,-1
 1136 -409 l 1,32,-1
 933 -409 l 1,33,-1
 933 165 l 1,34,35
 928 112 928 112 897 71 c 0,36,37
 884 53 884 53 863.5 36.5 c 128,-1,38
 843 20 843 20 813.5 6.5 c 128,-1,39
 784 -7 784 -7 743.5 -15 c 128,-1,40
 703 -23 703 -23 651 -23 c 0,41,42
 532 -23 532 -23 448.5 -9 c 128,-1,43
 365 5 365 5 309 35.5 c 128,-1,44
 253 66 253 66 220.5 113.5 c 128,-1,45
 188 161 188 161 171.5 227.5 c 128,-1,46
 155 294 155 294 150.5 380.5 c 128,-1,47
 146 467 146 467 146 576 c 0,48,49
 146 688 146 688 150 776.5 c 128,-1,50
 154 865 154 865 169 932 c 128,-1,51
 184 999 184 999 213.5 1046 c 128,-1,52
 243 1093 243 1093 295 1123 c 128,-1,53
 347 1153 347 1153 424.5 1166.5 c 128,-1,54
 502 1180 502 1180 612 1180 c 0,22,23
EndSplineSet
EndChar

StartChar: r
Encoding: 114 114 83
Width: 825
Flags: W
LayerCount: 2
Fore
SplineSet
727 1024 m 1,0,1
 664 1024 664 1024 604 1022 c 128,-1,2
 544 1020 544 1020 497.5 1003.5 c 128,-1,3
 451 987 451 987 423 949 c 128,-1,4
 395 911 395 911 395 838 c 2,5,-1
 395 0 l 1,6,-1
 178 0 l 1,7,-1
 178 1147 l 1,8,-1
 351 1147 l 1,9,-1
 377 1004 l 1,10,11
 390 1036 390 1036 424 1067.5 c 128,-1,12
 458 1099 458 1099 505 1124 c 128,-1,13
 552 1149 552 1149 609.5 1164.5 c 128,-1,14
 667 1180 667 1180 727 1180 c 1,15,-1
 727 1024 l 1,0,1
EndSplineSet
EndChar

StartChar: s
Encoding: 115 115 84
Width: 1214
Flags: W
LayerCount: 2
Fore
SplineSet
855 325 m 0,0,1
 855 389 855 389 841 423 c 128,-1,2
 827 457 827 457 796 474.5 c 128,-1,3
 765 492 765 492 714 498.5 c 128,-1,4
 663 505 663 505 590 514 c 0,5,6
 498 525 498 525 418.5 538 c 128,-1,7
 339 551 339 551 280 582.5 c 128,-1,8
 221 614 221 614 187 672.5 c 128,-1,9
 153 731 153 731 153 833 c 0,10,11
 153 910 153 910 170.5 966 c 128,-1,12
 188 1022 188 1022 218.5 1060.5 c 128,-1,13
 249 1099 249 1099 291 1122.5 c 128,-1,14
 333 1146 333 1146 382.5 1159 c 128,-1,15
 432 1172 432 1172 487 1176 c 128,-1,16
 542 1180 542 1180 599 1180 c 0,17,18
 725 1180 725 1180 809.5 1167 c 128,-1,19
 894 1154 894 1154 944.5 1116.5 c 128,-1,20
 995 1079 995 1079 1016.5 1011 c 128,-1,21
 1038 943 1038 943 1038 832 c 1,22,-1
 840 833 l 1,23,24
 840 900 840 900 834 941 c 128,-1,25
 828 982 828 982 803.5 1004.5 c 128,-1,26
 779 1027 779 1027 729.5 1034.5 c 128,-1,27
 680 1042 680 1042 594 1042 c 0,28,29
 539 1042 539 1042 496 1036.5 c 128,-1,30
 453 1031 453 1031 423.5 1012.5 c 128,-1,31
 394 994 394 994 378.5 958.5 c 128,-1,32
 363 923 363 923 363 862 c 0,33,34
 363 803 363 803 377 771 c 128,-1,35
 391 739 391 739 421 722 c 128,-1,36
 451 705 451 705 498 698.5 c 128,-1,37
 545 692 545 692 612 685 c 0,38,39
 716 674 716 674 799 658 c 128,-1,40
 882 642 882 642 940 605.5 c 128,-1,41
 998 569 998 569 1029 502 c 128,-1,42
 1060 435 1060 435 1060 322 c 0,43,44
 1060 244 1060 244 1043.5 188.5 c 128,-1,45
 1027 133 1027 133 997.5 94.5 c 128,-1,46
 968 56 968 56 927 33 c 128,-1,47
 886 10 886 10 836.5 -2.5 c 128,-1,48
 787 -15 787 -15 730.5 -19 c 128,-1,49
 674 -23 674 -23 615 -23 c 0,50,51
 487 -23 487 -23 396 -8 c 128,-1,52
 305 7 305 7 247 47.5 c 128,-1,53
 189 88 189 88 162.5 160.5 c 128,-1,54
 136 233 136 233 136 348 c 1,55,-1
 340 348 l 1,56,57
 340 270 340 270 348.5 224 c 128,-1,58
 357 178 357 178 387 154 c 128,-1,59
 417 130 417 130 474 122.5 c 128,-1,60
 531 115 531 115 627 115 c 0,61,62
 698 115 698 115 742.5 123 c 128,-1,63
 787 131 787 131 812 154 c 128,-1,64
 837 177 837 177 846 218 c 128,-1,65
 855 259 855 259 855 325 c 0,0,1
EndSplineSet
EndChar

StartChar: t
Encoding: 116 116 85
Width: 813
Flags: W
LayerCount: 2
Fore
SplineSet
472 133 m 1,0,-1
 674 133 l 1,1,-1
 674 -16 l 1,2,3
 634 -20 634 -20 589.5 -22 c 128,-1,4
 545 -24 545 -24 503 -24 c 0,5,6
 454 -24 454 -24 409 -15 c 128,-1,7
 364 -6 364 -6 330 16 c 128,-1,8
 296 38 296 38 275.5 74.5 c 128,-1,9
 255 111 255 111 255 166 c 2,10,-1
 255 1028 l 1,11,-1
 92 1028 l 1,12,-1
 92 1147 l 1,13,-1
 255 1147 l 1,14,-1
 255 1462 l 1,15,-1
 472 1462 l 1,16,-1
 472 1147 l 1,17,-1
 685 1147 l 1,18,-1
 685 1028 l 1,19,-1
 472 1028 l 1,20,-1
 472 133 l 1,0,-1
EndSplineSet
EndChar

StartChar: u
Encoding: 117 117 86
Width: 1309
Flags: W
LayerCount: 2
Fore
SplineSet
627 115 m 0,0,1
 729 115 729 115 785 133.5 c 128,-1,2
 841 152 841 152 868 188.5 c 128,-1,3
 895 225 895 225 900.5 279.5 c 128,-1,4
 906 334 906 334 906 405 c 2,5,-1
 906 1147 l 1,6,-1
 1123 1147 l 1,7,-1
 1123 0 l 1,8,-1
 950 0 l 1,9,-1
 924 153 l 1,10,11
 913 104 913 104 872 65 c 0,12,13
 854 48 854 48 828 32.5 c 128,-1,14
 802 17 802 17 765 4.5 c 128,-1,15
 728 -8 728 -8 679 -15.5 c 128,-1,16
 630 -23 630 -23 566 -23 c 0,17,18
 458 -23 458 -23 382.5 -2 c 128,-1,19
 307 19 307 19 259 66.5 c 128,-1,20
 211 114 211 114 189 190 c 128,-1,21
 167 266 167 266 167 377 c 2,22,-1
 167 1147 l 1,23,-1
 386 1147 l 1,24,-1
 386 385 l 2,25,26
 386 304 386 304 392.5 252 c 128,-1,27
 399 200 399 200 423.5 169.5 c 128,-1,28
 448 139 448 139 496 127 c 128,-1,29
 544 115 544 115 627 115 c 0,0,1
EndSplineSet
EndChar

StartChar: v
Encoding: 118 118 87
Width: 1185
Flags: W
LayerCount: 2
Fore
SplineSet
864 1147 m 1,0,-1
 1086 1147 l 1,1,-1
 719 0 l 1,2,-1
 492 0 l 1,3,-1
 75 1147 l 1,4,-1
 287 1147 l 1,5,-1
 604 214 l 1,6,-1
 864 1147 l 1,0,-1
EndSplineSet
EndChar

StartChar: w
Encoding: 119 119 88
Width: 1789
Flags: W
LayerCount: 2
Fore
SplineSet
1251 231 m 1,0,-1
 1466 1147 l 1,1,-1
 1682 1147 l 1,2,-1
 1376 0 l 1,3,-1
 1149 0 l 1,4,-1
 885 877 l 1,5,-1
 637 0 l 1,6,-1
 410 0 l 1,7,-1
 89 1147 l 1,8,-1
 305 1147 l 1,9,-1
 519 231 l 1,10,-1
 787 1147 l 1,11,-1
 987 1147 l 1,12,-1
 1251 231 l 1,0,-1
EndSplineSet
EndChar

StartChar: x
Encoding: 120 120 89
Width: 1187
Flags: W
LayerCount: 2
Fore
SplineSet
594 420 m 1,0,-1
 325 0 l 1,1,-1
 98 0 l 1,2,-1
 480 578 l 1,3,-1
 104 1147 l 1,4,-1
 330 1147 l 1,5,-1
 593 724 l 1,6,-1
 859 1147 l 1,7,-1
 1081 1147 l 1,8,-1
 711 578 l 1,9,-1
 1089 0 l 1,10,-1
 863 0 l 1,11,-1
 594 420 l 1,0,-1
EndSplineSet
EndChar

StartChar: y
Encoding: 121 121 90
Width: 1204
Flags: W
LayerCount: 2
Fore
SplineSet
620 165 m 1,0,-1
 881 1147 l 1,1,-1
 1106 1147 l 1,2,-1
 730 -46 l 2,3,4
 701 -138 701 -138 674 -201.5 c 128,-1,5
 647 -265 647 -265 613 -305 c 128,-1,6
 579 -345 579 -345 534 -362.5 c 128,-1,7
 489 -380 489 -380 425 -380 c 0,8,9
 374 -380 374 -380 308 -370 c 128,-1,10
 242 -360 242 -360 155 -341 c 1,11,-1
 172 -181 l 1,12,13
 198 -186 198 -186 226 -192 c 128,-1,14
 254 -198 254 -198 282.5 -203.5 c 128,-1,15
 311 -209 311 -209 339 -212.5 c 128,-1,16
 367 -216 367 -216 393 -216 c 256,17,18
 419 -216 419 -216 441.5 -211 c 128,-1,19
 464 -206 464 -206 480.5 -194 c 128,-1,20
 497 -182 497 -182 506 -162 c 128,-1,21
 515 -142 515 -142 515 -112 c 0,22,23
 515 -81 515 -81 503 -37 c 1,24,-1
 73 1147 l 1,25,-1
 289 1147 l 1,26,-1
 620 165 l 1,0,-1
EndSplineSet
EndChar

StartChar: z
Encoding: 122 122 91
Width: 1032
Flags: W
LayerCount: 2
Fore
SplineSet
882 1147 m 1,0,-1
 882 1004 l 1,1,-1
 352 139 l 1,2,-1
 878 139 l 1,3,-1
 878 0 l 1,4,-1
 124 0 l 1,5,-1
 124 147 l 1,6,-1
 667 1004 l 1,7,-1
 165 1004 l 1,8,-1
 165 1147 l 1,9,-1
 882 1147 l 1,0,-1
EndSplineSet
EndChar

StartChar: braceleft
Encoding: 123 123 92
Width: 1025
Flags: W
LayerCount: 2
Fore
SplineSet
1122 1610 m 1,0,1
 1034 1610 1034 1610 973.5 1592.5 c 128,-1,2
 913 1575 913 1575 873 1543.5 c 128,-1,3
 833 1512 833 1512 810 1469.5 c 128,-1,4
 787 1427 787 1427 775 1377 c 128,-1,5
 763 1327 763 1327 758.5 1271.5 c 128,-1,6
 754 1216 754 1216 750.5 1160 c 128,-1,7
 747 1104 747 1104 741.5 1048.5 c 128,-1,8
 736 993 736 993 721.5 943 c 128,-1,9
 707 893 707 893 681 850 c 128,-1,10
 655 807 655 807 611 775 c 1,11,-1
 611 742 l 1,12,13
 666 707 666 707 693.5 652.5 c 128,-1,14
 721 598 721 598 733 533 c 128,-1,15
 745 468 745 468 748.5 397 c 128,-1,16
 752 326 752 326 759 257 c 128,-1,17
 766 188 766 188 782.5 125.5 c 128,-1,18
 799 63 799 63 838.5 15.5 c 128,-1,19
 878 -32 878 -32 946 -60 c 128,-1,20
 1014 -88 1014 -88 1123 -88 c 1,21,-1
 1123 -322 l 1,22,23
 907 -322 907 -322 750.5 -286 c 128,-1,24
 594 -250 594 -250 490 -167.5 c 128,-1,25
 386 -85 386 -85 330 49 c 128,-1,26
 274 183 274 183 258 378 c 1,27,-1
 255 399 l 1,28,29
 251 444 251 444 244.5 487.5 c 128,-1,30
 238 531 238 531 218.5 566 c 128,-1,31
 199 601 199 601 163 622.5 c 128,-1,32
 127 644 127 644 64 644 c 1,33,-1
 64 878 l 1,34,35
 126 878 126 878 162 898.5 c 128,-1,36
 198 919 198 919 217.5 952.5 c 128,-1,37
 237 986 237 986 244.5 1030 c 128,-1,38
 252 1074 252 1074 256 1122 c 1,39,-1
 256 1123 l 2,40,41
 256 1126 256 1126 258 1129 c 1,42,-1
 258 1132 l 2,43,44
 258 1134 258 1134 258.5 1136 c 128,-1,45
 259 1138 259 1138 259 1140 c 2,46,-1
 263 1179 l 1,47,48
 293 1350 293 1350 354.5 1475.5 c 128,-1,49
 416 1601 416 1601 518.5 1683 c 128,-1,50
 621 1765 621 1765 769.5 1804.5 c 128,-1,51
 918 1844 918 1844 1122 1844 c 1,52,-1
 1122 1610 l 1,0,1
EndSplineSet
EndChar

StartChar: bar
Encoding: 124 124 93
Width: 992
Flags: W
LayerCount: 2
Fore
SplineSet
793 -98 m 1,0,-1
 199 -98 l 1,1,-1
 199 1716 l 1,2,-1
 793 1716 l 1,3,-1
 793 -98 l 1,0,-1
EndSplineSet
EndChar

StartChar: braceright
Encoding: 125 125 94
Width: 1019
Flags: W
LayerCount: 2
Fore
SplineSet
-91 1844 m 1,0,1
 113 1844 113 1844 261.5 1804.5 c 128,-1,2
 410 1765 410 1765 513 1683 c 128,-1,3
 616 1601 616 1601 677.5 1475.5 c 128,-1,4
 739 1350 739 1350 769 1179 c 1,5,-1
 769 1177 l 2,6,7
 769 1174 769 1174 769.5 1168.5 c 128,-1,8
 770 1163 770 1163 771 1157.5 c 128,-1,9
 772 1152 772 1152 772.5 1147.5 c 128,-1,10
 773 1143 773 1143 773 1143 c 1,11,-1
 775 1121 l 2,12,13
 779 1074 779 1074 786 1030 c 128,-1,14
 793 986 793 986 812.5 952 c 128,-1,15
 832 918 832 918 867.5 898 c 128,-1,16
 903 878 903 878 965 878 c 1,17,-1
 965 644 l 1,18,19
 903 644 903 644 867 622.5 c 128,-1,20
 831 601 831 601 812 566 c 128,-1,21
 793 531 793 531 786.5 487.5 c 128,-1,22
 780 444 780 444 776 399 c 1,23,-1
 776 398 l 2,24,25
 776 393 776 393 775 388.5 c 128,-1,26
 774 384 774 384 774 376 c 0,27,28
 757 181 757 181 701 48 c 128,-1,29
 645 -85 645 -85 541 -167.5 c 128,-1,30
 437 -250 437 -250 281 -286 c 128,-1,31
 125 -322 125 -322 -92 -322 c 1,32,-1
 -92 -88 l 1,33,34
 -7 -88 -7 -88 53.5 -69 c 128,-1,35
 114 -50 114 -50 154.5 -17.5 c 128,-1,36
 195 15 195 15 219 60 c 128,-1,37
 243 105 243 105 256 156.5 c 128,-1,38
 269 208 269 208 274.5 265 c 128,-1,39
 280 322 280 322 284 379 c 1,40,-1
 284 380 l 1,41,42
 287 433 287 433 292.5 486 c 128,-1,43
 298 539 298 539 312 586.5 c 128,-1,44
 326 634 326 634 351 674 c 128,-1,45
 376 714 376 714 420 742 c 1,46,-1
 420 775 l 1,47,48
 366 813 366 813 338.5 869.5 c 128,-1,49
 311 926 311 926 299 992 c 128,-1,50
 287 1058 287 1058 283.5 1129.5 c 128,-1,51
 280 1201 280 1201 272.5 1269.5 c 128,-1,52
 265 1338 265 1338 248 1400 c 128,-1,53
 231 1462 231 1462 192 1508.5 c 128,-1,54
 153 1555 153 1555 85 1582.5 c 128,-1,55
 17 1610 17 1610 -91 1610 c 1,56,-1
 -91 1844 l 1,0,1
EndSplineSet
EndChar

StartChar: asciitilde
Encoding: 126 126 95
Width: 1627
Flags: W
LayerCount: 2
Fore
SplineSet
1173 620 m 1,0,1
 1172 653 1172 653 1165.5 684 c 128,-1,2
 1159 715 1159 715 1146 738 c 128,-1,3
 1133 761 1133 761 1112.5 775 c 128,-1,4
 1092 789 1092 789 1063 789 c 0,5,6
 1037 789 1037 789 1013.5 782 c 128,-1,7
 990 775 990 775 967.5 764 c 128,-1,8
 945 753 945 753 923 739.5 c 128,-1,9
 901 726 901 726 879 714 c 2,10,-1
 863 705 l 1,11,12
 836 687 836 687 806.5 668.5 c 128,-1,13
 777 650 777 650 742 635 c 128,-1,14
 707 620 707 620 665.5 611 c 128,-1,15
 624 602 624 602 573 602 c 0,16,17
 483 602 483 602 417 621 c 128,-1,18
 351 640 351 640 304 674.5 c 128,-1,19
 257 709 257 709 227.5 756.5 c 128,-1,20
 198 804 198 804 181 860.5 c 128,-1,21
 164 917 164 917 157.5 980.5 c 128,-1,22
 151 1044 151 1044 151 1111 c 1,23,-1
 458 1111 l 1,24,25
 458 1079 458 1079 463.5 1049.5 c 128,-1,26
 469 1020 469 1020 482.5 997.5 c 128,-1,27
 496 975 496 975 518 961.5 c 128,-1,28
 540 948 540 948 574 948 c 0,29,30
 620 948 620 948 659.5 962 c 128,-1,31
 699 976 699 976 737 997 c 128,-1,32
 775 1018 775 1018 814.5 1042 c 128,-1,33
 854 1066 854 1066 899.5 1087 c 128,-1,34
 945 1108 945 1108 1000 1122 c 128,-1,35
 1055 1136 1055 1136 1124 1136 c 0,36,37
 1242 1136 1242 1136 1312.5 1101.5 c 128,-1,38
 1383 1067 1383 1067 1421 1001.5 c 128,-1,39
 1459 936 1459 936 1471 841.5 c 128,-1,40
 1483 747 1483 747 1483 628 c 1,41,-1
 1173 628 l 1,42,-1
 1173 620 l 1,0,1
EndSplineSet
EndChar

StartChar: exclamdown
Encoding: 161 161 96
Width: 764
Flags: W
LayerCount: 2
Fore
SplineSet
237 630 m 2,0,1
 262 711 262 711 284.5 792 c 128,-1,2
 307 873 307 873 324 948 c 1,3,4
 332 971 332 971 349.5 983 c 128,-1,5
 367 995 367 995 387 995 c 0,6,7
 408 995 408 995 426 981.5 c 128,-1,8
 444 968 444 968 450 945 c 0,9,10
 466 881 466 881 487 809 c 128,-1,11
 508 737 508 737 531 662.5 c 128,-1,12
 554 588 554 588 576 515 c 128,-1,13
 598 442 598 442 615.5 376 c 128,-1,14
 633 310 633 310 644 255 c 128,-1,15
 655 200 655 200 655 162 c 0,16,17
 655 113 655 113 632 76.5 c 128,-1,18
 609 40 609 40 571 15.5 c 128,-1,19
 533 -9 533 -9 484.5 -21.5 c 128,-1,20
 436 -34 436 -34 385 -34 c 0,21,22
 336 -34 336 -34 289 -22.5 c 128,-1,23
 242 -11 242 -11 205.5 13 c 128,-1,24
 169 37 169 37 146.5 73.5 c 128,-1,25
 124 110 124 110 124 160 c 0,26,27
 124 191 124 191 132.5 236.5 c 128,-1,28
 141 282 141 282 154.5 337.5 c 128,-1,29
 168 393 168 393 186 455.5 c 128,-1,30
 204 518 204 518 222 583 c 1,31,-1
 237 630 l 2,0,1
160 1340 m 1,32,33
 160 1394 160 1394 178 1434 c 128,-1,34
 196 1474 196 1474 225 1500 c 128,-1,35
 254 1526 254 1526 292 1539 c 128,-1,36
 330 1552 330 1552 369 1552 c 0,37,38
 409 1552 409 1552 447.5 1539 c 128,-1,39
 486 1526 486 1526 516.5 1500 c 128,-1,40
 547 1474 547 1474 565.5 1436 c 128,-1,41
 584 1398 584 1398 584 1348 c 0,42,43
 584 1301 584 1301 565.5 1265.5 c 128,-1,44
 547 1230 547 1230 517 1206.5 c 128,-1,45
 487 1183 487 1183 449 1171.5 c 128,-1,46
 411 1160 411 1160 371 1160 c 256,47,48
 331 1160 331 1160 293 1171 c 128,-1,49
 255 1182 255 1182 225 1204 c 128,-1,50
 195 1226 195 1226 177 1258.5 c 128,-1,51
 159 1291 159 1291 159 1334 c 1,52,-1
 160 1340 l 1,32,33
324 956 m 1,53,-1
 324 952 l 1,54,55
 323 950 323 950 323 950 c 1,56,-1
 324 956 l 1,53,-1
EndSplineSet
EndChar

StartChar: cent
Encoding: 162 162 97
Width: 1586
Flags: W
LayerCount: 2
Fore
SplineSet
1484 492 m 2,0,1
 1484 413 1484 413 1458 356.5 c 128,-1,2
 1432 300 1432 300 1386.5 261.5 c 128,-1,3
 1341 223 1341 223 1279.5 200 c 128,-1,4
 1218 177 1218 177 1147.5 164.5 c 128,-1,5
 1077 152 1077 152 1000.5 148 c 128,-1,6
 924 144 924 144 849 144 c 1,7,-1
 849 -72 l 1,8,-1
 766 -72 l 1,9,-1
 766 144 l 1,10,11
 688 145 688 145 610 149 c 128,-1,12
 532 153 532 153 460.5 166 c 128,-1,13
 389 179 389 179 327 202.5 c 128,-1,14
 265 226 265 226 219.5 265 c 128,-1,15
 174 304 174 304 148 361 c 128,-1,16
 122 418 122 418 122 497 c 2,17,-1
 122 927 l 2,18,19
 122 1006 122 1006 149.5 1062.5 c 128,-1,20
 177 1119 177 1119 224.5 1157.5 c 128,-1,21
 272 1196 272 1196 335 1219 c 128,-1,22
 398 1242 398 1242 469.5 1254 c 128,-1,23
 541 1266 541 1266 617 1270 c 128,-1,24
 693 1274 693 1274 766 1275 c 1,25,-1
 766 1505 l 1,26,-1
 849 1505 l 1,27,-1
 849 1275 l 1,28,29
 912 1274 912 1274 983.5 1270 c 128,-1,30
 1055 1266 1055 1266 1125.5 1254.5 c 128,-1,31
 1196 1243 1196 1243 1261 1221 c 128,-1,32
 1326 1199 1326 1199 1375.5 1163.5 c 128,-1,33
 1425 1128 1425 1128 1454.5 1076 c 128,-1,34
 1484 1024 1484 1024 1484 951 c 2,35,-1
 1484 861 l 1,36,-1
 952 861 l 1,37,-1
 952 1093 l 1,38,-1
 849 1093 l 1,39,-1
 849 325 l 1,40,-1
 952 325 l 1,41,-1
 952 580 l 1,42,-1
 1484 580 l 1,43,-1
 1484 492 l 2,0,1
766 325 m 1,44,-1
 766 1093 l 1,45,-1
 655 1093 l 1,46,-1
 655 325 l 1,47,-1
 766 325 l 1,44,-1
EndSplineSet
EndChar

StartChar: sterling
Encoding: 163 163 98
Width: 1772
Flags: W
LayerCount: 2
Fore
SplineSet
129 222 m 1,0,1
 157 225 157 225 186 232 c 128,-1,2
 215 239 215 239 239 253 c 128,-1,3
 263 267 263 267 278 290 c 128,-1,4
 293 313 293 313 293 348 c 2,5,-1
 293 704 l 1,6,-1
 129 704 l 1,7,-1
 129 882 l 1,8,-1
 293 882 l 1,9,-1
 293 1023 l 2,10,11
 293 1091 293 1091 297 1153 c 128,-1,12
 301 1215 301 1215 313 1268.5 c 128,-1,13
 325 1322 325 1322 348 1366.5 c 128,-1,14
 371 1411 371 1411 409 1445 c 0,15,16
 450 1482 450 1482 510.5 1504 c 128,-1,17
 571 1526 571 1526 645 1538 c 128,-1,18
 719 1550 719 1550 804 1553.5 c 128,-1,19
 889 1557 889 1557 979 1557 c 0,20,21
 1108 1557 1108 1557 1221 1544 c 128,-1,22
 1334 1531 1334 1531 1419 1499 c 128,-1,23
 1504 1467 1504 1467 1555.5 1414 c 128,-1,24
 1607 1361 1607 1361 1614 1281 c 0,25,26
 1616 1259 1616 1259 1616.5 1239.5 c 128,-1,27
 1617 1220 1617 1220 1617 1200 c 2,28,-1
 1617 1046 l 1,29,-1
 1012 1046 l 1,30,-1
 1012 1333 l 1,31,-1
 902 1333 l 1,32,-1
 902 881 l 1,33,-1
 1346 881 l 1,34,-1
 1346 703 l 1,35,-1
 902 703 l 1,36,-1
 902 224 l 1,37,-1
 1035 224 l 1,38,-1
 1035 510 l 1,39,-1
 1638 510 l 1,40,-1
 1638 356 l 2,41,42
 1638 263 1638 263 1614 196 c 128,-1,43
 1590 129 1590 129 1537 85.5 c 128,-1,44
 1484 42 1484 42 1398.5 21 c 128,-1,45
 1313 0 1313 0 1190 0 c 0,46,47
 1091 0 1091 0 1017.5 19.5 c 128,-1,48
 944 39 944 39 902 82 c 2,49,-1
 863 122 l 1,50,51
 825 87 825 87 774.5 57.5 c 128,-1,52
 724 28 724 28 652 15 c 1,53,54
 587 6 587 6 516.5 3 c 128,-1,55
 446 0 446 0 363 0 c 2,56,-1
 127 0 l 1,57,-1
 127 222 l 1,58,-1
 129 222 l 1,0,1
EndSplineSet
EndChar

StartChar: currency
Encoding: 164 164 99
Width: 1597
Flags: W
LayerCount: 2
Fore
SplineSet
804 293 m 0,0,1
 696 294 696 294 608.5 304.5 c 128,-1,2
 521 315 521 315 446 337 c 1,3,-1
 446 335 l 1,4,-1
 292 178 l 1,5,-1
 222 247 l 1,6,-1
 332 361 l 1,7,-1
 332 389 l 1,8,9
 282 419 282 419 247 456 c 128,-1,10
 212 493 212 493 190.5 538.5 c 128,-1,11
 169 584 169 584 159 640.5 c 128,-1,12
 149 697 149 697 149 766 c 0,13,14
 149 836 149 836 156 895.5 c 128,-1,15
 163 955 163 955 181 1004.5 c 128,-1,16
 199 1054 199 1054 229 1094 c 128,-1,17
 259 1134 259 1134 305 1166 c 1,18,-1
 305 1196 l 1,19,-1
 223 1281 l 1,20,-1
 293 1351 l 1,21,-1
 417 1221 l 1,22,-1
 417 1219 l 1,23,24
 495 1249 495 1249 589 1262 c 128,-1,25
 683 1275 683 1275 803 1275 c 0,26,27
 920 1275 920 1275 1013 1262.5 c 128,-1,28
 1106 1250 1106 1250 1187 1223 c 1,29,-1
 1187 1226 l 1,30,-1
 1306 1350 l 1,31,-1
 1378 1280 l 1,32,-1
 1296 1198 l 1,33,-1
 1296 1168 l 1,34,35
 1343 1136 1343 1136 1374 1097 c 128,-1,36
 1405 1058 1405 1058 1423.5 1009 c 128,-1,37
 1442 960 1442 960 1449.5 900 c 128,-1,38
 1457 840 1457 840 1457 766 c 0,39,40
 1457 629 1457 629 1412 537.5 c 128,-1,41
 1367 446 1367 446 1269 386 c 1,42,-1
 1269 358 l 1,43,-1
 1379 247 l 1,44,-1
 1307 178 l 1,45,-1
 1155 336 l 1,46,-1
 1155 338 l 1,47,48
 1080 315 1080 315 995 304 c 128,-1,49
 910 293 910 293 804 293 c 0,0,1
857 520 m 1,50,-1
 857 1046 l 1,51,-1
 740 1046 l 1,52,-1
 740 520 l 1,53,-1
 857 520 l 1,50,-1
EndSplineSet
EndChar

StartChar: yen
Encoding: 165 165 100
Width: 1234
Flags: W
LayerCount: 2
Fore
SplineSet
1070 672 m 1,0,-1
 1070 572 l 1,1,-1
 154 572 l 1,2,-1
 154 672 l 1,3,-1
 1070 672 l 1,0,-1
154 293 m 1,4,-1
 154 394 l 1,5,-1
 1070 394 l 1,6,-1
 1070 293 l 1,7,-1
 154 293 l 1,4,-1
277 1499 m 1,8,-1
 624 717 l 1,9,-1
 978 1499 l 1,10,-1
 1204 1499 l 1,11,-1
 729 510 l 1,12,-1
 729 0 l 1,13,-1
 508 0 l 1,14,-1
 508 510 l 1,15,-1
 41 1499 l 1,16,-1
 277 1499 l 1,8,-1
EndSplineSet
EndChar

StartChar: brokenbar
Encoding: 166 166 101
Width: 991
Flags: W
LayerCount: 2
Fore
SplineSet
792 -249 m 1,0,-1
 198 -249 l 1,1,-1
 198 603 l 1,2,-1
 792 603 l 1,3,-1
 792 -249 l 1,0,-1
792 779 m 1,4,-1
 198 779 l 1,5,-1
 198 1631 l 1,6,-1
 792 1631 l 1,7,-1
 792 779 l 1,4,-1
EndSplineSet
EndChar

StartChar: section
Encoding: 167 167 102
Width: 1570
Flags: W
LayerCount: 2
Fore
SplineSet
351 1020 m 1,0,1
 312 1037 312 1037 278.5 1061 c 128,-1,2
 245 1085 245 1085 220 1117 c 128,-1,3
 195 1149 195 1149 181 1189.5 c 128,-1,4
 167 1230 167 1230 167 1280 c 0,5,6
 167 1373 167 1373 190 1439.5 c 128,-1,7
 213 1506 213 1506 254.5 1552 c 128,-1,8
 296 1598 296 1598 354 1625.5 c 128,-1,9
 412 1653 412 1653 483 1668 c 128,-1,10
 554 1683 554 1683 635.5 1687.5 c 128,-1,11
 717 1692 717 1692 805 1692 c 0,12,13
 873 1692 873 1692 944 1689 c 128,-1,14
 1015 1686 1015 1686 1082.5 1675 c 128,-1,15
 1150 1664 1150 1664 1209 1643 c 128,-1,16
 1268 1622 1268 1622 1312.5 1585 c 128,-1,17
 1357 1548 1357 1548 1383 1493.5 c 128,-1,18
 1409 1439 1409 1439 1409 1361 c 2,19,-1
 1409 1279 l 2,20,21
 1409 1277 1409 1277 1408.5 1278 c 128,-1,22
 1408 1279 1408 1279 1408 1277 c 1,23,-1
 835 1277 l 1,24,-1
 835 1464 l 1,25,-1
 759 1464 l 1,26,-1
 759 1189 l 1,27,28
 774 1173 774 1173 798.5 1170 c 128,-1,29
 823 1167 823 1167 849 1165 c 1,30,-1
 856 1165 l 2,31,32
 858 1165 858 1165 860 1164.5 c 128,-1,33
 862 1164 862 1164 864 1164 c 2,34,-1
 882 1164 l 1,35,36
 931 1162 931 1162 990 1159 c 128,-1,37
 1049 1156 1049 1156 1108.5 1147 c 128,-1,38
 1168 1138 1168 1138 1224.5 1122 c 128,-1,39
 1281 1106 1281 1106 1324.5 1078.5 c 128,-1,40
 1368 1051 1368 1051 1394 1009 c 128,-1,41
 1420 967 1420 967 1420 908 c 0,42,43
 1420 867 1420 867 1407.5 832.5 c 128,-1,44
 1395 798 1395 798 1373.5 770.5 c 128,-1,45
 1352 743 1352 743 1323.5 721.5 c 128,-1,46
 1295 700 1295 700 1263 685 c 0,47,48
 1252 680 1252 680 1234 674.5 c 128,-1,49
 1216 669 1216 669 1202 669 c 1,50,-1
 1202 631 l 1,51,-1
 1258 610 l 1,52,53
 1286 592 1286 592 1312.5 568 c 128,-1,54
 1339 544 1339 544 1359.5 514.5 c 128,-1,55
 1380 485 1380 485 1392 449.5 c 128,-1,56
 1404 414 1404 414 1404 373 c 0,57,58
 1404 280 1404 280 1381 213 c 128,-1,59
 1358 146 1358 146 1316.5 100.5 c 128,-1,60
 1275 55 1275 55 1217 27.5 c 128,-1,61
 1159 0 1159 0 1088 -15 c 128,-1,62
 1017 -30 1017 -30 935.5 -34.5 c 128,-1,63
 854 -39 854 -39 766 -39 c 0,64,65
 698 -39 698 -39 626.5 -36 c 128,-1,66
 555 -33 555 -33 488.5 -22 c 128,-1,67
 422 -11 422 -11 363 11 c 128,-1,68
 304 33 304 33 259.5 70 c 128,-1,69
 215 107 215 107 189.5 162 c 128,-1,70
 164 217 164 217 164 295 c 2,71,-1
 164 376 l 1,72,-1
 165 378 l 1,73,-1
 739 378 l 1,74,-1
 739 192 l 1,75,-1
 813 192 l 1,76,-1
 813 477 l 1,77,-1
 548 477 l 2,78,79
 461 477 461 477 388 490 c 128,-1,80
 315 503 315 503 262.5 534 c 128,-1,81
 210 565 210 565 181 616.5 c 128,-1,82
 152 668 152 668 152 745 c 0,83,84
 152 790 152 790 166 827.5 c 128,-1,85
 180 865 180 865 204.5 894 c 128,-1,86
 229 923 229 923 262 943.5 c 128,-1,87
 295 964 295 964 333 977 c 1,88,-1
 351 986 l 1,89,-1
 351 1020 l 1,0,1
750 950 m 1,90,-1
 750 694 l 1,91,-1
 820 694 l 1,92,-1
 820 950 l 1,93,-1
 750 950 l 1,90,-1
EndSplineSet
EndChar

StartChar: dieresis
Encoding: 168 168 103
Width: 1481
Flags: W
LayerCount: 2
Fore
SplineSet
630 80 m 1,0,-1
 163 80 l 1,1,-1
 163 370 l 1,2,-1
 630 370 l 1,3,-1
 630 80 l 1,0,-1
1343 80 m 1,4,-1
 873 80 l 1,5,-1
 873 370 l 1,6,-1
 1343 370 l 1,7,-1
 1343 80 l 1,4,-1
EndSplineSet
EndChar

StartChar: copyright
Encoding: 169 169 104
Width: 2068
Flags: W
LayerCount: 2
Fore
SplineSet
1036 -99 m 0,0,1
 836 -99 836 -99 673 -70.5 c 128,-1,2
 510 -42 510 -42 394.5 27.5 c 128,-1,3
 279 97 279 97 216 214 c 128,-1,4
 153 331 153 331 153 507 c 2,5,-1
 153 1072 l 2,6,7
 153 1195 153 1195 186.5 1287.5 c 128,-1,8
 220 1380 220 1380 279.5 1446.5 c 128,-1,9
 339 1513 339 1513 421.5 1556.5 c 128,-1,10
 504 1600 504 1600 602 1626 c 128,-1,11
 700 1652 700 1652 810.5 1662 c 128,-1,12
 921 1672 921 1672 1036 1672 c 0,13,14
 1235 1672 1235 1672 1397.5 1644 c 128,-1,15
 1560 1616 1560 1616 1675.5 1547.5 c 128,-1,16
 1791 1479 1791 1479 1854.5 1363 c 128,-1,17
 1918 1247 1918 1247 1918 1072 c 2,18,-1
 1918 507 l 2,19,20
 1918 383 1918 383 1885 289.5 c 128,-1,21
 1852 196 1852 196 1792.5 129 c 128,-1,22
 1733 62 1733 62 1650.5 18 c 128,-1,23
 1568 -26 1568 -26 1470 -52 c 128,-1,24
 1372 -78 1372 -78 1262 -88.5 c 128,-1,25
 1152 -99 1152 -99 1036 -99 c 0,0,1
402 503 m 2,26,27
 402 363 402 363 441.5 271.5 c 128,-1,28
 481 180 481 180 560 126 c 128,-1,29
 639 72 639 72 758 50 c 128,-1,30
 877 28 877 28 1036 28 c 0,31,32
 1179 28 1179 28 1296 47.5 c 128,-1,33
 1413 67 1413 67 1496 115 c 128,-1,34
 1579 163 1579 163 1624 245 c 128,-1,35
 1669 327 1669 327 1669 453 c 2,36,-1
 1669 1120 l 2,37,38
 1669 1249 1669 1249 1620.5 1330.5 c 128,-1,39
 1572 1412 1572 1412 1486.5 1458.5 c 128,-1,40
 1401 1505 1401 1505 1285.5 1522 c 128,-1,41
 1170 1539 1170 1539 1036 1539 c 0,42,43
 875 1539 875 1539 756 1517 c 128,-1,44
 637 1495 637 1495 558.5 1441 c 128,-1,45
 480 1387 480 1387 441 1296.5 c 128,-1,46
 402 1206 402 1206 402 1070 c 2,47,-1
 402 503 l 2,26,27
1142 384 m 1,48,-1
 1142 695 l 1,49,-1
 1430 695 l 1,50,-1
 1430 509 l 2,51,52
 1430 432 1430 432 1401.5 384 c 128,-1,53
 1373 336 1373 336 1319.5 309.5 c 128,-1,54
 1266 283 1266 283 1190 274 c 128,-1,55
 1114 265 1114 265 1018 265 c 0,56,57
 935 265 935 265 866 274.5 c 128,-1,58
 797 284 797 284 747.5 311 c 128,-1,59
 698 338 698 338 670.5 387 c 128,-1,60
 643 436 643 436 643 515 c 2,61,-1
 643 1063 l 2,62,63
 643 1140 643 1140 668.5 1188.5 c 128,-1,64
 694 1237 694 1237 742 1264 c 128,-1,65
 790 1291 790 1291 859.5 1301 c 128,-1,66
 929 1311 929 1311 1018 1311 c 0,67,68
 1095 1311 1095 1311 1169 1305 c 128,-1,69
 1243 1299 1243 1299 1301 1275 c 128,-1,70
 1359 1251 1359 1251 1394.5 1202 c 128,-1,71
 1430 1153 1430 1153 1430 1067 c 2,72,-1
 1430 893 l 1,73,-1
 1142 893 l 1,74,-1
 1142 1195 l 1,75,-1
 934 1195 l 1,76,-1
 934 384 l 1,77,-1
 1142 384 l 1,48,-1
EndSplineSet
EndChar

StartChar: ordfeminine
Encoding: 170 170 105
Width: 1661
Flags: W
LayerCount: 2
Fore
SplineSet
1487 515 m 1,0,1
 1487 440 1487 440 1493.5 382.5 c 128,-1,2
 1500 325 1500 325 1510 283 c 1,3,-1
 969 283 l 1,4,-1
 917 409 l 1,5,6
 873 339 873 339 784 298 c 128,-1,7
 695 257 695 257 563 257 c 0,8,9
 341 257 341 257 233 351.5 c 128,-1,10
 125 446 125 446 125 643 c 0,11,12
 125 750 125 750 156.5 826.5 c 128,-1,13
 188 903 188 903 250 952.5 c 128,-1,14
 312 1002 312 1002 404 1025.5 c 128,-1,15
 496 1049 496 1049 617 1049 c 0,16,17
 701 1049 701 1049 768.5 1038 c 128,-1,18
 836 1027 836 1027 893 1010 c 1,19,-1
 893 1365 l 1,20,-1
 750 1365 l 1,21,-1
 750 1177 l 1,22,-1
 199 1157 l 1,23,24
 196 1177 196 1177 193.5 1198 c 128,-1,25
 191 1219 191 1219 191 1245 c 0,26,27
 191 1310 191 1310 219 1357.5 c 128,-1,28
 247 1405 247 1405 295 1438 c 128,-1,29
 343 1471 343 1471 406 1491 c 128,-1,30
 469 1511 469 1511 539 1522.5 c 128,-1,31
 609 1534 609 1534 681 1538 c 128,-1,32
 753 1542 753 1542 819 1542 c 0,33,34
 952 1542 952 1542 1070 1529 c 128,-1,35
 1188 1516 1188 1516 1278 1484.5 c 128,-1,36
 1368 1453 1368 1453 1422.5 1401.5 c 128,-1,37
 1477 1350 1477 1350 1483 1272 c 0,38,39
 1486 1230 1486 1230 1486 1195 c 2,40,-1
 1486 508 l 1,41,-1
 1487 515 l 1,0,1
893 440 m 1,42,-1
 893 920 l 1,43,-1
 720 920 l 1,44,-1
 720 440 l 1,45,-1
 893 440 l 1,42,-1
EndSplineSet
EndChar

StartChar: guillemotleft
Encoding: 171 171 106
Width: 1751
Flags: W
LayerCount: 2
Fore
SplineSet
164 576 m 2,0,1
 117 608 117 608 94 651.5 c 128,-1,2
 71 695 71 695 71 738 c 0,3,4
 71 782 71 782 95 827.5 c 128,-1,5
 119 873 119 873 164 903 c 1,6,-1
 164 904 l 1,7,8
 301 998 301 998 438 1090 c 128,-1,9
 575 1182 575 1182 712 1276 c 1,10,11
 746 1295 746 1295 780 1295 c 0,12,13
 816 1295 816 1295 840 1276.5 c 128,-1,14
 864 1258 864 1258 864 1230 c 0,15,16
 864 1219 864 1219 858.5 1206 c 128,-1,17
 853 1193 853 1193 839 1175 c 2,18,-1
 491 753 l 1,19,-1
 491 728 l 1,20,-1
 839 305 l 2,21,22
 851 290 851 290 856.5 275.5 c 128,-1,23
 862 261 862 261 862 251 c 0,24,25
 862 225 862 225 838 205 c 128,-1,26
 814 185 814 185 778 185 c 0,27,28
 761 185 761 185 743.5 190.5 c 128,-1,29
 726 196 726 196 712 205 c 2,30,-1
 164 576 l 2,0,1
930 576 m 2,31,32
 882 608 882 608 859.5 651 c 128,-1,33
 837 694 837 694 837 738 c 0,34,35
 837 783 837 783 861 828 c 128,-1,36
 885 873 885 873 930 903 c 2,37,-1
 1477 1276 l 1,38,39
 1494 1286 1494 1286 1511.5 1290.5 c 128,-1,40
 1529 1295 1529 1295 1546 1295 c 0,41,42
 1581 1295 1581 1295 1605 1276.5 c 128,-1,43
 1629 1258 1629 1258 1629 1230 c 0,44,45
 1629 1219 1629 1219 1624 1206 c 128,-1,46
 1619 1193 1619 1193 1605 1175 c 2,47,-1
 1257 753 l 1,48,-1
 1257 728 l 1,49,-1
 1605 305 l 2,50,51
 1617 290 1617 290 1622 276 c 128,-1,52
 1627 262 1627 262 1627 251 c 0,53,54
 1627 225 1627 225 1603 205 c 128,-1,55
 1579 185 1579 185 1544 185 c 0,56,57
 1527 185 1527 185 1509 190.5 c 128,-1,58
 1491 196 1491 196 1477 205 c 2,59,-1
 930 576 l 2,31,32
EndSplineSet
EndChar

StartChar: logicalnot
Encoding: 172 172 107
Width: 1412
Flags: W
LayerCount: 2
Fore
SplineSet
998 294 m 1,0,-1
 998 773 l 1,1,-1
 95 773 l 1,2,-1
 95 1042 l 1,3,-1
 1235 1042 l 1,4,-1
 1235 294 l 1,5,-1
 998 294 l 1,0,-1
EndSplineSet
EndChar

StartChar: uni00AD
Encoding: 173 173 108
Width: 1185
Flags: W
LayerCount: 2
Fore
SplineSet
1026 549 m 1,0,-1
 159 549 l 1,1,-1
 159 838 l 1,2,-1
 1026 838 l 1,3,-1
 1026 549 l 1,0,-1
EndSplineSet
EndChar

StartChar: registered
Encoding: 174 174 109
Width: 2068
Flags: W
LayerCount: 2
Fore
SplineSet
1036 -99 m 0,0,1
 836 -99 836 -99 673 -70.5 c 128,-1,2
 510 -42 510 -42 394.5 27.5 c 128,-1,3
 279 97 279 97 216 214 c 128,-1,4
 153 331 153 331 153 507 c 2,5,-1
 153 1072 l 2,6,7
 153 1195 153 1195 186.5 1287.5 c 128,-1,8
 220 1380 220 1380 279.5 1446.5 c 128,-1,9
 339 1513 339 1513 421.5 1556.5 c 128,-1,10
 504 1600 504 1600 602 1626 c 128,-1,11
 700 1652 700 1652 810.5 1662 c 128,-1,12
 921 1672 921 1672 1036 1672 c 0,13,14
 1235 1672 1235 1672 1397.5 1644 c 128,-1,15
 1560 1616 1560 1616 1675.5 1547.5 c 128,-1,16
 1791 1479 1791 1479 1854.5 1363 c 128,-1,17
 1918 1247 1918 1247 1918 1072 c 2,18,-1
 1918 507 l 2,19,20
 1918 383 1918 383 1885 289.5 c 128,-1,21
 1852 196 1852 196 1792.5 129 c 128,-1,22
 1733 62 1733 62 1650.5 18 c 128,-1,23
 1568 -26 1568 -26 1470 -52 c 128,-1,24
 1372 -78 1372 -78 1262 -88.5 c 128,-1,25
 1152 -99 1152 -99 1036 -99 c 0,0,1
402 503 m 2,26,27
 402 363 402 363 441.5 271.5 c 128,-1,28
 481 180 481 180 560 126 c 128,-1,29
 639 72 639 72 758 50 c 128,-1,30
 877 28 877 28 1036 28 c 0,31,32
 1179 28 1179 28 1296 47.5 c 128,-1,33
 1413 67 1413 67 1496 115 c 128,-1,34
 1579 163 1579 163 1624 245 c 128,-1,35
 1669 327 1669 327 1669 453 c 2,36,-1
 1669 1120 l 2,37,38
 1669 1249 1669 1249 1620.5 1330.5 c 128,-1,39
 1572 1412 1572 1412 1486.5 1458.5 c 128,-1,40
 1401 1505 1401 1505 1285.5 1522 c 128,-1,41
 1170 1539 1170 1539 1036 1539 c 0,42,43
 875 1539 875 1539 756 1517 c 128,-1,44
 637 1495 637 1495 558.5 1441 c 128,-1,45
 480 1387 480 1387 441 1296.5 c 128,-1,46
 402 1206 402 1206 402 1070 c 2,47,-1
 402 503 l 2,26,27
1342 772 m 1,48,49
 1408 767 1408 767 1443 723.5 c 128,-1,50
 1478 680 1478 680 1478 610 c 2,51,-1
 1478 273 l 1,52,-1
 1083 273 l 1,53,-1
 1083 739 l 1,54,-1
 997 739 l 1,55,-1
 997 273 l 1,56,-1
 592 273 l 1,57,-1
 592 1364 l 1,58,-1
 1124 1364 l 2,59,60
 1164 1364 1164 1364 1206 1362 c 128,-1,61
 1248 1360 1248 1360 1287.5 1352.5 c 128,-1,62
 1327 1345 1327 1345 1362.5 1329.5 c 128,-1,63
 1398 1314 1398 1314 1424.5 1287 c 128,-1,64
 1451 1260 1451 1260 1466.5 1219 c 128,-1,65
 1482 1178 1482 1178 1482 1120 c 2,66,-1
 1482 1028 l 2,67,68
 1482 943 1482 943 1444 896 c 128,-1,69
 1406 849 1406 849 1341 844 c 2,70,-1
 1227 835 l 1,71,-1
 1227 778 l 1,72,-1
 1342 772 l 1,48,49
1083 856 m 1,73,-1
 1083 1245 l 1,74,-1
 997 1245 l 1,75,-1
 997 856 l 1,76,-1
 1083 856 l 1,73,-1
EndSplineSet
EndChar

StartChar: macron
Encoding: 175 175 110
Width: 1165
Flags: W
LayerCount: 2
Fore
SplineSet
1018 651 m 1,0,-1
 151 651 l 1,1,-1
 151 838 l 1,2,-1
 1018 838 l 1,3,-1
 1018 651 l 1,0,-1
EndSplineSet
EndChar

StartChar: degree
Encoding: 176 176 111
Width: 911
Flags: W
LayerCount: 2
Fore
SplineSet
102 1321 m 256,0,1
 102 1373 102 1373 125.5 1423 c 128,-1,2
 149 1473 149 1473 193.5 1511.5 c 128,-1,3
 238 1550 238 1550 301.5 1573.5 c 128,-1,4
 365 1597 365 1597 446 1597 c 0,5,6
 528 1597 528 1597 592 1573.5 c 128,-1,7
 656 1550 656 1550 700 1511.5 c 128,-1,8
 744 1473 744 1473 767.5 1423 c 128,-1,9
 791 1373 791 1373 791 1321 c 256,10,11
 791 1269 791 1269 767.5 1219.5 c 128,-1,12
 744 1170 744 1170 700 1131.5 c 128,-1,13
 656 1093 656 1093 592 1069.5 c 128,-1,14
 528 1046 528 1046 446 1046 c 0,15,16
 365 1046 365 1046 301.5 1069.5 c 128,-1,17
 238 1093 238 1093 193.5 1131.5 c 128,-1,18
 149 1170 149 1170 125.5 1219.5 c 128,-1,19
 102 1269 102 1269 102 1321 c 256,0,1
594 1321 m 0,20,21
 594 1358 594 1358 583 1388 c 128,-1,22
 572 1418 572 1418 552.5 1440 c 128,-1,23
 533 1462 533 1462 506 1474 c 128,-1,24
 479 1486 479 1486 446 1486 c 0,25,26
 381 1486 381 1486 341 1440.5 c 128,-1,27
 301 1395 301 1395 301 1321 c 0,28,29
 301 1284 301 1284 311.5 1253.5 c 128,-1,30
 322 1223 322 1223 341 1201 c 128,-1,31
 360 1179 360 1179 387 1167 c 128,-1,32
 414 1155 414 1155 446 1155 c 0,33,34
 512 1155 512 1155 553 1200.5 c 128,-1,35
 594 1246 594 1246 594 1321 c 0,20,21
EndSplineSet
EndChar

StartChar: plusminus
Encoding: 177 177 112
Width: 1338
Flags: W
LayerCount: 2
Fore
SplineSet
876 1521 m 1,0,-1
 876 1148 l 1,1,-1
 1256 1148 l 1,2,-1
 1256 861 l 1,3,-1
 876 861 l 1,4,-1
 876 492 l 1,5,-1
 470 492 l 1,6,-1
 470 861 l 1,7,-1
 89 861 l 1,8,-1
 89 1148 l 1,9,-1
 470 1148 l 1,10,-1
 470 1521 l 1,11,-1
 876 1521 l 1,0,-1
1101 -1 m 1,12,-1
 233 -1 l 1,13,-1
 233 254 l 1,14,-1
 1101 254 l 1,15,-1
 1101 -1 l 1,12,-1
EndSplineSet
EndChar

StartChar: twosuperior
Encoding: 178 178 113
Width: 1186
Flags: W
LayerCount: 2
Fore
SplineSet
169 808 m 1,0,1
 168 813 168 813 168 815 c 128,-1,2
 168 817 168 817 168 819 c 2,3,-1
 168 838 l 2,4,5
 168 931 168 931 201 990.5 c 128,-1,6
 234 1050 234 1050 292.5 1084 c 128,-1,7
 351 1118 351 1118 431.5 1130.5 c 128,-1,8
 512 1143 512 1143 607 1143 c 0,9,10
 709 1143 709 1143 789.5 1129.5 c 128,-1,11
 870 1116 870 1116 925.5 1081.5 c 128,-1,12
 981 1047 981 1047 1010.5 987.5 c 128,-1,13
 1040 928 1040 928 1040 837 c 0,14,15
 1040 758 1040 758 1010.5 699.5 c 128,-1,16
 981 641 981 641 933 597 c 128,-1,17
 885 553 885 553 824.5 520.5 c 128,-1,18
 764 488 764 488 703 462 c 0,19,20
 676 450 676 450 648.5 436 c 128,-1,21
 621 422 621 422 598.5 403.5 c 128,-1,22
 576 385 576 385 561.5 360.5 c 128,-1,23
 547 336 547 336 547 305 c 2,24,-1
 547 287 l 1,25,-1
 997 287 l 1,26,-1
 997 132 l 1,27,-1
 169 132 l 1,28,-1
 169 288 l 2,29,30
 169 376 169 376 195 442.5 c 128,-1,31
 221 509 221 509 266.5 559.5 c 128,-1,32
 312 610 312 610 374.5 647 c 128,-1,33
 437 684 437 684 510 713 c 0,34,35
 534 722 534 722 559 733 c 128,-1,36
 584 744 584 744 604.5 758.5 c 128,-1,37
 625 773 625 773 638 792.5 c 128,-1,38
 651 812 651 812 651 838 c 2,39,-1
 651 1007 l 1,40,-1
 547 1007 l 1,41,-1
 547 818 l 1,42,-1
 169 818 l 1,43,-1
 169 808 l 1,0,1
EndSplineSet
EndChar

StartChar: threesuperior
Encoding: 179 179 114
Width: 1214
Flags: W
LayerCount: 2
Fore
SplineSet
1054 841 m 0,0,1
 1054 771 1054 771 1014.5 725 c 128,-1,2
 975 679 975 679 910 653 c 1,3,-1
 910 617 l 1,4,5
 983 590 983 590 1019.5 535 c 128,-1,6
 1056 480 1056 480 1056 410 c 0,7,8
 1056 324 1056 324 1029 265 c 128,-1,9
 1002 206 1002 206 947 168.5 c 128,-1,10
 892 131 892 131 807.5 114.5 c 128,-1,11
 723 98 723 98 608 98 c 0,12,13
 376 98 376 98 269.5 183 c 128,-1,14
 163 268 163 268 163 442 c 0,15,16
 163 457 163 457 166 481 c 1,17,-1
 547 481 l 1,18,-1
 547 237 l 1,19,-1
 664 237 l 1,20,-1
 664 582 l 1,21,-1
 486 582 l 1,22,-1
 486 688 l 1,23,-1
 664 688 l 1,24,-1
 664 1004 l 1,25,-1
 547 1004 l 1,26,-1
 547 787 l 1,27,-1
 165 787 l 1,28,29
 164 793 164 793 163.5 800 c 128,-1,30
 163 807 163 807 163 821 c 0,31,32
 163 911 163 911 191 972 c 128,-1,33
 219 1033 219 1033 275 1070 c 128,-1,34
 331 1107 331 1107 414 1123 c 128,-1,35
 497 1139 497 1139 607 1139 c 0,36,37
 712 1139 712 1139 795 1124.5 c 128,-1,38
 878 1110 878 1110 935.5 1075.5 c 128,-1,39
 993 1041 993 1041 1023.5 983.5 c 128,-1,40
 1054 926 1054 926 1054 841 c 0,0,1
EndSplineSet
EndChar

StartChar: acute
Encoding: 180 180 115
Width: 786
Flags: W
LayerCount: 2
Fore
SplineSet
135 1480 m 0,0,1
 189 1525 189 1525 253 1572 c 128,-1,2
 317 1619 317 1619 380 1661 c 128,-1,3
 443 1703 443 1703 499.5 1738 c 128,-1,4
 556 1773 556 1773 594 1794 c 1,5,6
 620 1807 620 1807 645.5 1814.5 c 128,-1,7
 671 1822 671 1822 695 1822 c 0,8,9
 740 1822 740 1822 766.5 1803.5 c 128,-1,10
 793 1785 793 1785 793 1757 c 0,11,12
 793 1736 793 1736 772 1708.5 c 128,-1,13
 751 1681 751 1681 705 1656 c 0,14,15
 672 1638 672 1638 615 1609 c 128,-1,16
 558 1580 558 1580 487 1547.5 c 128,-1,17
 416 1515 416 1515 337 1484.5 c 128,-1,18
 258 1454 258 1454 182 1433 c 0,19,20
 177 1432 177 1432 172 1431.5 c 128,-1,21
 167 1431 167 1431 162 1431 c 0,22,23
 139 1431 139 1431 125 1437 c 128,-1,24
 111 1443 111 1443 111 1451 c 256,25,26
 111 1459 111 1459 135 1480 c 0,0,1
EndSplineSet
EndChar

StartChar: paragraph
Encoding: 182 182 117
Width: 1477
Flags: W
LayerCount: 2
Fore
SplineSet
628 645 m 1,0,1
 498 645 498 645 395 667.5 c 128,-1,2
 292 690 292 690 220.5 740 c 128,-1,3
 149 790 149 790 111 869.5 c 128,-1,4
 73 949 73 949 73 1063 c 0,5,6
 73 1159 73 1159 96.5 1230.5 c 128,-1,7
 120 1302 120 1302 163 1352.5 c 128,-1,8
 206 1403 206 1403 266 1436 c 128,-1,9
 326 1469 326 1469 399 1487.5 c 128,-1,10
 472 1506 472 1506 556 1513.5 c 128,-1,11
 640 1521 640 1521 730 1521 c 2,12,-1
 1287 1521 l 1,13,-1
 1287 0 l 1,14,-1
 1015 0 l 1,15,-1
 1015 644 l 1,16,-1
 901 644 l 1,17,-1
 901 0 l 1,18,-1
 628 0 l 1,19,-1
 628 645 l 1,0,1
EndSplineSet
EndChar

StartChar: cedilla
Encoding: 184 184 118
Width: 752
Flags: W
LayerCount: 2
Fore
SplineSet
402 -39 m 1,0,-1
 402 -107 l 1,1,2
 457 -107 457 -107 501 -113 c 128,-1,3
 545 -119 545 -119 576 -134 c 128,-1,4
 607 -149 607 -149 624 -175.5 c 128,-1,5
 641 -202 641 -202 641 -243 c 2,6,-1
 641 -336 l 2,7,8
 641 -380 641 -380 620.5 -406.5 c 128,-1,9
 600 -433 600 -433 564.5 -447.5 c 128,-1,10
 529 -462 529 -462 481 -466.5 c 128,-1,11
 433 -471 433 -471 378 -471 c 0,12,13
 320 -471 320 -471 271.5 -466 c 128,-1,14
 223 -461 223 -461 188 -446 c 128,-1,15
 153 -431 153 -431 133.5 -404.5 c 128,-1,16
 114 -378 114 -378 114 -336 c 2,17,-1
 114 -299 l 1,18,-1
 351 -273 l 1,19,-1
 351 -402 l 1,20,-1
 417 -402 l 1,21,-1
 417 -176 l 1,22,-1
 218 -176 l 1,23,-1
 218 -39 l 1,24,-1
 402 -39 l 1,0,-1
EndSplineSet
EndChar

StartChar: onesuperior
Encoding: 185 185 119
Width: 855
Flags: W
LayerCount: 2
Fore
SplineSet
111 950 m 1,0,-1
 111 1051 l 1,1,2
 179 1051 179 1051 237.5 1065 c 128,-1,3
 296 1079 296 1079 341 1105 c 1,4,-1
 671 1105 l 1,5,-1
 671 128 l 1,6,-1
 261 128 l 1,7,-1
 261 950 l 1,8,-1
 111 950 l 1,0,-1
EndSplineSet
EndChar

StartChar: ordmasculine
Encoding: 186 186 120
Width: 1429
Flags: W
LayerCount: 2
Fore
SplineSet
719 97 m 1,0,1
 653 97 653 97 587 99.5 c 128,-1,2
 521 102 521 102 460 111 c 128,-1,3
 399 120 399 120 346.5 138.5 c 128,-1,4
 294 157 294 157 255 189 c 128,-1,5
 216 221 216 221 194 268.5 c 128,-1,6
 172 316 172 316 172 384 c 2,7,-1
 172 854 l 2,8,9
 172 920 172 920 195.5 967 c 128,-1,10
 219 1014 219 1014 259.5 1045.5 c 128,-1,11
 300 1077 300 1077 354 1095.5 c 128,-1,12
 408 1114 408 1114 468.5 1123.5 c 128,-1,13
 529 1133 529 1133 593.5 1135.5 c 128,-1,14
 658 1138 658 1138 720 1138 c 0,15,16
 785 1138 785 1138 850.5 1135 c 128,-1,17
 916 1132 916 1132 976.5 1122.5 c 128,-1,18
 1037 1113 1037 1113 1089 1094.5 c 128,-1,19
 1141 1076 1141 1076 1179.5 1044.5 c 128,-1,20
 1218 1013 1218 1013 1240 966.5 c 128,-1,21
 1262 920 1262 920 1262 854 c 2,22,-1
 1262 384 l 2,23,24
 1262 315 1262 315 1239.5 267 c 128,-1,25
 1217 219 1217 219 1178 187.5 c 128,-1,26
 1139 156 1139 156 1086.5 138 c 128,-1,27
 1034 120 1034 120 973.5 111 c 128,-1,28
 913 102 913 102 848 100 c 128,-1,29
 783 98 783 98 719 97 c 1,0,1
786 273 m 1,30,-1
 786 991 l 1,31,-1
 649 991 l 1,32,-1
 649 273 l 1,33,-1
 786 273 l 1,30,-1
EndSplineSet
EndChar

StartChar: guillemotright
Encoding: 187 187 121
Width: 1753
Flags: W
LayerCount: 2
Fore
SplineSet
1048 205 m 1,0,1
 1034 197 1034 197 1015.5 191 c 128,-1,2
 997 185 997 185 982 185 c 0,3,4
 965 185 965 185 949.5 190.5 c 128,-1,5
 934 196 934 196 922.5 205 c 128,-1,6
 911 214 911 214 904.5 226 c 128,-1,7
 898 238 898 238 898 251 c 0,8,9
 898 262 898 262 903 275.5 c 128,-1,10
 908 289 908 289 921 305 c 2,11,-1
 1269 728 l 1,12,-1
 1269 753 l 1,13,-1
 921 1175 l 2,14,15
 907 1193 907 1193 901.5 1206 c 128,-1,16
 896 1219 896 1219 896 1230 c 0,17,18
 896 1258 896 1258 920.5 1276.5 c 128,-1,19
 945 1295 945 1295 980 1295 c 0,20,21
 995 1295 995 1295 1014 1290.5 c 128,-1,22
 1033 1286 1033 1286 1048 1276 c 2,23,-1
 1596 903 l 2,24,25
 1641 873 1641 873 1665 828 c 128,-1,26
 1689 783 1689 783 1689 738 c 0,27,28
 1689 696 1689 696 1666 652 c 128,-1,29
 1643 608 1643 608 1596 576 c 2,30,-1
 1048 205 l 1,0,1
283 205 m 2,31,32
 269 196 269 196 251.5 190.5 c 128,-1,33
 234 185 234 185 216 185 c 0,34,35
 199 185 199 185 183.5 190.5 c 128,-1,36
 168 196 168 196 157 205 c 128,-1,37
 146 214 146 214 139.5 226 c 128,-1,38
 133 238 133 238 133 251 c 0,39,40
 133 262 133 262 138.5 275.5 c 128,-1,41
 144 289 144 289 157 305 c 2,42,-1
 505 728 l 1,43,-1
 505 753 l 1,44,-1
 157 1175 l 2,45,46
 142 1193 142 1193 136.5 1206 c 128,-1,47
 131 1219 131 1219 131 1230 c 0,48,49
 131 1258 131 1258 155 1276.5 c 128,-1,50
 179 1295 179 1295 214 1295 c 0,51,52
 230 1295 230 1295 249 1290.5 c 128,-1,53
 268 1286 268 1286 283 1276 c 2,54,-1
 830 903 l 2,55,56
 875 873 875 873 899 828 c 128,-1,57
 923 783 923 783 923 738 c 0,58,59
 923 695 923 695 900 651.5 c 128,-1,60
 877 608 877 608 830 576 c 2,61,-1
 283 205 l 2,31,32
EndSplineSet
EndChar

StartChar: onequarter
Encoding: 188 188 122
Width: 2698
Flags: W
LayerCount: 2
Fore
SplineSet
2235 128 m 1,0,-1
 2235 284 l 1,1,-1
 1699 284 l 1,2,-1
 1699 534 l 1,3,-1
 1872 1107 l 1,4,-1
 2268 1107 l 1,5,-1
 2099 545 l 1,6,-1
 2099 484 l 1,7,-1
 2235 484 l 1,8,-1
 2235 705 l 1,9,-1
 2608 705 l 1,10,-1
 2608 128 l 1,11,-1
 2235 128 l 1,0,-1
42 1243 m 1,12,-1
 42 1345 l 1,13,14
 111 1345 111 1345 169 1359 c 128,-1,15
 227 1373 227 1373 272 1398 c 1,16,-1
 602 1398 l 1,17,-1
 602 420 l 1,18,-1
 191 420 l 1,19,-1
 191 1243 l 1,20,-1
 42 1243 l 1,12,-1
1154 1521 m 1,21,-1
 1602 1521 l 1,22,-1
 1247 0 l 1,23,-1
 796 0 l 1,24,-1
 1154 1521 l 1,21,-1
EndSplineSet
EndChar

StartChar: onehalf
Encoding: 189 189 123
Width: 2738
Flags: W
LayerCount: 2
Fore
SplineSet
1762 810 m 1,0,1
 1760 815 1760 815 1760 816 c 128,-1,2
 1760 817 1760 817 1760 819 c 2,3,-1
 1760 838 l 2,4,5
 1760 931 1760 931 1793.5 990.5 c 128,-1,6
 1827 1050 1827 1050 1885.5 1084 c 128,-1,7
 1944 1118 1944 1118 2024.5 1130.5 c 128,-1,8
 2105 1143 2105 1143 2200 1143 c 0,9,10
 2302 1143 2302 1143 2382.5 1129.5 c 128,-1,11
 2463 1116 2463 1116 2518.5 1081.5 c 128,-1,12
 2574 1047 2574 1047 2603 987.5 c 128,-1,13
 2632 928 2632 928 2632 837 c 0,14,15
 2632 758 2632 758 2602.5 699.5 c 128,-1,16
 2573 641 2573 641 2525.5 597 c 128,-1,17
 2478 553 2478 553 2418 520.5 c 128,-1,18
 2358 488 2358 488 2297 462 c 0,19,20
 2270 450 2270 450 2242.5 436 c 128,-1,21
 2215 422 2215 422 2192.5 403.5 c 128,-1,22
 2170 385 2170 385 2155.5 360.5 c 128,-1,23
 2141 336 2141 336 2141 305 c 2,24,-1
 2141 287 l 1,25,-1
 2591 287 l 1,26,-1
 2591 132 l 1,27,-1
 1762 132 l 1,28,-1
 1762 288 l 2,29,30
 1762 376 1762 376 1788 442.5 c 128,-1,31
 1814 509 1814 509 1859.5 560 c 128,-1,32
 1905 611 1905 611 1967 648 c 128,-1,33
 2029 685 2029 685 2102 713 c 0,34,35
 2126 722 2126 722 2151.5 733 c 128,-1,36
 2177 744 2177 744 2197.5 758.5 c 128,-1,37
 2218 773 2218 773 2231 792.5 c 128,-1,38
 2244 812 2244 812 2244 838 c 2,39,-1
 2244 1007 l 1,40,-1
 2141 1007 l 1,41,-1
 2141 818 l 1,42,-1
 1762 818 l 1,43,-1
 1762 810 l 1,0,1
42 1243 m 1,44,-1
 42 1345 l 1,45,46
 110 1345 110 1345 168.5 1359 c 128,-1,47
 227 1373 227 1373 271 1398 c 1,48,-1
 602 1398 l 1,49,-1
 602 420 l 1,50,-1
 191 420 l 1,51,-1
 191 1243 l 1,52,-1
 42 1243 l 1,44,-1
1170 1521 m 1,53,-1
 1618 1521 l 1,54,-1
 1262 0 l 1,55,-1
 813 0 l 1,56,-1
 1170 1521 l 1,53,-1
EndSplineSet
EndChar

StartChar: threequarters
Encoding: 190 190 124
Width: 2996
Flags: W
LayerCount: 2
Fore
SplineSet
1493 1521 m 1,0,-1
 1941 1521 l 1,1,-1
 1585 0 l 1,2,-1
 1136 0 l 1,3,-1
 1493 1521 l 1,0,-1
999 1130 m 0,4,5
 999 1060 999 1060 959.5 1013 c 128,-1,6
 920 966 920 966 855 940 c 1,7,-1
 855 903 l 1,8,9
 928 877 928 877 964.5 822.5 c 128,-1,10
 1001 768 1001 768 1001 698 c 0,11,12
 1001 613 1001 613 974 553.5 c 128,-1,13
 947 494 947 494 892 456.5 c 128,-1,14
 837 419 837 419 752.5 402 c 128,-1,15
 668 385 668 385 553 385 c 0,16,17
 437 385 437 385 353 406 c 128,-1,18
 269 427 269 427 215 469.5 c 128,-1,19
 161 512 161 512 135 576.5 c 128,-1,20
 109 641 109 641 109 728 c 0,21,22
 109 738 109 738 109.5 748.5 c 128,-1,23
 110 759 110 759 111 770 c 1,24,-1
 492 770 l 1,25,-1
 492 525 l 1,26,-1
 611 525 l 1,27,-1
 611 869 l 1,28,-1
 432 869 l 1,29,-1
 432 975 l 1,30,-1
 611 975 l 1,31,-1
 611 1292 l 1,32,-1
 492 1292 l 1,33,-1
 492 1073 l 1,34,-1
 111 1072 l 1,35,36
 110 1079 110 1079 109.5 1086.5 c 128,-1,37
 109 1094 109 1094 109 1108 c 0,38,39
 109 1199 109 1199 137 1260 c 128,-1,40
 165 1321 165 1321 221 1358.5 c 128,-1,41
 277 1396 277 1396 359.5 1412 c 128,-1,42
 442 1428 442 1428 552 1428 c 0,43,44
 657 1428 657 1428 740 1413 c 128,-1,45
 823 1398 823 1398 880.5 1363.5 c 128,-1,46
 938 1329 938 1329 968.5 1272 c 128,-1,47
 999 1215 999 1215 999 1130 c 0,4,5
2532 128 m 1,48,-1
 2532 284 l 1,49,-1
 1995 284 l 1,50,-1
 1995 534 l 1,51,-1
 2167 1107 l 1,52,-1
 2565 1107 l 1,53,-1
 2397 545 l 1,54,-1
 2397 484 l 1,55,-1
 2532 484 l 1,56,-1
 2532 705 l 1,57,-1
 2906 705 l 1,58,-1
 2906 128 l 1,59,-1
 2532 128 l 1,48,-1
EndSplineSet
EndChar

StartChar: questiondown
Encoding: 191 191 125
Width: 959
Flags: W
LayerCount: 2
Fore
SplineSet
530 985 m 1,0,1
 534 1008 534 1008 554.5 1017 c 128,-1,2
 575 1026 575 1026 595 1026 c 0,3,4
 627 1026 627 1026 643 1012 c 128,-1,5
 659 998 659 998 659 974 c 0,6,7
 659 894 659 894 641.5 825 c 128,-1,8
 624 756 624 756 600 693 c 128,-1,9
 576 630 576 630 550 570 c 128,-1,10
 524 510 524 510 508 449 c 1,11,-1
 508 448 l 1,12,13
 507 442 507 442 506.5 434 c 128,-1,14
 506 426 506 426 506 418 c 0,15,16
 506 392 506 392 514 368.5 c 128,-1,17
 522 345 522 345 539.5 327.5 c 128,-1,18
 557 310 557 310 585 299.5 c 128,-1,19
 613 289 613 289 654 289 c 0,20,21
 690 289 690 289 740.5 300 c 128,-1,22
 791 311 791 311 857 337 c 1,23,-1
 889 35 l 1,24,25
 771 0 771 0 675.5 -16.5 c 128,-1,26
 580 -33 580 -33 507 -33 c 0,27,28
 376 -33 376 -33 289.5 -8 c 128,-1,29
 203 17 203 17 151.5 58 c 128,-1,30
 100 99 100 99 78.5 151 c 128,-1,31
 57 203 57 203 57 258 c 0,32,33
 57 305 57 305 76.5 350 c 128,-1,34
 96 395 96 395 127.5 437.5 c 128,-1,35
 159 480 159 480 198 519 c 128,-1,36
 237 558 237 558 276 594 c 0,37,38
 314 629 314 629 356 673.5 c 128,-1,39
 398 718 398 718 434.5 768.5 c 128,-1,40
 471 819 471 819 497.5 874 c 128,-1,41
 524 929 524 929 530 985 c 1,0,1
805 1376 m 0,42,43
 805 1329 805 1329 787 1294 c 128,-1,44
 769 1259 769 1259 739 1236 c 128,-1,45
 709 1213 709 1213 671 1201.5 c 128,-1,46
 633 1190 633 1190 593 1190 c 0,47,48
 554 1190 554 1190 516 1201.5 c 128,-1,49
 478 1213 478 1213 448 1236 c 128,-1,50
 418 1259 418 1259 400 1294 c 128,-1,51
 382 1329 382 1329 382 1376 c 0,52,53
 382 1422 382 1422 400 1457 c 128,-1,54
 418 1492 418 1492 448 1515 c 128,-1,55
 478 1538 478 1538 516 1549.5 c 128,-1,56
 554 1561 554 1561 593 1561 c 0,57,58
 633 1561 633 1561 671 1549.5 c 128,-1,59
 709 1538 709 1538 739 1515 c 128,-1,60
 769 1492 769 1492 787 1457 c 128,-1,61
 805 1422 805 1422 805 1376 c 0,42,43
EndSplineSet
EndChar

StartChar: Agrave
Encoding: 192 192 126
Width: 1742
Flags: W
LayerCount: 2
Fore
SplineSet
1252 1767 m 1,0,1
 1271 1752 1271 1752 1279.5 1740.5 c 128,-1,2
 1288 1729 1288 1729 1288 1723 c 0,3,4
 1288 1709 1288 1709 1267 1702 c 128,-1,5
 1246 1695 1246 1695 1217 1695 c 0,6,7
 1205 1695 1205 1695 1188 1700 c 0,8,9
 1134 1715 1134 1715 1074.5 1731.5 c 128,-1,10
 1015 1748 1015 1748 955.5 1764.5 c 128,-1,11
 896 1781 896 1781 838 1797 c 128,-1,12
 780 1813 780 1813 729 1828.5 c 128,-1,13
 678 1844 678 1844 636.5 1858.5 c 128,-1,14
 595 1873 595 1873 569 1886 c 1,15,16
 508 1921 508 1921 478.5 1964.5 c 128,-1,17
 449 2008 449 2008 449 2047 c 0,18,19
 449 2078 449 2078 462 2106 c 128,-1,20
 475 2134 475 2134 499 2155.5 c 128,-1,21
 523 2177 523 2177 556.5 2189.5 c 128,-1,22
 590 2202 590 2202 630 2202 c 0,23,24
 661 2202 661 2202 694 2193.5 c 128,-1,25
 727 2185 727 2185 759 2170 c 1,26,27
 789 2151 789 2151 834 2117.5 c 128,-1,28
 879 2084 879 2084 930.5 2042.5 c 128,-1,29
 982 2001 982 2001 1035 1956.5 c 128,-1,30
 1088 1912 1088 1912 1135 1871 c 2,31,-1
 1252 1768 l 1,32,-1
 1252 1767 l 1,0,1
703 0 m 1,33,-1
 94 0 l 1,34,-1
 390 1521 l 1,35,-1
 1340 1521 l 1,36,-1
 1642 0 l 1,37,-1
 1033 0 l 1,38,-1
 979 341 l 1,39,-1
 979 357 l 1,40,-1
 756 357 l 1,41,-1
 756 341 l 1,42,-1
 703 0 l 1,33,-1
886 1235 m 1,43,-1
 886 1254 l 1,44,-1
 844 1254 l 1,45,-1
 844 1235 l 1,46,-1
 831 1042 l 1,47,-1
 776 547 l 1,48,-1
 776 525 l 1,49,-1
 961 525 l 1,50,-1
 961 547 l 1,51,52
 946 672 946 672 930.5 795 c 128,-1,53
 915 918 915 918 901 1042 c 1,54,-1
 886 1235 l 1,43,-1
EndSplineSet
EndChar

StartChar: Aacute
Encoding: 193 193 127
Width: 1744
Flags: W
LayerCount: 2
Fore
SplineSet
602 1871 m 2,0,1
 649 1913 649 1913 701 1958 c 128,-1,2
 753 2003 753 2003 803.5 2043.5 c 128,-1,3
 854 2084 854 2084 899 2117 c 128,-1,4
 944 2150 944 2150 977 2170 c 1,5,6
 1009 2185 1009 2185 1041.5 2193.5 c 128,-1,7
 1074 2202 1074 2202 1106 2202 c 0,8,9
 1147 2202 1147 2202 1180.5 2189.5 c 128,-1,10
 1214 2177 1214 2177 1238 2155.5 c 128,-1,11
 1262 2134 1262 2134 1275 2106 c 128,-1,12
 1288 2078 1288 2078 1288 2047 c 0,13,14
 1288 2008 1288 2008 1257.5 1964.5 c 128,-1,15
 1227 1921 1227 1921 1167 1886 c 1,16,17
 1141 1873 1141 1873 1099 1858.5 c 128,-1,18
 1057 1844 1057 1844 1005.5 1828.5 c 128,-1,19
 954 1813 954 1813 895.5 1796.5 c 128,-1,20
 837 1780 837 1780 777 1764 c 128,-1,21
 717 1748 717 1748 658 1731.5 c 128,-1,22
 599 1715 599 1715 547 1700 c 0,23,24
 539 1697 539 1697 531 1696 c 128,-1,25
 523 1695 523 1695 515 1695 c 0,26,27
 486 1695 486 1695 467.5 1702.5 c 128,-1,28
 449 1710 449 1710 449 1723 c 0,29,30
 449 1729 449 1729 456.5 1740.5 c 128,-1,31
 464 1752 464 1752 483 1768 c 2,32,-1
 602 1871 l 2,0,1
703 0 m 1,33,-1
 94 0 l 1,34,-1
 390 1521 l 1,35,-1
 1340 1521 l 1,36,-1
 1642 0 l 1,37,-1
 1033 0 l 1,38,-1
 979 341 l 1,39,-1
 979 357 l 1,40,-1
 756 357 l 1,41,-1
 756 341 l 1,42,-1
 703 0 l 1,33,-1
886 1235 m 1,43,-1
 886 1254 l 1,44,-1
 844 1254 l 1,45,-1
 844 1235 l 1,46,-1
 831 1042 l 1,47,-1
 776 547 l 1,48,-1
 776 525 l 1,49,-1
 961 525 l 1,50,-1
 961 547 l 1,51,52
 946 672 946 672 930.5 795 c 128,-1,53
 915 918 915 918 901 1042 c 1,54,-1
 886 1235 l 1,43,-1
EndSplineSet
EndChar

StartChar: Acircumflex
Encoding: 194 194 128
Width: 1742
Flags: W
LayerCount: 2
Fore
SplineSet
720 2179 m 2,0,1
 741 2208 741 2208 782 2223.5 c 128,-1,2
 823 2239 823 2239 869 2239 c 0,3,4
 912 2239 912 2239 952 2225 c 128,-1,5
 992 2211 992 2211 1015 2179 c 2,6,-1
 1289 1779 l 2,7,8
 1306 1753 1306 1753 1308 1736 c 1,9,10
 1308 1718 1308 1718 1288.5 1706.5 c 128,-1,11
 1269 1695 1269 1695 1242 1695 c 0,12,13
 1205 1695 1205 1695 1182 1712 c 2,14,-1
 868 1942 l 1,15,-1
 552 1712 l 2,16,17
 531 1697 531 1697 501 1697 c 0,18,19
 472 1697 472 1697 450 1707 c 128,-1,20
 428 1717 428 1717 428 1737 c 1,21,22
 427 1745 427 1745 432 1755 c 128,-1,23
 437 1765 437 1765 447 1779 c 2,24,-1
 720 2179 l 2,0,1
703 0 m 1,25,-1
 94 0 l 1,26,-1
 390 1521 l 1,27,-1
 1340 1521 l 1,28,-1
 1642 0 l 1,29,-1
 1033 0 l 1,30,-1
 979 341 l 1,31,-1
 979 357 l 1,32,-1
 756 357 l 1,33,-1
 756 341 l 1,34,-1
 703 0 l 1,25,-1
886 1235 m 1,35,-1
 886 1254 l 1,36,-1
 844 1254 l 1,37,-1
 844 1235 l 1,38,-1
 831 1042 l 1,39,-1
 776 547 l 1,40,-1
 776 525 l 1,41,-1
 961 525 l 1,42,-1
 961 547 l 1,43,44
 946 672 946 672 930.5 795 c 128,-1,45
 915 918 915 918 901 1042 c 1,46,-1
 886 1235 l 1,35,-1
EndSplineSet
EndChar

StartChar: Atilde
Encoding: 195 195 129
Width: 1750
Flags: W
LayerCount: 2
Fore
SplineSet
1233 1720 m 1,0,1
 1232 1750 1232 1750 1225.5 1779 c 128,-1,2
 1219 1808 1219 1808 1205.5 1830.5 c 128,-1,3
 1192 1853 1192 1853 1170.5 1866.5 c 128,-1,4
 1149 1880 1149 1880 1118 1880 c 0,5,6
 1094 1880 1094 1880 1069.5 1868 c 128,-1,7
 1045 1856 1045 1856 1027 1841 c 2,8,-1
 1010 1827 l 1,9,10
 975 1801 975 1801 937.5 1777.5 c 128,-1,11
 900 1754 900 1754 854.5 1735.5 c 128,-1,12
 809 1717 809 1717 754 1706 c 128,-1,13
 699 1695 699 1695 630 1695 c 0,14,15
 537 1695 537 1695 470 1714 c 128,-1,16
 403 1733 403 1733 356 1769 c 128,-1,17
 309 1805 309 1805 280 1858 c 128,-1,18
 251 1911 251 1911 233 1980 c 0,19,20
 221 2027 221 2027 213.5 2080.5 c 128,-1,21
 206 2134 206 2134 206 2194 c 1,22,-1
 515 2194 l 1,23,24
 515 2162 515 2162 520.5 2132.5 c 128,-1,25
 526 2103 526 2103 539.5 2080.5 c 128,-1,26
 553 2058 553 2058 575 2044 c 128,-1,27
 597 2030 597 2030 631 2030 c 0,28,29
 657 2030 657 2030 684 2045 c 128,-1,30
 711 2060 711 2060 734 2078 c 0,31,32
 734 2079 734 2079 735 2079 c 256,33,34
 736 2079 736 2079 738 2080 c 1,35,-1
 738 2081 l 1,36,37
 775 2106 775 2106 813 2130.5 c 128,-1,38
 851 2155 851 2155 896 2174.5 c 128,-1,39
 941 2194 941 2194 994 2206 c 128,-1,40
 1047 2218 1047 2218 1114 2218 c 0,41,42
 1208 2218 1208 2218 1276 2203 c 128,-1,43
 1344 2188 1344 2188 1391 2159 c 128,-1,44
 1438 2130 1438 2130 1466.5 2087 c 128,-1,45
 1495 2044 1495 2044 1511 1989 c 128,-1,46
 1527 1934 1527 1934 1532 1866.5 c 128,-1,47
 1537 1799 1537 1799 1537 1720 c 1,48,-1
 1233 1720 l 1,0,1
1230 1688 m 1,49,-1
 1230 1713 l 1,50,-1
 1233 1707 l 1,51,-1
 1233 1694 l 1,52,-1
 1230 1688 l 1,49,-1
707 0 m 1,53,-1
 98 0 l 1,54,-1
 394 1521 l 1,55,-1
 1344 1521 l 1,56,-1
 1646 0 l 1,57,-1
 1037 0 l 1,58,-1
 983 341 l 1,59,-1
 983 357 l 1,60,-1
 760 357 l 1,61,-1
 760 341 l 1,62,-1
 707 0 l 1,53,-1
890 1235 m 1,63,-1
 890 1254 l 1,64,-1
 848 1254 l 1,65,-1
 848 1235 l 1,66,-1
 835 1042 l 1,67,-1
 780 547 l 1,68,-1
 780 525 l 1,69,-1
 965 525 l 1,70,-1
 965 547 l 1,71,72
 950 672 950 672 934.5 795 c 128,-1,73
 919 918 919 918 905 1042 c 1,74,-1
 890 1235 l 1,63,-1
EndSplineSet
EndChar

StartChar: Adieresis
Encoding: 196 196 130
Width: 1749
Flags: W
LayerCount: 2
Fore
SplineSet
749 1695 m 1,0,-1
 282 1695 l 1,1,-1
 282 1984 l 1,2,-1
 749 1984 l 1,3,-1
 749 1695 l 1,0,-1
1460 1695 m 1,4,-1
 992 1695 l 1,5,-1
 992 1984 l 1,6,-1
 1460 1984 l 1,7,-1
 1460 1695 l 1,4,-1
707 0 m 1,8,-1
 98 0 l 1,9,-1
 394 1521 l 1,10,-1
 1344 1521 l 1,11,-1
 1646 0 l 1,12,-1
 1037 0 l 1,13,-1
 983 341 l 1,14,-1
 983 357 l 1,15,-1
 760 357 l 1,16,-1
 760 341 l 1,17,-1
 707 0 l 1,8,-1
890 1235 m 1,18,-1
 890 1254 l 1,19,-1
 848 1254 l 1,20,-1
 848 1235 l 1,21,-1
 835 1042 l 1,22,-1
 780 547 l 1,23,-1
 780 525 l 1,24,-1
 965 525 l 1,25,-1
 965 547 l 1,26,27
 950 672 950 672 934.5 795 c 128,-1,28
 919 918 919 918 905 1042 c 1,29,-1
 890 1235 l 1,18,-1
EndSplineSet
EndChar

StartChar: Aring
Encoding: 197 197 131
Width: 1741
Flags: W
LayerCount: 2
Fore
SplineSet
521 1868 m 0,0,1
 521 1937 521 1937 552.5 1992 c 128,-1,2
 584 2047 584 2047 633.5 2085 c 128,-1,3
 683 2123 683 2123 744.5 2143.5 c 128,-1,4
 806 2164 806 2164 867 2164 c 0,5,6
 950 2164 950 2164 1014.5 2136.5 c 128,-1,7
 1079 2109 1079 2109 1123.5 2066.5 c 128,-1,8
 1168 2024 1168 2024 1191 1971.5 c 128,-1,9
 1214 1919 1214 1919 1214 1868 c 0,10,11
 1214 1799 1214 1799 1180.5 1744.5 c 128,-1,12
 1147 1690 1147 1690 1096 1652 c 128,-1,13
 1045 1614 1045 1614 984 1594 c 128,-1,14
 923 1574 923 1574 867 1574 c 0,15,16
 784 1574 784 1574 719.5 1599.5 c 128,-1,17
 655 1625 655 1625 611 1666 c 128,-1,18
 567 1707 567 1707 544 1760 c 128,-1,19
 521 1813 521 1813 521 1868 c 0,0,1
865 2006 m 0,20,21
 838 2006 838 2006 814.5 1995.5 c 128,-1,22
 791 1985 791 1985 774 1966.5 c 128,-1,23
 757 1948 757 1948 747.5 1923 c 128,-1,24
 738 1898 738 1898 738 1868 c 0,25,26
 738 1839 738 1839 748 1814 c 128,-1,27
 758 1789 758 1789 775 1770.5 c 128,-1,28
 792 1752 792 1752 815 1741 c 128,-1,29
 838 1730 838 1730 865 1730 c 0,30,31
 890 1730 890 1730 913 1741 c 128,-1,32
 936 1752 936 1752 953 1771 c 128,-1,33
 970 1790 970 1790 980 1815 c 128,-1,34
 990 1840 990 1840 990 1868 c 0,35,36
 990 1897 990 1897 980 1922 c 128,-1,37
 970 1947 970 1947 953 1966 c 128,-1,38
 936 1985 936 1985 913.5 1995.5 c 128,-1,39
 891 2006 891 2006 865 2006 c 0,20,21
702 0 m 1,40,-1
 93 0 l 1,41,-1
 389 1521 l 1,42,-1
 1339 1521 l 1,43,-1
 1641 0 l 1,44,-1
 1032 0 l 1,45,-1
 978 341 l 1,46,-1
 978 357 l 1,47,-1
 755 357 l 1,48,-1
 755 341 l 1,49,-1
 702 0 l 1,40,-1
885 1235 m 1,50,-1
 885 1254 l 1,51,-1
 843 1254 l 1,52,-1
 843 1235 l 1,53,-1
 830 1042 l 1,54,-1
 775 547 l 1,55,-1
 775 525 l 1,56,-1
 960 525 l 1,57,-1
 960 547 l 1,58,59
 945 672 945 672 929.5 795 c 128,-1,60
 914 918 914 918 900 1042 c 1,61,-1
 885 1235 l 1,50,-1
EndSplineSet
EndChar

StartChar: AE
Encoding: 198 198 132
Width: 2177
Flags: W
LayerCount: 2
Fore
SplineSet
2013 1324 m 1,0,-1
 1659 1324 l 1,1,-1
 1659 901 l 1,2,-1
 1990 901 l 1,3,-1
 1990 696 l 1,4,-1
 1659 696 l 1,5,-1
 1659 200 l 1,6,-1
 2013 200 l 1,7,-1
 2013 0 l 1,8,-1
 1017 0 l 1,9,-1
 1017 340 l 1,10,-1
 794 340 l 1,11,-1
 794 326 l 1,12,-1
 684 0 l 1,13,-1
 41 0 l 1,14,-1
 684 1521 l 1,15,-1
 2013 1521 l 1,16,-1
 2013 1324 l 1,0,-1
1017 527 m 1,17,-1
 1017 965 l 1,18,-1
 871 553 l 1,19,-1
 871 527 l 1,20,-1
 1017 527 l 1,17,-1
EndSplineSet
EndChar

StartChar: Ccedilla
Encoding: 199 199 133
Width: 1787
Flags: W
LayerCount: 2
Fore
SplineSet
984 -62 m 1,0,-1
 984 -130 l 1,1,2
 1038 -130 1038 -130 1082 -136 c 128,-1,3
 1126 -142 1126 -142 1156.5 -157.5 c 128,-1,4
 1187 -173 1187 -173 1204 -199 c 128,-1,5
 1221 -225 1221 -225 1221 -265 c 2,6,-1
 1221 -358 l 2,7,8
 1221 -403 1221 -403 1200.5 -429.5 c 128,-1,9
 1180 -456 1180 -456 1144.5 -470.5 c 128,-1,10
 1109 -485 1109 -485 1061 -489.5 c 128,-1,11
 1013 -494 1013 -494 958 -494 c 0,12,13
 901 -494 901 -494 852.5 -489 c 128,-1,14
 804 -484 804 -484 768.5 -469.5 c 128,-1,15
 733 -455 733 -455 713.5 -428.5 c 128,-1,16
 694 -402 694 -402 694 -358 c 2,17,-1
 694 -323 l 1,18,-1
 931 -295 l 1,19,-1
 931 -425 l 1,20,-1
 997 -425 l 1,21,-1
 997 -198 l 1,22,-1
 800 -198 l 1,23,-1
 800 -62 l 1,24,-1
 984 -62 l 1,0,-1
803 1325 m 1,25,-1
 803 190 l 1,26,-1
 983 190 l 1,27,-1
 983 561 l 1,28,-1
 1611 561 l 1,29,-1
 1611 341 l 2,30,31
 1611 254 1611 254 1580 192 c 128,-1,32
 1549 130 1549 130 1496 87.5 c 128,-1,33
 1443 45 1443 45 1372 20 c 128,-1,34
 1301 -5 1301 -5 1222 -18 c 128,-1,35
 1143 -31 1143 -31 1059.5 -35 c 128,-1,36
 976 -39 976 -39 897 -39 c 0,37,38
 825 -39 825 -39 743.5 -35 c 128,-1,39
 662 -31 662 -31 581.5 -18 c 128,-1,40
 501 -5 501 -5 427 20 c 128,-1,41
 353 45 353 45 296.5 87.5 c 128,-1,42
 240 130 240 130 206 192 c 128,-1,43
 172 254 172 254 172 342 c 2,44,-1
 172 1180 l 2,45,46
 172 1266 172 1266 203.5 1328 c 128,-1,47
 235 1390 235 1390 289.5 1431.5 c 128,-1,48
 344 1473 344 1473 415.5 1498 c 128,-1,49
 487 1523 487 1523 567.5 1536 c 128,-1,50
 648 1549 648 1549 732 1553 c 128,-1,51
 816 1557 816 1557 894 1557 c 0,52,53
 975 1557 975 1557 1060 1553.5 c 128,-1,54
 1145 1550 1145 1550 1224.5 1537.5 c 128,-1,55
 1304 1525 1304 1525 1374.5 1500.5 c 128,-1,56
 1445 1476 1445 1476 1497.5 1434.5 c 128,-1,57
 1550 1393 1550 1393 1580.5 1331 c 128,-1,58
 1611 1269 1611 1269 1611 1181 c 2,59,-1
 1611 958 l 1,60,-1
 983 958 l 1,61,-1
 983 1325 l 1,62,-1
 803 1325 l 1,25,-1
EndSplineSet
EndChar

StartChar: Egrave
Encoding: 200 200 134
Width: 1339
Flags: W
LayerCount: 2
Fore
SplineSet
1070 1767 m 1,0,1
 1088 1752 1088 1752 1096 1740.5 c 128,-1,2
 1104 1729 1104 1729 1104 1723 c 0,3,4
 1104 1710 1104 1710 1085.5 1702.5 c 128,-1,5
 1067 1695 1067 1695 1039 1695 c 2,6,-1
 1028 1695 l 2,7,8
 1029 1695 1029 1695 1029 1694 c 0,9,10
 1029 1692 1029 1692 1018.5 1691.5 c 128,-1,11
 1008 1691 1008 1691 980 1691 c 1,12,-1
 980 1706 l 1,13,14
 929 1720 929 1720 872 1735 c 128,-1,15
 815 1750 815 1750 757 1766 c 128,-1,16
 699 1782 699 1782 643 1798.5 c 128,-1,17
 587 1815 587 1815 538 1830.5 c 128,-1,18
 489 1846 489 1846 449.5 1860 c 128,-1,19
 410 1874 410 1874 386 1886 c 1,20,21
 326 1921 326 1921 296 1964.5 c 128,-1,22
 266 2008 266 2008 266 2047 c 0,23,24
 266 2078 266 2078 279 2106 c 128,-1,25
 292 2134 292 2134 315.5 2155.5 c 128,-1,26
 339 2177 339 2177 372.5 2189.5 c 128,-1,27
 406 2202 406 2202 447 2202 c 0,28,29
 479 2202 479 2202 511.5 2193.5 c 128,-1,30
 544 2185 544 2185 576 2170 c 1,31,32
 609 2150 609 2150 653.5 2117.5 c 128,-1,33
 698 2085 698 2085 747.5 2044.5 c 128,-1,34
 797 2004 797 2004 849.5 1959 c 128,-1,35
 902 1914 902 1914 952 1871 c 2,36,-1
 1070 1768 l 1,37,-1
 1070 1767 l 1,0,1
1176 1316 m 1,38,-1
 822 1316 l 1,39,-1
 822 901 l 1,40,-1
 1153 901 l 1,41,-1
 1153 696 l 1,42,-1
 822 696 l 1,43,-1
 822 207 l 1,44,-1
 1176 207 l 1,45,-1
 1176 0 l 1,46,-1
 194 0 l 1,47,-1
 194 1521 l 1,48,-1
 1176 1521 l 1,49,-1
 1176 1316 l 1,38,-1
EndSplineSet
EndChar

StartChar: Eacute
Encoding: 201 201 135
Width: 1340
Flags: W
LayerCount: 2
Fore
SplineSet
417 1871 m 2,0,1
 465 1913 465 1913 517 1957 c 128,-1,2
 569 2001 569 2001 619.5 2041.5 c 128,-1,3
 670 2082 670 2082 715.5 2116 c 128,-1,4
 761 2150 761 2150 794 2170 c 1,5,6
 826 2185 826 2185 859 2193.5 c 128,-1,7
 892 2202 892 2202 923 2202 c 0,8,9
 963 2202 963 2202 996.5 2189.5 c 128,-1,10
 1030 2177 1030 2177 1054 2155.5 c 128,-1,11
 1078 2134 1078 2134 1091 2106 c 128,-1,12
 1104 2078 1104 2078 1104 2047 c 0,13,14
 1104 2008 1104 2008 1074.5 1964.5 c 128,-1,15
 1045 1921 1045 1921 984 1886 c 1,16,17
 955 1872 955 1872 906.5 1855.5 c 128,-1,18
 858 1839 858 1839 798 1820.5 c 128,-1,19
 738 1802 738 1802 670 1783 c 128,-1,20
 602 1764 602 1764 536 1746 c 0,21,22
 509 1739 509 1739 480 1730 c 128,-1,23
 451 1721 451 1721 423 1713.5 c 128,-1,24
 395 1706 395 1706 370.5 1700.5 c 128,-1,25
 346 1695 346 1695 330 1695 c 0,26,27
 304 1695 304 1695 285 1702.5 c 128,-1,28
 266 1710 266 1710 266 1723 c 0,29,30
 266 1730 266 1730 274 1740.5 c 128,-1,31
 282 1751 282 1751 301 1768 c 2,32,-1
 417 1871 l 2,0,1
1176 1316 m 1,33,-1
 822 1316 l 1,34,-1
 822 901 l 1,35,-1
 1153 901 l 1,36,-1
 1153 696 l 1,37,-1
 822 696 l 1,38,-1
 822 207 l 1,39,-1
 1176 207 l 1,40,-1
 1176 0 l 1,41,-1
 194 0 l 1,42,-1
 194 1521 l 1,43,-1
 1176 1521 l 1,44,-1
 1176 1316 l 1,33,-1
EndSplineSet
EndChar

StartChar: Ecircumflex
Encoding: 202 202 136
Width: 1343
Flags: W
LayerCount: 2
Fore
SplineSet
540 2179 m 1,0,1
 562 2208 562 2208 602.5 2223.5 c 128,-1,2
 643 2239 643 2239 688 2239 c 256,3,4
 733 2239 733 2239 772.5 2225 c 128,-1,5
 812 2211 812 2211 835 2179 c 2,6,-1
 1108 1779 l 2,7,8
 1126 1751 1126 1751 1128 1736 c 1,9,10
 1128 1718 1128 1718 1108.5 1706.5 c 128,-1,11
 1089 1695 1089 1695 1062 1695 c 0,12,13
 1026 1695 1026 1695 1003 1712 c 2,14,-1
 687 1942 l 1,15,-1
 373 1712 l 2,16,17
 362 1704 362 1704 348.5 1700.5 c 128,-1,18
 335 1697 335 1697 321 1697 c 0,19,20
 292 1697 292 1697 269.5 1707.5 c 128,-1,21
 247 1718 247 1718 247 1737 c 0,22,23
 247 1750 247 1750 267 1778 c 1,24,-1
 267 1779 l 1,25,-1
 540 2179 l 1,0,1
1178 1316 m 1,26,-1
 824 1316 l 1,27,-1
 824 901 l 1,28,-1
 1155 901 l 1,29,-1
 1155 696 l 1,30,-1
 824 696 l 1,31,-1
 824 207 l 1,32,-1
 1178 207 l 1,33,-1
 1178 0 l 1,34,-1
 196 0 l 1,35,-1
 196 1521 l 1,36,-1
 1178 1521 l 1,37,-1
 1178 1316 l 1,26,-1
EndSplineSet
EndChar

StartChar: Edieresis
Encoding: 203 203 137
Width: 1316
Flags: W
LayerCount: 2
Fore
SplineSet
563 1695 m 1,0,-1
 95 1695 l 1,1,-1
 95 1984 l 1,2,-1
 563 1984 l 1,3,-1
 563 1695 l 1,0,-1
1274 1695 m 1,4,-1
 806 1695 l 1,5,-1
 806 1984 l 1,6,-1
 1274 1984 l 1,7,-1
 1274 1695 l 1,4,-1
1176 1316 m 1,8,-1
 822 1316 l 1,9,-1
 822 901 l 1,10,-1
 1153 901 l 1,11,-1
 1153 696 l 1,12,-1
 822 696 l 1,13,-1
 822 207 l 1,14,-1
 1176 207 l 1,15,-1
 1176 0 l 1,16,-1
 194 0 l 1,17,-1
 194 1521 l 1,18,-1
 1176 1521 l 1,19,-1
 1176 1316 l 1,8,-1
EndSplineSet
EndChar

StartChar: Igrave
Encoding: 204 204 138
Width: 1003
Flags: W
LayerCount: 2
Fore
SplineSet
882 1767 m 1,0,1
 901 1752 901 1752 909 1740.5 c 128,-1,2
 917 1729 917 1729 917 1723 c 0,3,4
 917 1710 917 1710 898 1702.5 c 128,-1,5
 879 1695 879 1695 852 1695 c 2,6,-1
 841 1695 l 2,7,8
 842 1695 842 1695 842 1694 c 0,9,10
 842 1692 842 1692 831.5 1691.5 c 128,-1,11
 821 1691 821 1691 793 1691 c 1,12,-1
 793 1706 l 1,13,14
 716 1727 716 1727 627.5 1751 c 128,-1,15
 539 1775 539 1775 456 1799 c 128,-1,16
 373 1823 373 1823 304.5 1845.5 c 128,-1,17
 236 1868 236 1868 199 1886 c 1,18,19
 138 1921 138 1921 108.5 1964.5 c 128,-1,20
 79 2008 79 2008 79 2047 c 0,21,22
 79 2078 79 2078 92 2106 c 128,-1,23
 105 2134 105 2134 128.5 2155.5 c 128,-1,24
 152 2177 152 2177 185.5 2189.5 c 128,-1,25
 219 2202 219 2202 260 2202 c 0,26,27
 291 2202 291 2202 324 2193.5 c 128,-1,28
 357 2185 357 2185 389 2170 c 1,29,30
 434 2145 434 2145 495.5 2097 c 128,-1,31
 557 2049 557 2049 624.5 1992 c 128,-1,32
 692 1935 692 1935 759 1875.5 c 128,-1,33
 826 1816 826 1816 882 1768 c 1,34,-1
 882 1767 l 1,0,1
811 0 m 1,35,-1
 183 0 l 1,36,-1
 183 1521 l 1,37,-1
 811 1521 l 1,38,-1
 811 0 l 1,35,-1
EndSplineSet
EndChar

StartChar: Iacute
Encoding: 205 205 139
Width: 1003
Flags: W
LayerCount: 2
Fore
SplineSet
233 1871 m 2,0,1
 281 1913 281 1913 333 1957 c 128,-1,2
 385 2001 385 2001 435.5 2041.5 c 128,-1,3
 486 2082 486 2082 531.5 2116 c 128,-1,4
 577 2150 577 2150 610 2170 c 1,5,6
 642 2185 642 2185 674.5 2193.5 c 128,-1,7
 707 2202 707 2202 739 2202 c 0,8,9
 779 2202 779 2202 812.5 2189.5 c 128,-1,10
 846 2177 846 2177 870 2155.5 c 128,-1,11
 894 2134 894 2134 907 2106 c 128,-1,12
 920 2078 920 2078 920 2047 c 0,13,14
 920 2008 920 2008 890 1964.5 c 128,-1,15
 860 1921 860 1921 800 1886 c 1,16,17
 774 1874 774 1874 732 1859 c 128,-1,18
 690 1844 690 1844 638 1828.5 c 128,-1,19
 586 1813 586 1813 527.5 1796.5 c 128,-1,20
 469 1780 469 1780 408.5 1763.5 c 128,-1,21
 348 1747 348 1747 289.5 1731 c 128,-1,22
 231 1715 231 1715 180 1700 c 0,23,24
 172 1697 172 1697 163 1696 c 128,-1,25
 154 1695 154 1695 146 1695 c 0,26,27
 119 1695 119 1695 100.5 1702.5 c 128,-1,28
 82 1710 82 1710 82 1723 c 0,29,30
 82 1729 82 1729 90 1740.5 c 128,-1,31
 98 1752 98 1752 116 1768 c 2,32,-1
 233 1871 l 2,0,1
814 0 m 1,33,-1
 186 0 l 1,34,-1
 186 1521 l 1,35,-1
 814 1521 l 1,36,-1
 814 0 l 1,33,-1
EndSplineSet
EndChar

StartChar: Icircumflex
Encoding: 206 206 140
Width: 1008
Flags: W
LayerCount: 2
Fore
SplineSet
354 2179 m 2,0,1
 375 2208 375 2208 415.5 2223.5 c 128,-1,2
 456 2239 456 2239 501 2239 c 256,3,4
 546 2239 546 2239 586 2225 c 128,-1,5
 626 2211 626 2211 649 2179 c 2,6,-1
 922 1779 l 2,7,8
 931 1765 931 1765 935 1754.5 c 128,-1,9
 939 1744 939 1744 940 1736 c 1,10,11
 940 1718 940 1718 921.5 1706.5 c 128,-1,12
 903 1695 903 1695 876 1695 c 0,13,14
 839 1695 839 1695 816 1712 c 2,15,-1
 500 1942 l 1,16,-1
 186 1712 l 2,17,18
 165 1696 165 1696 134 1697 c 0,19,20
 105 1697 105 1697 82.5 1707.5 c 128,-1,21
 60 1718 60 1718 60 1737 c 0,22,23
 60 1751 60 1751 81 1778 c 1,24,-1
 81 1779 l 1,25,-1
 354 2179 l 2,0,1
815 0 m 1,26,-1
 187 0 l 1,27,-1
 187 1521 l 1,28,-1
 815 1521 l 1,29,-1
 815 0 l 1,26,-1
EndSplineSet
EndChar

StartChar: Idieresis
Encoding: 207 207 141
Width: 1063
Flags: W
LayerCount: 2
Fore
SplineSet
407 1695 m 1,0,-1
 -60 1695 l 1,1,-1
 -60 1984 l 1,2,-1
 407 1984 l 1,3,-1
 407 1695 l 1,0,-1
1118 1695 m 1,4,-1
 650 1695 l 1,5,-1
 650 1984 l 1,6,-1
 1118 1984 l 1,7,-1
 1118 1695 l 1,4,-1
843 0 m 1,8,-1
 215 0 l 1,9,-1
 215 1521 l 1,10,-1
 843 1521 l 1,11,-1
 843 0 l 1,8,-1
EndSplineSet
EndChar

StartChar: Eth
Encoding: 208 208 142
Width: 1675
Flags: W
LayerCount: 2
Fore
SplineSet
1491 365 m 1,0,1
 1491 258 1491 258 1454 188 c 128,-1,2
 1417 118 1417 118 1343.5 76 c 128,-1,3
 1270 34 1270 34 1161 17 c 128,-1,4
 1052 0 1052 0 909 0 c 2,5,-1
 211 0 l 1,6,-1
 211 711 l 1,7,-1
 114 711 l 1,8,-1
 114 809 l 1,9,-1
 211 809 l 1,10,-1
 211 1521 l 1,11,-1
 909 1521 l 2,12,13
 1055 1521 1055 1521 1164.5 1503.5 c 128,-1,14
 1274 1486 1274 1486 1347.5 1444 c 128,-1,15
 1421 1402 1421 1402 1457.5 1332 c 128,-1,16
 1494 1262 1494 1262 1494 1157 c 2,17,-1
 1494 374 l 1,18,-1
 1491 365 l 1,0,1
976 194 m 1,19,-1
 976 1327 l 1,20,-1
 731 1327 l 1,21,-1
 731 809 l 1,22,-1
 865 809 l 1,23,-1
 865 711 l 1,24,-1
 731 711 l 1,25,-1
 731 194 l 1,26,-1
 976 194 l 1,19,-1
EndSplineSet
EndChar

StartChar: Ntilde
Encoding: 209 209 143
Width: 1843
Flags: W
LayerCount: 2
Fore
SplineSet
1281 1720 m 1,0,1
 1280 1750 1280 1750 1274 1779 c 128,-1,2
 1268 1808 1268 1808 1254.5 1830.5 c 128,-1,3
 1241 1853 1241 1853 1219.5 1866.5 c 128,-1,4
 1198 1880 1198 1880 1167 1880 c 0,5,6
 1141 1880 1141 1880 1118 1867.5 c 128,-1,7
 1095 1855 1095 1855 1075 1841 c 1,8,-1
 1059 1827 l 1,9,10
 1024 1801 1024 1801 986 1777.5 c 128,-1,11
 948 1754 948 1754 902.5 1735.5 c 128,-1,12
 857 1717 857 1717 802 1706 c 128,-1,13
 747 1695 747 1695 678 1695 c 0,14,15
 585 1695 585 1695 518 1714 c 128,-1,16
 451 1733 451 1733 404 1769 c 128,-1,17
 357 1805 357 1805 328 1858 c 128,-1,18
 299 1911 299 1911 281 1980 c 0,19,20
 269 2027 269 2027 261.5 2080.5 c 128,-1,21
 254 2134 254 2134 254 2194 c 1,22,-1
 563 2194 l 1,23,24
 563 2162 563 2162 568.5 2132.5 c 128,-1,25
 574 2103 574 2103 587.5 2080.5 c 128,-1,26
 601 2058 601 2058 623 2044 c 128,-1,27
 645 2030 645 2030 679 2030 c 0,28,29
 705 2030 705 2030 732 2045 c 128,-1,30
 759 2060 759 2060 782 2078 c 0,31,32
 782 2079 782 2079 783 2079 c 256,33,34
 784 2079 784 2079 786 2080 c 1,35,-1
 786 2081 l 1,36,37
 823 2106 823 2106 861.5 2130.5 c 128,-1,38
 900 2155 900 2155 945 2174.5 c 128,-1,39
 990 2194 990 2194 1043.5 2206 c 128,-1,40
 1097 2218 1097 2218 1164 2218 c 0,41,42
 1304 2218 1304 2218 1387.5 2184.5 c 128,-1,43
 1471 2151 1471 2151 1515 2087 c 128,-1,44
 1559 2023 1559 2023 1572 1930.5 c 128,-1,45
 1585 1838 1585 1838 1585 1720 c 1,46,-1
 1281 1720 l 1,0,1
1278 1688 m 1,47,-1
 1278 1713 l 1,48,-1
 1281 1707 l 1,49,-1
 1281 1694 l 1,50,-1
 1278 1688 l 1,47,-1
662 684 m 1,51,-1
 662 0 l 1,52,-1
 195 0 l 1,53,-1
 195 1521 l 1,54,-1
 741 1521 l 1,55,-1
 1183 787 l 1,56,-1
 1183 1521 l 1,57,-1
 1644 1521 l 1,58,-1
 1644 0 l 1,59,-1
 1078 0 l 1,60,-1
 662 684 l 1,51,-1
EndSplineSet
EndChar

StartChar: Ograve
Encoding: 210 210 144
Width: 1790
Flags: W
LayerCount: 2
Fore
SplineSet
1276 1767 m 1,0,1
 1295 1752 1295 1752 1303 1740.5 c 128,-1,2
 1311 1729 1311 1729 1311 1723 c 0,3,4
 1311 1710 1311 1710 1292 1702.5 c 128,-1,5
 1273 1695 1273 1695 1247 1695 c 0,6,7
 1239 1695 1239 1695 1229.5 1696 c 128,-1,8
 1220 1697 1220 1697 1212 1700 c 0,9,10
 1158 1715 1158 1715 1098.5 1731.5 c 128,-1,11
 1039 1748 1039 1748 979.5 1764.5 c 128,-1,12
 920 1781 920 1781 862 1797 c 128,-1,13
 804 1813 804 1813 753 1828.5 c 128,-1,14
 702 1844 702 1844 660.5 1858.5 c 128,-1,15
 619 1873 619 1873 593 1886 c 1,16,17
 532 1921 532 1921 502.5 1964.5 c 128,-1,18
 473 2008 473 2008 473 2047 c 0,19,20
 473 2078 473 2078 486 2106 c 128,-1,21
 499 2134 499 2134 523 2155.5 c 128,-1,22
 547 2177 547 2177 580.5 2189.5 c 128,-1,23
 614 2202 614 2202 654 2202 c 0,24,25
 685 2202 685 2202 718 2193.5 c 128,-1,26
 751 2185 751 2185 783 2170 c 1,27,28
 814 2152 814 2152 859 2118.5 c 128,-1,29
 904 2085 904 2085 955 2043.5 c 128,-1,30
 1006 2002 1006 2002 1059 1957 c 128,-1,31
 1112 1912 1112 1912 1159 1871 c 2,32,-1
 1276 1768 l 1,33,-1
 1276 1767 l 1,0,1
983 192 m 1,34,-1
 983 1331 l 1,35,-1
 803 1331 l 1,36,-1
 803 192 l 1,37,-1
 983 192 l 1,34,-1
889 -38 m 0,38,39
 806 -38 806 -38 720.5 -34.5 c 128,-1,40
 635 -31 635 -31 555 -18 c 128,-1,41
 475 -5 475 -5 405.5 19.5 c 128,-1,42
 336 44 336 44 284 86.5 c 128,-1,43
 232 129 232 129 202 191.5 c 128,-1,44
 172 254 172 254 172 342 c 2,45,-1
 172 1180 l 2,46,47
 172 1266 172 1266 203.5 1327.5 c 128,-1,48
 235 1389 235 1389 288.5 1431 c 128,-1,49
 342 1473 342 1473 413 1497.5 c 128,-1,50
 484 1522 484 1522 563.5 1535 c 128,-1,51
 643 1548 643 1548 726.5 1552 c 128,-1,52
 810 1556 810 1556 889 1556 c 0,53,54
 960 1556 960 1556 1041 1552.5 c 128,-1,55
 1122 1549 1122 1549 1202 1536 c 128,-1,56
 1282 1523 1282 1523 1355.5 1498.5 c 128,-1,57
 1429 1474 1429 1474 1485.5 1432.5 c 128,-1,58
 1542 1391 1542 1391 1576 1329 c 128,-1,59
 1610 1267 1610 1267 1610 1180 c 2,60,-1
 1610 342 l 2,61,62
 1610 254 1610 254 1578.5 192 c 128,-1,63
 1547 130 1547 130 1493 88 c 128,-1,64
 1439 46 1439 46 1367 21 c 128,-1,65
 1295 -4 1295 -4 1215 -17 c 128,-1,66
 1135 -30 1135 -30 1051 -34 c 128,-1,67
 967 -38 967 -38 889 -38 c 0,38,39
EndSplineSet
EndChar

StartChar: Oacute
Encoding: 211 211 145
Width: 1789
Flags: W
LayerCount: 2
Fore
SplineSet
625 1871 m 2,0,1
 672 1913 672 1913 724 1958 c 128,-1,2
 776 2003 776 2003 826.5 2043.5 c 128,-1,3
 877 2084 877 2084 922 2117 c 128,-1,4
 967 2150 967 2150 1000 2170 c 1,5,6
 1032 2185 1032 2185 1064.5 2193.5 c 128,-1,7
 1097 2202 1097 2202 1129 2202 c 0,8,9
 1170 2202 1170 2202 1203.5 2189.5 c 128,-1,10
 1237 2177 1237 2177 1260.5 2155.5 c 128,-1,11
 1284 2134 1284 2134 1297 2106 c 128,-1,12
 1310 2078 1310 2078 1310 2047 c 0,13,14
 1310 2008 1310 2008 1280 1964.5 c 128,-1,15
 1250 1921 1250 1921 1190 1886 c 1,16,17
 1164 1873 1164 1873 1122 1858.5 c 128,-1,18
 1080 1844 1080 1844 1028.5 1828.5 c 128,-1,19
 977 1813 977 1813 918.5 1796.5 c 128,-1,20
 860 1780 860 1780 800 1764 c 128,-1,21
 740 1748 740 1748 681 1731.5 c 128,-1,22
 622 1715 622 1715 570 1700 c 0,23,24
 562 1697 562 1697 554 1696 c 128,-1,25
 546 1695 546 1695 538 1695 c 0,26,27
 509 1695 509 1695 490.5 1702.5 c 128,-1,28
 472 1710 472 1710 472 1723 c 0,29,30
 472 1729 472 1729 479.5 1740.5 c 128,-1,31
 487 1752 487 1752 506 1768 c 2,32,-1
 625 1871 l 2,0,1
982 192 m 1,33,-1
 982 1331 l 1,34,-1
 802 1331 l 1,35,-1
 802 192 l 1,36,-1
 982 192 l 1,33,-1
888 -38 m 0,37,38
 805 -38 805 -38 719.5 -34.5 c 128,-1,39
 634 -31 634 -31 554 -18 c 128,-1,40
 474 -5 474 -5 404.5 19.5 c 128,-1,41
 335 44 335 44 283 86.5 c 128,-1,42
 231 129 231 129 201 191.5 c 128,-1,43
 171 254 171 254 171 342 c 2,44,-1
 171 1180 l 2,45,46
 171 1266 171 1266 202.5 1327.5 c 128,-1,47
 234 1389 234 1389 287.5 1431 c 128,-1,48
 341 1473 341 1473 412 1497.5 c 128,-1,49
 483 1522 483 1522 562.5 1535 c 128,-1,50
 642 1548 642 1548 725.5 1552 c 128,-1,51
 809 1556 809 1556 888 1556 c 0,52,53
 959 1556 959 1556 1040 1552.5 c 128,-1,54
 1121 1549 1121 1549 1201 1536 c 128,-1,55
 1281 1523 1281 1523 1354.5 1498.5 c 128,-1,56
 1428 1474 1428 1474 1484.5 1432.5 c 128,-1,57
 1541 1391 1541 1391 1575 1329 c 128,-1,58
 1609 1267 1609 1267 1609 1180 c 2,59,-1
 1609 342 l 2,60,61
 1609 254 1609 254 1577.5 192 c 128,-1,62
 1546 130 1546 130 1492 88 c 128,-1,63
 1438 46 1438 46 1366 21 c 128,-1,64
 1294 -4 1294 -4 1214 -17 c 128,-1,65
 1134 -30 1134 -30 1050 -34 c 128,-1,66
 966 -38 966 -38 888 -38 c 0,37,38
EndSplineSet
EndChar

StartChar: Ocircumflex
Encoding: 212 212 146
Width: 1790
Flags: W
LayerCount: 2
Fore
SplineSet
744 2179 m 2,0,1
 765 2208 765 2208 806 2223.5 c 128,-1,2
 847 2239 847 2239 893 2239 c 0,3,4
 936 2239 936 2239 976 2225 c 128,-1,5
 1016 2211 1016 2211 1039 2179 c 2,6,-1
 1313 1779 l 2,7,8
 1330 1753 1330 1753 1332 1736 c 1,9,10
 1332 1718 1332 1718 1312.5 1706.5 c 128,-1,11
 1293 1695 1293 1695 1266 1695 c 0,12,13
 1228 1695 1228 1695 1206 1712 c 2,14,-1
 892 1942 l 1,15,-1
 576 1712 l 2,16,17
 555 1697 555 1697 525 1697 c 0,18,19
 496 1697 496 1697 474 1707 c 128,-1,20
 452 1717 452 1717 452 1737 c 1,21,22
 451 1745 451 1745 456 1755 c 128,-1,23
 461 1765 461 1765 471 1779 c 2,24,-1
 744 2179 l 2,0,1
983 192 m 1,25,-1
 983 1331 l 1,26,-1
 803 1331 l 1,27,-1
 803 192 l 1,28,-1
 983 192 l 1,25,-1
889 -38 m 0,29,30
 806 -38 806 -38 720.5 -34.5 c 128,-1,31
 635 -31 635 -31 555 -18 c 128,-1,32
 475 -5 475 -5 405.5 19.5 c 128,-1,33
 336 44 336 44 284 86.5 c 128,-1,34
 232 129 232 129 202 191.5 c 128,-1,35
 172 254 172 254 172 342 c 2,36,-1
 172 1180 l 2,37,38
 172 1266 172 1266 203.5 1327.5 c 128,-1,39
 235 1389 235 1389 288.5 1431 c 128,-1,40
 342 1473 342 1473 413 1497.5 c 128,-1,41
 484 1522 484 1522 563.5 1535 c 128,-1,42
 643 1548 643 1548 726.5 1552 c 128,-1,43
 810 1556 810 1556 889 1556 c 0,44,45
 960 1556 960 1556 1041 1552.5 c 128,-1,46
 1122 1549 1122 1549 1202 1536 c 128,-1,47
 1282 1523 1282 1523 1355.5 1498.5 c 128,-1,48
 1429 1474 1429 1474 1485.5 1432.5 c 128,-1,49
 1542 1391 1542 1391 1576 1329 c 128,-1,50
 1610 1267 1610 1267 1610 1180 c 2,51,-1
 1610 342 l 2,52,53
 1610 254 1610 254 1578.5 192 c 128,-1,54
 1547 130 1547 130 1493 88 c 128,-1,55
 1439 46 1439 46 1367 21 c 128,-1,56
 1295 -4 1295 -4 1215 -17 c 128,-1,57
 1135 -30 1135 -30 1051 -34 c 128,-1,58
 967 -38 967 -38 889 -38 c 0,29,30
EndSplineSet
EndChar

StartChar: Otilde
Encoding: 213 213 147
Width: 1797
Flags: W
LayerCount: 2
Fore
SplineSet
1256 1720 m 1,0,1
 1255 1750 1255 1750 1248.5 1779 c 128,-1,2
 1242 1808 1242 1808 1228.5 1830.5 c 128,-1,3
 1215 1853 1215 1853 1193 1866.5 c 128,-1,4
 1171 1880 1171 1880 1140 1880 c 0,5,6
 1117 1880 1117 1880 1092.5 1868 c 128,-1,7
 1068 1856 1068 1856 1050 1841 c 2,8,-1
 1033 1827 l 1,9,10
 998 1801 998 1801 960.5 1777.5 c 128,-1,11
 923 1754 923 1754 877 1735.5 c 128,-1,12
 831 1717 831 1717 776 1706 c 128,-1,13
 721 1695 721 1695 652 1695 c 0,14,15
 559 1695 559 1695 492.5 1714 c 128,-1,16
 426 1733 426 1733 379 1769 c 128,-1,17
 332 1805 332 1805 303 1858 c 128,-1,18
 274 1911 274 1911 256 1980 c 0,19,20
 244 2027 244 2027 236.5 2080.5 c 128,-1,21
 229 2134 229 2134 229 2194 c 1,22,-1
 538 2194 l 1,23,24
 538 2162 538 2162 543.5 2132.5 c 128,-1,25
 549 2103 549 2103 562 2080.5 c 128,-1,26
 575 2058 575 2058 597.5 2044 c 128,-1,27
 620 2030 620 2030 653 2030 c 0,28,29
 680 2030 680 2030 707 2045 c 128,-1,30
 734 2060 734 2060 757 2078 c 0,31,32
 757 2079 757 2079 758 2079 c 256,33,34
 759 2079 759 2079 761 2080 c 1,35,-1
 761 2081 l 1,36,37
 798 2106 798 2106 836 2130.5 c 128,-1,38
 874 2155 874 2155 919 2174.5 c 128,-1,39
 964 2194 964 2194 1017 2206 c 128,-1,40
 1070 2218 1070 2218 1137 2218 c 0,41,42
 1231 2218 1231 2218 1299 2203 c 128,-1,43
 1367 2188 1367 2188 1414 2159 c 128,-1,44
 1461 2130 1461 2130 1489.5 2087 c 128,-1,45
 1518 2044 1518 2044 1534 1989 c 128,-1,46
 1550 1934 1550 1934 1555 1866.5 c 128,-1,47
 1560 1799 1560 1799 1560 1720 c 1,48,-1
 1256 1720 l 1,0,1
1253 1688 m 1,49,-1
 1253 1713 l 1,50,-1
 1256 1707 l 1,51,-1
 1256 1694 l 1,52,-1
 1253 1688 l 1,49,-1
986 192 m 1,53,-1
 986 1331 l 1,54,-1
 806 1331 l 1,55,-1
 806 192 l 1,56,-1
 986 192 l 1,53,-1
892 -38 m 0,57,58
 809 -38 809 -38 723.5 -34.5 c 128,-1,59
 638 -31 638 -31 558 -18 c 128,-1,60
 478 -5 478 -5 408.5 19.5 c 128,-1,61
 339 44 339 44 287 86.5 c 128,-1,62
 235 129 235 129 205 191.5 c 128,-1,63
 175 254 175 254 175 342 c 2,64,-1
 175 1180 l 2,65,66
 175 1266 175 1266 206.5 1327.5 c 128,-1,67
 238 1389 238 1389 291.5 1431 c 128,-1,68
 345 1473 345 1473 416 1497.5 c 128,-1,69
 487 1522 487 1522 566.5 1535 c 128,-1,70
 646 1548 646 1548 729.5 1552 c 128,-1,71
 813 1556 813 1556 892 1556 c 0,72,73
 963 1556 963 1556 1044 1552.5 c 128,-1,74
 1125 1549 1125 1549 1205 1536 c 128,-1,75
 1285 1523 1285 1523 1358.5 1498.5 c 128,-1,76
 1432 1474 1432 1474 1488.5 1432.5 c 128,-1,77
 1545 1391 1545 1391 1579 1329 c 128,-1,78
 1613 1267 1613 1267 1613 1180 c 2,79,-1
 1613 342 l 2,80,81
 1613 254 1613 254 1581.5 192 c 128,-1,82
 1550 130 1550 130 1496 88 c 128,-1,83
 1442 46 1442 46 1370 21 c 128,-1,84
 1298 -4 1298 -4 1218 -17 c 128,-1,85
 1138 -30 1138 -30 1054 -34 c 128,-1,86
 970 -38 970 -38 892 -38 c 0,57,58
EndSplineSet
EndChar

StartChar: Odieresis
Encoding: 214 214 148
Width: 1794
Flags: W
LayerCount: 2
Fore
SplineSet
771 1695 m 1,0,-1
 304 1695 l 1,1,-1
 304 1984 l 1,2,-1
 771 1984 l 1,3,-1
 771 1695 l 1,0,-1
1482 1695 m 1,4,-1
 1014 1695 l 1,5,-1
 1014 1984 l 1,6,-1
 1482 1984 l 1,7,-1
 1482 1695 l 1,4,-1
985 192 m 1,8,-1
 985 1331 l 1,9,-1
 805 1331 l 1,10,-1
 805 192 l 1,11,-1
 985 192 l 1,8,-1
891 -38 m 0,12,13
 808 -38 808 -38 722.5 -34.5 c 128,-1,14
 637 -31 637 -31 557 -18 c 128,-1,15
 477 -5 477 -5 407.5 19.5 c 128,-1,16
 338 44 338 44 286 86.5 c 128,-1,17
 234 129 234 129 204 191.5 c 128,-1,18
 174 254 174 254 174 342 c 2,19,-1
 174 1180 l 2,20,21
 174 1266 174 1266 205.5 1327.5 c 128,-1,22
 237 1389 237 1389 290.5 1431 c 128,-1,23
 344 1473 344 1473 415 1497.5 c 128,-1,24
 486 1522 486 1522 565.5 1535 c 128,-1,25
 645 1548 645 1548 728.5 1552 c 128,-1,26
 812 1556 812 1556 891 1556 c 0,27,28
 962 1556 962 1556 1043 1552.5 c 128,-1,29
 1124 1549 1124 1549 1204 1536 c 128,-1,30
 1284 1523 1284 1523 1357.5 1498.5 c 128,-1,31
 1431 1474 1431 1474 1487.5 1432.5 c 128,-1,32
 1544 1391 1544 1391 1578 1329 c 128,-1,33
 1612 1267 1612 1267 1612 1180 c 2,34,-1
 1612 342 l 2,35,36
 1612 254 1612 254 1580.5 192 c 128,-1,37
 1549 130 1549 130 1495 88 c 128,-1,38
 1441 46 1441 46 1369 21 c 128,-1,39
 1297 -4 1297 -4 1217 -17 c 128,-1,40
 1137 -30 1137 -30 1053 -34 c 128,-1,41
 969 -38 969 -38 891 -38 c 0,12,13
EndSplineSet
EndChar

StartChar: multiply
Encoding: 215 215 149
Width: 1445
Flags: W
LayerCount: 2
Fore
SplineSet
1072 628 m 1,0,-1
 1072 603 l 1,1,-1
 1327 347 l 1,2,-1
 977 -3 l 1,3,-1
 710 265 l 1,4,-1
 441 -3 l 1,5,-1
 93 347 l 1,6,-1
 348 603 l 1,7,-1
 348 629 l 1,8,9
 311 660 311 660 279 693.5 c 128,-1,10
 247 727 247 727 215 760 c 2,11,-1
 200 775 l 2,12,13
 171 803 171 803 145 829 c 128,-1,14
 119 855 119 855 93 885 c 1,15,-1
 441 1232 l 1,16,-1
 710 965 l 1,17,-1
 977 1232 l 1,18,-1
 1327 885 l 1,19,-1
 1072 628 l 1,0,-1
EndSplineSet
EndChar

StartChar: Oslash
Encoding: 216 216 150
Width: 1794
Flags: W
LayerCount: 2
Fore
SplineSet
890 -39 m 1,0,1
 759 -39 759 -39 649.5 -27 c 128,-1,2
 540 -15 540 -15 452 11 c 1,3,-1
 335 -169 l 1,4,-1
 210 -80 l 1,5,-1
 311 75 l 1,6,7
 244 120 244 120 208.5 185.5 c 128,-1,8
 173 251 173 251 173 342 c 2,9,-1
 173 1180 l 2,10,11
 173 1270 173 1270 205 1332 c 128,-1,12
 237 1394 237 1394 294 1434.5 c 128,-1,13
 351 1475 351 1475 429 1498.5 c 128,-1,14
 507 1522 507 1522 599 1537 c 1,15,16
 719 1555 719 1555 890 1555 c 0,17,18
 993 1555 993 1555 1085 1548 c 128,-1,19
 1177 1541 1177 1541 1258 1524 c 1,20,-1
 1403 1745 l 1,21,-1
 1522 1651 l 1,22,-1
 1409 1477 l 1,23,24
 1503 1435 1503 1435 1557.5 1363 c 128,-1,25
 1612 1291 1612 1291 1612 1180 c 2,26,-1
 1612 342 l 2,27,28
 1612 250 1612 250 1579.5 187.5 c 128,-1,29
 1547 125 1547 125 1489 83.5 c 128,-1,30
 1431 42 1431 42 1352.5 18.5 c 128,-1,31
 1274 -5 1274 -5 1181 -19 c 0,32,33
 1121 -29 1121 -29 1048.5 -33.5 c 128,-1,34
 976 -38 976 -38 890 -38 c 1,35,-1
 890 -39 l 1,0,1
984 192 m 1,36,-1
 984 826 l 1,37,-1
 804 550 l 1,38,-1
 804 192 l 1,39,-1
 984 192 l 1,36,-1
804 828 m 1,40,-1
 984 1104 l 1,41,-1
 984 1331 l 1,42,-1
 804 1331 l 1,43,-1
 804 828 l 1,40,-1
EndSplineSet
EndChar

StartChar: Ugrave
Encoding: 217 217 151
Width: 1812
Flags: W
LayerCount: 2
Fore
SplineSet
1287 1767 m 1,0,1
 1306 1752 1306 1752 1314.5 1740.5 c 128,-1,2
 1323 1729 1323 1729 1323 1723 c 0,3,4
 1323 1710 1323 1710 1303.5 1702.5 c 128,-1,5
 1284 1695 1284 1695 1258 1695 c 0,6,7
 1250 1695 1250 1695 1241.5 1696 c 128,-1,8
 1233 1697 1233 1697 1223 1700 c 0,9,10
 1169 1715 1169 1715 1109.5 1731.5 c 128,-1,11
 1050 1748 1050 1748 990.5 1764.5 c 128,-1,12
 931 1781 931 1781 873 1797 c 128,-1,13
 815 1813 815 1813 764 1828.5 c 128,-1,14
 713 1844 713 1844 671.5 1858.5 c 128,-1,15
 630 1873 630 1873 604 1886 c 1,16,17
 543 1921 543 1921 513.5 1964.5 c 128,-1,18
 484 2008 484 2008 484 2047 c 0,19,20
 484 2078 484 2078 497 2106 c 128,-1,21
 510 2134 510 2134 534 2155.5 c 128,-1,22
 558 2177 558 2177 591.5 2189.5 c 128,-1,23
 625 2202 625 2202 665 2202 c 0,24,25
 696 2202 696 2202 729 2193.5 c 128,-1,26
 762 2185 762 2185 794 2170 c 1,27,28
 824 2151 824 2151 869 2117.5 c 128,-1,29
 914 2084 914 2084 965.5 2043 c 128,-1,30
 1017 2002 1017 2002 1070.5 1957 c 128,-1,31
 1124 1912 1124 1912 1171 1871 c 2,32,-1
 1287 1768 l 1,33,-1
 1287 1767 l 1,0,1
993 191 m 1,34,-1
 993 1520 l 1,35,-1
 1622 1520 l 1,36,-1
 1622 342 l 2,37,38
 1622 255 1622 255 1590.5 193 c 128,-1,39
 1559 131 1559 131 1505 88.5 c 128,-1,40
 1451 46 1451 46 1379 21 c 128,-1,41
 1307 -4 1307 -4 1227 -17 c 128,-1,42
 1147 -30 1147 -30 1063 -34 c 128,-1,43
 979 -38 979 -38 901 -38 c 0,44,45
 829 -38 829 -38 747.5 -34 c 128,-1,46
 666 -30 666 -30 586.5 -17 c 128,-1,47
 507 -4 507 -4 434 21 c 128,-1,48
 361 46 361 46 305 88.5 c 128,-1,49
 249 131 249 131 216 193 c 128,-1,50
 183 255 183 255 183 343 c 2,51,-1
 183 1521 l 1,52,-1
 813 1521 l 1,53,-1
 813 191 l 1,54,-1
 993 191 l 1,34,-1
EndSplineSet
EndChar

StartChar: Uacute
Encoding: 218 218 152
Width: 1812
Flags: W
LayerCount: 2
Fore
SplineSet
637 1871 m 2,0,1
 684 1913 684 1913 736 1958 c 128,-1,2
 788 2003 788 2003 838.5 2043.5 c 128,-1,3
 889 2084 889 2084 934 2117 c 128,-1,4
 979 2150 979 2150 1012 2170 c 1,5,6
 1044 2185 1044 2185 1076.5 2193.5 c 128,-1,7
 1109 2202 1109 2202 1141 2202 c 0,8,9
 1182 2202 1182 2202 1215.5 2189.5 c 128,-1,10
 1249 2177 1249 2177 1273 2155.5 c 128,-1,11
 1297 2134 1297 2134 1310 2106 c 128,-1,12
 1323 2078 1323 2078 1323 2047 c 0,13,14
 1323 2008 1323 2008 1292.5 1964.5 c 128,-1,15
 1262 1921 1262 1921 1202 1886 c 1,16,17
 1176 1873 1176 1873 1134 1858.5 c 128,-1,18
 1092 1844 1092 1844 1040.5 1828.5 c 128,-1,19
 989 1813 989 1813 930.5 1796.5 c 128,-1,20
 872 1780 872 1780 812 1764 c 128,-1,21
 752 1748 752 1748 693 1731.5 c 128,-1,22
 634 1715 634 1715 582 1700 c 0,23,24
 574 1697 574 1697 566 1696 c 128,-1,25
 558 1695 558 1695 550 1695 c 0,26,27
 521 1695 521 1695 502.5 1702.5 c 128,-1,28
 484 1710 484 1710 484 1723 c 0,29,30
 484 1729 484 1729 491.5 1740.5 c 128,-1,31
 499 1752 499 1752 518 1768 c 2,32,-1
 637 1871 l 2,0,1
993 191 m 1,33,-1
 993 1520 l 1,34,-1
 1622 1520 l 1,35,-1
 1622 342 l 2,36,37
 1622 255 1622 255 1590.5 193 c 128,-1,38
 1559 131 1559 131 1505 88.5 c 128,-1,39
 1451 46 1451 46 1379 21 c 128,-1,40
 1307 -4 1307 -4 1227 -17 c 128,-1,41
 1147 -30 1147 -30 1063 -34 c 128,-1,42
 979 -38 979 -38 901 -38 c 0,43,44
 829 -38 829 -38 747.5 -34 c 128,-1,45
 666 -30 666 -30 586.5 -17 c 128,-1,46
 507 -4 507 -4 434 21 c 128,-1,47
 361 46 361 46 305 88.5 c 128,-1,48
 249 131 249 131 216 193 c 128,-1,49
 183 255 183 255 183 343 c 2,50,-1
 183 1521 l 1,51,-1
 813 1521 l 1,52,-1
 813 191 l 1,53,-1
 993 191 l 1,33,-1
EndSplineSet
EndChar

StartChar: Ucircumflex
Encoding: 219 219 153
Width: 1812
Flags: W
LayerCount: 2
Fore
SplineSet
755 2179 m 2,0,1
 776 2208 776 2208 817 2223.5 c 128,-1,2
 858 2239 858 2239 904 2239 c 0,3,4
 947 2239 947 2239 987 2225 c 128,-1,5
 1027 2211 1027 2211 1050 2179 c 2,6,-1
 1324 1779 l 2,7,8
 1341 1753 1341 1753 1343 1736 c 1,9,10
 1343 1718 1343 1718 1323.5 1706.5 c 128,-1,11
 1304 1695 1304 1695 1277 1695 c 0,12,13
 1240 1695 1240 1695 1217 1712 c 2,14,-1
 903 1942 l 1,15,-1
 587 1712 l 2,16,17
 566 1697 566 1697 537 1697 c 0,18,19
 507 1697 507 1697 485 1707.5 c 128,-1,20
 463 1718 463 1718 463 1737 c 1,21,22
 462 1745 462 1745 467 1755 c 128,-1,23
 472 1765 472 1765 482 1779 c 2,24,-1
 755 2179 l 2,0,1
993 191 m 1,25,-1
 993 1520 l 1,26,-1
 1622 1520 l 1,27,-1
 1622 342 l 2,28,29
 1622 255 1622 255 1590.5 193 c 128,-1,30
 1559 131 1559 131 1505 88.5 c 128,-1,31
 1451 46 1451 46 1379 21 c 128,-1,32
 1307 -4 1307 -4 1227 -17 c 128,-1,33
 1147 -30 1147 -30 1063 -34 c 128,-1,34
 979 -38 979 -38 901 -38 c 0,35,36
 829 -38 829 -38 747.5 -34 c 128,-1,37
 666 -30 666 -30 586.5 -17 c 128,-1,38
 507 -4 507 -4 434 21 c 128,-1,39
 361 46 361 46 305 88.5 c 128,-1,40
 249 131 249 131 216 193 c 128,-1,41
 183 255 183 255 183 343 c 2,42,-1
 183 1521 l 1,43,-1
 813 1521 l 1,44,-1
 813 191 l 1,45,-1
 993 191 l 1,25,-1
EndSplineSet
EndChar

StartChar: Udieresis
Encoding: 220 220 154
Width: 1815
Flags: W
LayerCount: 2
Fore
SplineSet
783 1695 m 1,0,-1
 316 1695 l 1,1,-1
 316 1984 l 1,2,-1
 783 1984 l 1,3,-1
 783 1695 l 1,0,-1
1496 1695 m 1,4,-1
 1026 1695 l 1,5,-1
 1026 1984 l 1,6,-1
 1496 1984 l 1,7,-1
 1496 1695 l 1,4,-1
996 191 m 1,8,-1
 996 1520 l 1,9,-1
 1625 1520 l 1,10,-1
 1625 342 l 2,11,12
 1625 255 1625 255 1593.5 193 c 128,-1,13
 1562 131 1562 131 1508 88.5 c 128,-1,14
 1454 46 1454 46 1382 21 c 128,-1,15
 1310 -4 1310 -4 1230 -17 c 128,-1,16
 1150 -30 1150 -30 1066 -34 c 128,-1,17
 982 -38 982 -38 904 -38 c 0,18,19
 832 -38 832 -38 750.5 -34 c 128,-1,20
 669 -30 669 -30 589.5 -17 c 128,-1,21
 510 -4 510 -4 437 21 c 128,-1,22
 364 46 364 46 308 88.5 c 128,-1,23
 252 131 252 131 219 193 c 128,-1,24
 186 255 186 255 186 343 c 2,25,-1
 186 1521 l 1,26,-1
 816 1521 l 1,27,-1
 816 191 l 1,28,-1
 996 191 l 1,8,-1
EndSplineSet
EndChar

StartChar: Yacute
Encoding: 221 221 155
Width: 1534
Flags: W
LayerCount: 2
Fore
SplineSet
745 777 m 1,0,-1
 745 759 l 1,1,-1
 776 759 l 1,2,-1
 776 777 l 1,3,-1
 784 866 l 2,4,5
 784 868 784 868 784.5 869 c 128,-1,6
 785 870 785 870 785 873 c 2,7,-1
 794 972 l 1,8,-1
 955 1521 l 1,9,-1
 1527 1521 l 1,10,-1
 1077 426 l 1,11,-1
 1077 0 l 1,12,-1
 448 0 l 1,13,-1
 448 435 l 1,14,-1
 -4 1521 l 1,15,-1
 571 1521 l 1,16,-1
 728 971 l 1,17,-1
 745 777 l 1,0,-1
496 1871 m 2,18,19
 543 1913 543 1913 595 1958 c 128,-1,20
 647 2003 647 2003 697.5 2043.5 c 128,-1,21
 748 2084 748 2084 793 2117 c 128,-1,22
 838 2150 838 2150 871 2170 c 1,23,24
 903 2185 903 2185 935.5 2193.5 c 128,-1,25
 968 2202 968 2202 1000 2202 c 0,26,27
 1041 2202 1041 2202 1074.5 2189.5 c 128,-1,28
 1108 2177 1108 2177 1131.5 2155.5 c 128,-1,29
 1155 2134 1155 2134 1168 2106 c 128,-1,30
 1181 2078 1181 2078 1181 2047 c 0,31,32
 1181 2008 1181 2008 1151 1964.5 c 128,-1,33
 1121 1921 1121 1921 1061 1886 c 1,34,35
 1035 1873 1035 1873 993 1858.5 c 128,-1,36
 951 1844 951 1844 899.5 1828.5 c 128,-1,37
 848 1813 848 1813 789.5 1796.5 c 128,-1,38
 731 1780 731 1780 671 1764 c 128,-1,39
 611 1748 611 1748 552 1731.5 c 128,-1,40
 493 1715 493 1715 441 1700 c 0,41,42
 433 1697 433 1697 425 1696 c 128,-1,43
 417 1695 417 1695 409 1695 c 0,44,45
 380 1695 380 1695 361.5 1702.5 c 128,-1,46
 343 1710 343 1710 343 1723 c 0,47,48
 343 1729 343 1729 350.5 1740.5 c 128,-1,49
 358 1752 358 1752 377 1768 c 2,50,-1
 496 1871 l 2,18,19
EndSplineSet
EndChar

StartChar: Thorn
Encoding: 222 222 156
Width: 1775
Flags: W
LayerCount: 2
Fore
SplineSet
820 1525 m 1,0,-1
 820 1343 l 1,1,-1
 961 1343 l 2,2,3
 1093 1343 1093 1343 1208.5 1329.5 c 128,-1,4
 1324 1316 1324 1316 1411 1283.5 c 128,-1,5
 1498 1251 1498 1251 1550.5 1196.5 c 128,-1,6
 1603 1142 1603 1142 1610 1061 c 0,7,8
 1613 1020 1613 1020 1613 979 c 2,9,-1
 1613 608 l 2,10,11
 1613 563 1613 563 1609 522.5 c 128,-1,12
 1605 482 1605 482 1590 446 c 1,13,14
 1571 408 1571 408 1535.5 378.5 c 128,-1,15
 1500 349 1500 349 1453.5 326.5 c 128,-1,16
 1407 304 1407 304 1351.5 287.5 c 128,-1,17
 1296 271 1296 271 1238 261 c 1,18,19
 1181 253 1181 253 1112.5 248.5 c 128,-1,20
 1044 244 1044 244 961 244 c 2,21,-1
 820 244 l 1,22,-1
 820 0 l 1,23,-1
 194 0 l 1,24,-1
 194 1525 l 1,25,-1
 820 1525 l 1,0,-1
990 433 m 1,26,-1
 990 1155 l 1,27,-1
 820 1155 l 1,28,-1
 820 433 l 1,29,-1
 990 433 l 1,26,-1
EndSplineSet
EndChar

StartChar: germandbls
Encoding: 223 223 157
Width: 1623
Flags: W
LayerCount: 2
Fore
SplineSet
184 -199 m 1,0,-1
 184 1169 l 2,1,2
 184 1278 184 1278 232 1347 c 128,-1,3
 280 1416 280 1416 365.5 1454.5 c 128,-1,4
 451 1493 451 1493 568 1507 c 128,-1,5
 685 1521 685 1521 824 1521 c 0,6,7
 924 1521 924 1521 1012 1509.5 c 128,-1,8
 1100 1498 1100 1498 1170.5 1471 c 128,-1,9
 1241 1444 1241 1444 1291 1400.5 c 128,-1,10
 1341 1357 1341 1357 1366 1294 c 1,11,12
 1380 1256 1380 1256 1385 1212 c 128,-1,13
 1390 1168 1390 1168 1390 1125 c 0,14,15
 1390 1062 1390 1062 1369.5 1013 c 128,-1,16
 1349 964 1349 964 1311.5 929 c 128,-1,17
 1274 894 1274 894 1222 874 c 128,-1,18
 1170 854 1170 854 1106 850 c 1,19,-1
 1106 811 l 1,20,21
 1187 807 1187 807 1253 784.5 c 128,-1,22
 1319 762 1319 762 1365.5 724.5 c 128,-1,23
 1412 687 1412 687 1437 635.5 c 128,-1,24
 1462 584 1462 584 1462 521 c 2,25,-1
 1462 233 l 2,26,27
 1462 163 1462 163 1436 117.5 c 128,-1,28
 1410 72 1410 72 1363.5 43.5 c 128,-1,29
 1317 15 1317 15 1254 0 c 128,-1,30
 1191 -15 1191 -15 1117 -24 c 0,31,32
 1021 -36 1021 -36 888 -36 c 2,33,-1
 800 -36 l 1,34,-1
 800 151 l 1,35,-1
 946 151 l 1,36,-1
 946 733 l 1,37,-1
 828 733 l 1,38,-1
 828 919 l 1,39,-1
 946 919 l 1,40,-1
 946 1327 l 1,41,-1
 700 1327 l 1,42,-1
 700 -199 l 1,43,-1
 184 -199 l 1,0,-1
EndSplineSet
EndChar

StartChar: agrave
Encoding: 224 224 158
Width: 1664
Flags: W
LayerCount: 2
Fore
SplineSet
1205 1468 m 1,0,1
 1240 1440 1240 1440 1240 1426 c 256,2,3
 1240 1412 1240 1412 1221 1404.5 c 128,-1,4
 1202 1397 1202 1397 1175 1397 c 0,5,6
 1155 1397 1155 1397 1141 1402 c 2,7,-1
 1093 1416 l 1,8,9
 1012 1438 1012 1438 924.5 1461 c 128,-1,10
 837 1484 837 1484 758.5 1506.5 c 128,-1,11
 680 1529 680 1529 617 1550 c 128,-1,12
 554 1571 554 1571 521 1589 c 0,13,14
 458 1623 458 1623 429.5 1667 c 128,-1,15
 401 1711 401 1711 401 1750 c 0,16,17
 401 1781 401 1781 414 1809 c 128,-1,18
 427 1837 427 1837 451 1858.5 c 128,-1,19
 475 1880 475 1880 508 1892.5 c 128,-1,20
 541 1905 541 1905 582 1905 c 0,21,22
 612 1905 612 1905 646.5 1896.5 c 128,-1,23
 681 1888 681 1888 711 1872 c 0,24,25
 743 1855 743 1855 788 1821.5 c 128,-1,26
 833 1788 833 1788 884 1746.5 c 128,-1,27
 935 1705 935 1705 987.5 1659.5 c 128,-1,28
 1040 1614 1040 1614 1087 1573 c 2,29,-1
 1205 1470 l 1,30,-1
 1205 1468 l 1,0,1
1485 232 m 1,31,32
 1486 157 1486 157 1492.5 100 c 128,-1,33
 1499 43 1499 43 1509 1 c 1,34,-1
 968 1 l 1,35,-1
 918 127 l 1,36,37
 872 56 872 56 782.5 15.5 c 128,-1,38
 693 -25 693 -25 562 -25 c 0,39,40
 339 -25 339 -25 231.5 69 c 128,-1,41
 124 163 124 163 124 361 c 0,42,43
 124 574 124 574 249 671 c 128,-1,44
 374 768 374 768 616 768 c 0,45,46
 700 768 700 768 767.5 756 c 128,-1,47
 835 744 835 744 892 727 c 1,48,-1
 892 1081 l 1,49,-1
 749 1081 l 1,50,-1
 749 895 l 1,51,-1
 198 876 l 1,52,53
 195 895 195 895 192.5 915 c 128,-1,54
 190 935 190 935 190 963 c 0,55,56
 190 1031 190 1031 219.5 1080 c 128,-1,57
 249 1129 249 1129 298.5 1162 c 128,-1,58
 348 1195 348 1195 412.5 1214.5 c 128,-1,59
 477 1234 477 1234 546.5 1244 c 128,-1,60
 616 1254 616 1254 686.5 1257 c 128,-1,61
 757 1260 757 1260 818 1260 c 0,62,63
 898 1260 898 1260 978.5 1256.5 c 128,-1,64
 1059 1253 1059 1253 1133 1241.5 c 128,-1,65
 1207 1230 1207 1230 1271.5 1207.5 c 128,-1,66
 1336 1185 1336 1185 1383.5 1146 c 128,-1,67
 1431 1107 1431 1107 1458 1049.5 c 128,-1,68
 1485 992 1485 992 1485 911 c 2,69,-1
 1485 232 l 1,31,32
892 157 m 1,70,-1
 892 639 l 1,71,-1
 719 639 l 1,72,-1
 719 157 l 1,73,-1
 892 157 l 1,70,-1
EndSplineSet
EndChar

StartChar: aacute
Encoding: 225 225 159
Width: 1663
Flags: W
LayerCount: 2
Fore
SplineSet
553 1573 m 2,0,1
 601 1615 601 1615 653.5 1659.5 c 128,-1,2
 706 1704 706 1704 756.5 1744.5 c 128,-1,3
 807 1785 807 1785 852 1818.5 c 128,-1,4
 897 1852 897 1852 930 1872 c 1,5,6
 961 1887 961 1887 994 1896 c 128,-1,7
 1027 1905 1027 1905 1059 1905 c 0,8,9
 1099 1905 1099 1905 1132 1892.5 c 128,-1,10
 1165 1880 1165 1880 1189 1858.5 c 128,-1,11
 1213 1837 1213 1837 1226.5 1809 c 128,-1,12
 1240 1781 1240 1781 1240 1750 c 0,13,14
 1240 1710 1240 1710 1211.5 1667 c 128,-1,15
 1183 1624 1183 1624 1120 1589 c 0,16,17
 1095 1575 1095 1575 1046.5 1558 c 128,-1,18
 998 1541 998 1541 936.5 1522.5 c 128,-1,19
 875 1504 875 1504 806 1485.5 c 128,-1,20
 737 1467 737 1467 672 1449 c 2,21,-1
 612 1433 l 2,22,23
 577 1423 577 1423 537.5 1410 c 128,-1,24
 498 1397 498 1397 467 1397 c 0,25,26
 440 1397 440 1397 420.5 1404.5 c 128,-1,27
 401 1412 401 1412 401 1426 c 0,28,29
 401 1433 401 1433 410 1444 c 128,-1,30
 419 1455 419 1455 436 1470 c 2,31,-1
 553 1573 l 2,0,1
1485 232 m 1,32,33
 1486 157 1486 157 1492.5 100 c 128,-1,34
 1499 43 1499 43 1509 1 c 1,35,-1
 968 1 l 1,36,-1
 918 127 l 1,37,38
 872 56 872 56 782.5 15.5 c 128,-1,39
 693 -25 693 -25 562 -25 c 0,40,41
 339 -25 339 -25 231.5 69 c 128,-1,42
 124 163 124 163 124 361 c 0,43,44
 124 574 124 574 249 671 c 128,-1,45
 374 768 374 768 616 768 c 0,46,47
 700 768 700 768 767.5 756 c 128,-1,48
 835 744 835 744 892 727 c 1,49,-1
 892 1081 l 1,50,-1
 749 1081 l 1,51,-1
 749 895 l 1,52,-1
 198 876 l 1,53,54
 195 895 195 895 192.5 915 c 128,-1,55
 190 935 190 935 190 963 c 0,56,57
 190 1031 190 1031 219.5 1080 c 128,-1,58
 249 1129 249 1129 298.5 1162 c 128,-1,59
 348 1195 348 1195 412.5 1214.5 c 128,-1,60
 477 1234 477 1234 546.5 1244 c 128,-1,61
 616 1254 616 1254 686.5 1257 c 128,-1,62
 757 1260 757 1260 818 1260 c 0,63,64
 898 1260 898 1260 978.5 1256.5 c 128,-1,65
 1059 1253 1059 1253 1133 1241.5 c 128,-1,66
 1207 1230 1207 1230 1271.5 1207.5 c 128,-1,67
 1336 1185 1336 1185 1383.5 1146 c 128,-1,68
 1431 1107 1431 1107 1458 1049.5 c 128,-1,69
 1485 992 1485 992 1485 911 c 2,70,-1
 1485 232 l 1,32,33
892 157 m 1,71,-1
 892 639 l 1,72,-1
 719 639 l 1,73,-1
 719 157 l 1,74,-1
 892 157 l 1,71,-1
EndSplineSet
EndChar

StartChar: acircumflex
Encoding: 226 226 160
Width: 1664
Flags: W
LayerCount: 2
Fore
SplineSet
673 1881 m 2,0,1
 694 1910 694 1910 734.5 1926 c 128,-1,2
 775 1942 775 1942 820 1942 c 256,3,4
 865 1942 865 1942 904.5 1927.5 c 128,-1,5
 944 1913 944 1913 967 1881 c 2,6,-1
 1241 1481 l 2,7,8
 1258 1455 1258 1455 1260 1440 c 1,9,10
 1260 1422 1260 1422 1240.5 1409.5 c 128,-1,11
 1221 1397 1221 1397 1195 1397 c 0,12,13
 1175 1397 1175 1397 1161 1401.5 c 128,-1,14
 1147 1406 1147 1406 1135 1415 c 2,15,-1
 819 1644 l 1,16,-1
 505 1415 l 2,17,18
 483 1399 483 1399 453 1399 c 0,19,20
 424 1399 424 1399 401.5 1410 c 128,-1,21
 379 1421 379 1421 379 1441 c 0,22,23
 379 1454 379 1454 399 1480 c 1,24,-1
 399 1481 l 1,25,-1
 673 1881 l 2,0,1
1485 232 m 1,26,27
 1486 157 1486 157 1492.5 100 c 128,-1,28
 1499 43 1499 43 1509 1 c 1,29,-1
 968 1 l 1,30,-1
 918 127 l 1,31,32
 872 56 872 56 782.5 15.5 c 128,-1,33
 693 -25 693 -25 562 -25 c 0,34,35
 339 -25 339 -25 231.5 69 c 128,-1,36
 124 163 124 163 124 361 c 0,37,38
 124 574 124 574 249 671 c 128,-1,39
 374 768 374 768 616 768 c 0,40,41
 700 768 700 768 767.5 756 c 128,-1,42
 835 744 835 744 892 727 c 1,43,-1
 892 1081 l 1,44,-1
 749 1081 l 1,45,-1
 749 895 l 1,46,-1
 198 876 l 1,47,48
 195 895 195 895 192.5 915 c 128,-1,49
 190 935 190 935 190 963 c 0,50,51
 190 1031 190 1031 219.5 1080 c 128,-1,52
 249 1129 249 1129 298.5 1162 c 128,-1,53
 348 1195 348 1195 412.5 1214.5 c 128,-1,54
 477 1234 477 1234 546.5 1244 c 128,-1,55
 616 1254 616 1254 686.5 1257 c 128,-1,56
 757 1260 757 1260 818 1260 c 0,57,58
 898 1260 898 1260 978.5 1256.5 c 128,-1,59
 1059 1253 1059 1253 1133 1241.5 c 128,-1,60
 1207 1230 1207 1230 1271.5 1207.5 c 128,-1,61
 1336 1185 1336 1185 1383.5 1146 c 128,-1,62
 1431 1107 1431 1107 1458 1049.5 c 128,-1,63
 1485 992 1485 992 1485 911 c 2,64,-1
 1485 232 l 1,26,27
892 157 m 1,65,-1
 892 639 l 1,66,-1
 719 639 l 1,67,-1
 719 157 l 1,68,-1
 892 157 l 1,65,-1
EndSplineSet
EndChar

StartChar: atilde
Encoding: 227 227 161
Width: 1690
Flags: W
LayerCount: 2
Fore
SplineSet
1196 1422 m 1,0,1
 1195 1452 1195 1452 1188.5 1481 c 128,-1,2
 1182 1510 1182 1510 1168 1532.5 c 128,-1,3
 1154 1555 1154 1555 1132.5 1568.5 c 128,-1,4
 1111 1582 1111 1582 1080 1582 c 0,5,6
 1053 1582 1053 1582 1027.5 1568 c 128,-1,7
 1002 1554 1002 1554 983 1539 c 2,8,-1
 973 1531 l 2,9,10
 939 1505 939 1505 901 1481 c 128,-1,11
 863 1457 863 1457 817.5 1438 c 128,-1,12
 772 1419 772 1419 716.5 1408 c 128,-1,13
 661 1397 661 1397 592 1397 c 0,14,15
 499 1397 499 1397 432 1416 c 128,-1,16
 365 1435 365 1435 318.5 1471.5 c 128,-1,17
 272 1508 272 1508 242.5 1561.5 c 128,-1,18
 213 1615 213 1615 196 1684 c 1,19,20
 183 1729 183 1729 176 1783 c 128,-1,21
 169 1837 169 1837 169 1897 c 1,22,-1
 475 1897 l 1,23,24
 475 1865 475 1865 481 1835.5 c 128,-1,25
 487 1806 487 1806 500.5 1783 c 128,-1,26
 514 1760 514 1760 537 1746 c 128,-1,27
 560 1732 560 1732 593 1732 c 0,28,29
 620 1732 620 1732 646 1747 c 128,-1,30
 672 1762 672 1762 694 1778 c 2,31,-1
 705 1786 l 1,32,33
 740 1810 740 1810 778 1834.5 c 128,-1,34
 816 1859 816 1859 860.5 1878.5 c 128,-1,35
 905 1898 905 1898 958.5 1910 c 128,-1,36
 1012 1922 1012 1922 1077 1922 c 0,37,38
 1171 1922 1171 1922 1238.5 1907 c 128,-1,39
 1306 1892 1306 1892 1353 1862.5 c 128,-1,40
 1400 1833 1400 1833 1428.5 1790 c 128,-1,41
 1457 1747 1457 1747 1473 1691.5 c 128,-1,42
 1489 1636 1489 1636 1494 1568.5 c 128,-1,43
 1499 1501 1499 1501 1499 1422 c 1,44,-1
 1196 1422 l 1,0,1
1192 1390 m 1,45,-1
 1192 1422 l 1,46,-1
 1196 1422 l 1,47,-1
 1196 1396 l 1,48,-1
 1192 1390 l 1,45,-1
1499 232 m 1,49,50
 1500 157 1500 157 1506.5 100 c 128,-1,51
 1513 43 1513 43 1523 1 c 1,52,-1
 982 1 l 1,53,-1
 932 127 l 1,54,55
 886 56 886 56 796.5 15.5 c 128,-1,56
 707 -25 707 -25 576 -25 c 0,57,58
 353 -25 353 -25 245.5 69 c 128,-1,59
 138 163 138 163 138 361 c 0,60,61
 138 574 138 574 263 671 c 128,-1,62
 388 768 388 768 630 768 c 0,63,64
 714 768 714 768 781.5 756 c 128,-1,65
 849 744 849 744 906 727 c 1,66,-1
 906 1081 l 1,67,-1
 763 1081 l 1,68,-1
 763 895 l 1,69,-1
 212 876 l 1,70,71
 209 895 209 895 206.5 915 c 128,-1,72
 204 935 204 935 204 963 c 0,73,74
 204 1031 204 1031 233.5 1080 c 128,-1,75
 263 1129 263 1129 312.5 1162 c 128,-1,76
 362 1195 362 1195 426.5 1214.5 c 128,-1,77
 491 1234 491 1234 560.5 1244 c 128,-1,78
 630 1254 630 1254 700.5 1257 c 128,-1,79
 771 1260 771 1260 832 1260 c 0,80,81
 912 1260 912 1260 992.5 1256.5 c 128,-1,82
 1073 1253 1073 1253 1147 1241.5 c 128,-1,83
 1221 1230 1221 1230 1285.5 1207.5 c 128,-1,84
 1350 1185 1350 1185 1397.5 1146 c 128,-1,85
 1445 1107 1445 1107 1472 1049.5 c 128,-1,86
 1499 992 1499 992 1499 911 c 2,87,-1
 1499 232 l 1,49,50
906 157 m 1,88,-1
 906 639 l 1,89,-1
 733 639 l 1,90,-1
 733 157 l 1,91,-1
 906 157 l 1,88,-1
EndSplineSet
EndChar

StartChar: adieresis
Encoding: 228 228 162
Width: 1681
Flags: W
LayerCount: 2
Fore
SplineSet
711 1397 m 1,0,-1
 244 1397 l 1,1,-1
 244 1687 l 1,2,-1
 711 1687 l 1,3,-1
 711 1397 l 1,0,-1
1422 1397 m 1,4,-1
 954 1397 l 1,5,-1
 954 1687 l 1,6,-1
 1422 1687 l 1,7,-1
 1422 1397 l 1,4,-1
1497 232 m 1,8,9
 1498 157 1498 157 1504.5 100 c 128,-1,10
 1511 43 1511 43 1521 1 c 1,11,-1
 980 1 l 1,12,-1
 930 127 l 1,13,14
 884 56 884 56 794.5 15.5 c 128,-1,15
 705 -25 705 -25 574 -25 c 0,16,17
 351 -25 351 -25 243.5 69 c 128,-1,18
 136 163 136 163 136 361 c 0,19,20
 136 574 136 574 261 671 c 128,-1,21
 386 768 386 768 628 768 c 0,22,23
 712 768 712 768 779.5 756 c 128,-1,24
 847 744 847 744 904 727 c 1,25,-1
 904 1081 l 1,26,-1
 761 1081 l 1,27,-1
 761 895 l 1,28,-1
 210 876 l 1,29,30
 207 895 207 895 204.5 915 c 128,-1,31
 202 935 202 935 202 963 c 0,32,33
 202 1031 202 1031 231.5 1080 c 128,-1,34
 261 1129 261 1129 310.5 1162 c 128,-1,35
 360 1195 360 1195 424.5 1214.5 c 128,-1,36
 489 1234 489 1234 558.5 1244 c 128,-1,37
 628 1254 628 1254 698.5 1257 c 128,-1,38
 769 1260 769 1260 830 1260 c 0,39,40
 910 1260 910 1260 990.5 1256.5 c 128,-1,41
 1071 1253 1071 1253 1145 1241.5 c 128,-1,42
 1219 1230 1219 1230 1283.5 1207.5 c 128,-1,43
 1348 1185 1348 1185 1395.5 1146 c 128,-1,44
 1443 1107 1443 1107 1470 1049.5 c 128,-1,45
 1497 992 1497 992 1497 911 c 2,46,-1
 1497 232 l 1,8,9
904 157 m 1,47,-1
 904 639 l 1,48,-1
 731 639 l 1,49,-1
 731 157 l 1,50,-1
 904 157 l 1,47,-1
EndSplineSet
EndChar

StartChar: aring
Encoding: 229 229 163
Width: 1662
Flags: W
LayerCount: 2
Fore
SplineSet
472 1691 m 0,0,1
 472 1760 472 1760 503.5 1814.5 c 128,-1,2
 535 1869 535 1869 585 1907 c 128,-1,3
 635 1945 635 1945 696.5 1965.5 c 128,-1,4
 758 1986 758 1986 818 1986 c 0,5,6
 902 1986 902 1986 966.5 1960.5 c 128,-1,7
 1031 1935 1031 1935 1075 1893.5 c 128,-1,8
 1119 1852 1119 1852 1141.5 1799 c 128,-1,9
 1164 1746 1164 1746 1164 1691 c 0,10,11
 1164 1623 1164 1623 1132.5 1568.5 c 128,-1,12
 1101 1514 1101 1514 1051.5 1476 c 128,-1,13
 1002 1438 1002 1438 940 1417.5 c 128,-1,14
 878 1397 878 1397 818 1397 c 0,15,16
 734 1397 734 1397 669 1423 c 128,-1,17
 604 1449 604 1449 560.5 1491 c 128,-1,18
 517 1533 517 1533 494.5 1585.5 c 128,-1,19
 472 1638 472 1638 472 1691 c 0,0,1
816 1828 m 256,20,21
 789 1828 789 1828 766.5 1817.5 c 128,-1,22
 744 1807 744 1807 727 1789 c 128,-1,23
 710 1771 710 1771 700.5 1746 c 128,-1,24
 691 1721 691 1721 691 1691 c 0,25,26
 691 1662 691 1662 701 1637 c 128,-1,27
 711 1612 711 1612 728 1593.5 c 128,-1,28
 745 1575 745 1575 767.5 1564 c 128,-1,29
 790 1553 790 1553 816 1553 c 256,30,31
 842 1553 842 1553 865 1564 c 128,-1,32
 888 1575 888 1575 905.5 1594 c 128,-1,33
 923 1613 923 1613 933 1638 c 128,-1,34
 943 1663 943 1663 943 1691 c 0,35,36
 943 1720 943 1720 933 1745 c 128,-1,37
 923 1770 923 1770 906 1788.5 c 128,-1,38
 889 1807 889 1807 866 1817.5 c 128,-1,39
 843 1828 843 1828 816 1828 c 256,20,21
1484 232 m 1,40,41
 1485 157 1485 157 1491.5 100 c 128,-1,42
 1498 43 1498 43 1508 1 c 1,43,-1
 967 1 l 1,44,-1
 917 127 l 1,45,46
 871 56 871 56 781.5 15.5 c 128,-1,47
 692 -25 692 -25 561 -25 c 0,48,49
 338 -25 338 -25 230.5 69 c 128,-1,50
 123 163 123 163 123 361 c 0,51,52
 123 574 123 574 248 671 c 128,-1,53
 373 768 373 768 615 768 c 0,54,55
 699 768 699 768 766.5 756 c 128,-1,56
 834 744 834 744 891 727 c 1,57,-1
 891 1081 l 1,58,-1
 748 1081 l 1,59,-1
 748 895 l 1,60,-1
 197 876 l 1,61,62
 194 895 194 895 191.5 915 c 128,-1,63
 189 935 189 935 189 963 c 0,64,65
 189 1031 189 1031 218.5 1080 c 128,-1,66
 248 1129 248 1129 297.5 1162 c 128,-1,67
 347 1195 347 1195 411.5 1214.5 c 128,-1,68
 476 1234 476 1234 545.5 1244 c 128,-1,69
 615 1254 615 1254 685.5 1257 c 128,-1,70
 756 1260 756 1260 817 1260 c 0,71,72
 897 1260 897 1260 977.5 1256.5 c 128,-1,73
 1058 1253 1058 1253 1132 1241.5 c 128,-1,74
 1206 1230 1206 1230 1270.5 1207.5 c 128,-1,75
 1335 1185 1335 1185 1382.5 1146 c 128,-1,76
 1430 1107 1430 1107 1457 1049.5 c 128,-1,77
 1484 992 1484 992 1484 911 c 2,78,-1
 1484 232 l 1,40,41
891 157 m 1,79,-1
 891 639 l 1,80,-1
 718 639 l 1,81,-1
 718 157 l 1,82,-1
 891 157 l 1,79,-1
EndSplineSet
EndChar

StartChar: ae
Encoding: 230 230 164
Width: 2382
Flags: W
LayerCount: 2
Fore
SplineSet
808 1275 m 0,0,1
 919 1275 919 1275 1014 1255 c 128,-1,2
 1109 1235 1109 1235 1171 1200 c 1,3,4
 1237 1236 1237 1236 1334 1256.5 c 128,-1,5
 1431 1277 1431 1277 1543 1277 c 0,6,7
 1675 1277 1675 1277 1791 1263.5 c 128,-1,8
 1907 1250 1907 1250 1996.5 1217.5 c 128,-1,9
 2086 1185 2086 1185 2141.5 1131 c 128,-1,10
 2197 1077 2197 1077 2208 995 c 0,11,12
 2210 974 2210 974 2211 953.5 c 128,-1,13
 2212 933 2212 933 2212 915 c 2,14,-1
 2212 592 l 1,15,-1
 1468 592 l 1,16,-1
 1468 208 l 1,17,-1
 1618 208 l 1,18,-1
 1618 452 l 1,19,-1
 2211 452 l 1,20,-1
 2211 326 l 1,21,22
 2208 212 2208 212 2154 141.5 c 128,-1,23
 2100 71 2100 71 2008.5 32 c 128,-1,24
 1917 -7 1917 -7 1796 -21 c 128,-1,25
 1675 -35 1675 -35 1539 -35 c 0,26,27
 1420 -35 1420 -35 1329.5 -4.5 c 128,-1,28
 1239 26 1239 26 1176 71 c 1,29,-1
 1176 72 l 1,30,31
 1079 24 1079 24 945.5 -5.5 c 128,-1,32
 812 -35 812 -35 654 -35 c 0,33,34
 522 -35 522 -35 423 -8 c 128,-1,35
 324 19 324 19 257.5 70 c 128,-1,36
 191 121 191 121 158 194.5 c 128,-1,37
 125 268 125 268 125 361 c 0,38,39
 125 573 125 573 248.5 670.5 c 128,-1,40
 372 768 372 768 614 768 c 0,41,42
 695 768 695 768 757 756 c 128,-1,43
 819 744 819 744 873 727 c 1,44,-1
 873 1030 l 1,45,-1
 746 1030 l 1,46,-1
 746 895 l 1,47,48
 743 895 743 895 740 894.5 c 128,-1,49
 737 894 737 894 734 894 c 2,50,-1
 510 885 l 2,51,52
 507 885 507 885 503.5 884.5 c 128,-1,53
 500 884 500 884 497 884 c 0,54,55
 491 884 491 884 485 884.5 c 128,-1,56
 479 885 479 885 472 885 c 2,57,-1
 237 876 l 2,58,59
 232 876 232 876 226.5 875.5 c 128,-1,60
 221 875 221 875 216 875 c 2,61,-1
 196 875 l 1,62,63
 193 894 193 894 190.5 914 c 128,-1,64
 188 934 188 934 188 963 c 0,65,66
 188 1028 188 1028 213 1077 c 128,-1,67
 238 1126 238 1126 281.5 1160.5 c 128,-1,68
 325 1195 325 1195 384.5 1217.5 c 128,-1,69
 444 1240 444 1240 513 1252.5 c 128,-1,70
 582 1265 582 1265 657 1270 c 128,-1,71
 732 1275 732 1275 808 1275 c 0,0,1
873 208 m 1,72,-1
 873 590 l 1,73,-1
 717 590 l 1,74,-1
 717 208 l 1,75,-1
 873 208 l 1,72,-1
1618 744 m 1,76,-1
 1618 1032 l 1,77,-1
 1468 1032 l 1,78,-1
 1468 744 l 1,79,-1
 1618 744 l 1,76,-1
EndSplineSet
EndChar

StartChar: ccedilla
Encoding: 231 231 165
Width: 1684
Flags: W
LayerCount: 2
Fore
SplineSet
928 -49 m 1,0,-1
 928 -118 l 1,1,2
 983 -118 983 -118 1027.5 -124 c 128,-1,3
 1072 -130 1072 -130 1103 -145 c 128,-1,4
 1134 -160 1134 -160 1151 -186 c 128,-1,5
 1168 -212 1168 -212 1168 -253 c 2,6,-1
 1168 -346 l 2,7,8
 1168 -390 1168 -390 1147.5 -417 c 128,-1,9
 1127 -444 1127 -444 1091.5 -458 c 128,-1,10
 1056 -472 1056 -472 1008 -476.5 c 128,-1,11
 960 -481 960 -481 905 -481 c 0,12,13
 847 -481 847 -481 798.5 -476 c 128,-1,14
 750 -471 750 -471 715 -457 c 128,-1,15
 680 -443 680 -443 660.5 -416.5 c 128,-1,16
 641 -390 641 -390 641 -346 c 2,17,-1
 641 -310 l 1,18,-1
 878 -283 l 1,19,-1
 878 -413 l 1,20,-1
 944 -413 l 1,21,-1
 944 -186 l 1,22,-1
 745 -186 l 1,23,-1
 745 -49 l 1,24,-1
 928 -49 l 1,0,-1
1519 324 m 2,25,26
 1519 241 1519 241 1490.5 182.5 c 128,-1,27
 1462 124 1462 124 1412.5 85.5 c 128,-1,28
 1363 47 1363 47 1296.5 25 c 128,-1,29
 1230 3 1230 3 1154 -8.5 c 128,-1,30
 1078 -20 1078 -20 997 -22.5 c 128,-1,31
 916 -25 916 -25 838 -25 c 0,32,33
 758 -25 758 -25 676.5 -22 c 128,-1,34
 595 -19 595 -19 519 -7 c 128,-1,35
 443 5 443 5 377 27.5 c 128,-1,36
 311 50 311 50 262 89.5 c 128,-1,37
 213 129 213 129 184.5 187 c 128,-1,38
 156 245 156 245 156 327 c 2,39,-1
 156 914 l 2,40,41
 156 996 156 996 185.5 1053.5 c 128,-1,42
 215 1111 215 1111 266 1149.5 c 128,-1,43
 317 1188 317 1188 385 1210 c 128,-1,44
 453 1232 453 1232 529.5 1243 c 128,-1,45
 606 1254 606 1254 687 1257 c 128,-1,46
 768 1260 768 1260 845 1260 c 0,47,48
 911 1260 911 1260 987 1258.5 c 128,-1,49
 1063 1257 1063 1257 1137.5 1248 c 128,-1,50
 1212 1239 1212 1239 1281 1219.5 c 128,-1,51
 1350 1200 1350 1200 1402.5 1164 c 128,-1,52
 1455 1128 1455 1128 1486.5 1073 c 128,-1,53
 1518 1018 1518 1018 1518 938 c 2,54,-1
 1518 769 l 1,55,-1
 923 769 l 1,56,-1
 923 1080 l 1,57,-1
 750 1080 l 1,58,-1
 750 156 l 1,59,-1
 928 156 l 1,60,-1
 928 488 l 1,61,-1
 1518 488 l 1,62,-1
 1519 324 l 2,25,26
EndSplineSet
EndChar

StartChar: egrave
Encoding: 232 232 166
Width: 1683
Flags: W
LayerCount: 2
Fore
SplineSet
1222 1468 m 1,0,1
 1257 1440 1257 1440 1257 1426 c 256,2,3
 1257 1412 1257 1412 1238 1404.5 c 128,-1,4
 1219 1397 1219 1397 1192 1397 c 0,5,6
 1172 1397 1172 1397 1158 1402 c 2,7,-1
 1110 1416 l 1,8,9
 1029 1438 1029 1438 941.5 1461 c 128,-1,10
 854 1484 854 1484 775.5 1506.5 c 128,-1,11
 697 1529 697 1529 634 1550 c 128,-1,12
 571 1571 571 1571 538 1589 c 0,13,14
 475 1623 475 1623 446.5 1667 c 128,-1,15
 418 1711 418 1711 418 1750 c 0,16,17
 418 1781 418 1781 431 1809 c 128,-1,18
 444 1837 444 1837 468 1858.5 c 128,-1,19
 492 1880 492 1880 525 1892.5 c 128,-1,20
 558 1905 558 1905 599 1905 c 0,21,22
 629 1905 629 1905 663.5 1896.5 c 128,-1,23
 698 1888 698 1888 728 1872 c 0,24,25
 760 1855 760 1855 805 1821.5 c 128,-1,26
 850 1788 850 1788 901 1746.5 c 128,-1,27
 952 1705 952 1705 1004.5 1659.5 c 128,-1,28
 1057 1614 1057 1614 1104 1573 c 2,29,-1
 1222 1470 l 1,30,-1
 1222 1468 l 1,0,1
1515 449 m 1,31,32
 1519 421 1519 421 1521 397 c 128,-1,33
 1523 373 1523 373 1523 352 c 0,34,35
 1523 246 1523 246 1480.5 174 c 128,-1,36
 1438 102 1438 102 1352 57.5 c 128,-1,37
 1266 13 1266 13 1137 -6 c 128,-1,38
 1008 -25 1008 -25 835 -25 c 0,39,40
 756 -25 756 -25 675 -22.5 c 128,-1,41
 594 -20 594 -20 518 -9 c 128,-1,42
 442 2 442 2 375.5 24 c 128,-1,43
 309 46 309 46 259.5 85 c 128,-1,44
 210 124 210 124 181.5 182.5 c 128,-1,45
 153 241 153 241 153 325 c 2,46,-1
 153 912 l 2,47,48
 153 993 153 993 182.5 1050.5 c 128,-1,49
 212 1108 212 1108 263 1147 c 128,-1,50
 314 1186 314 1186 381.5 1208.5 c 128,-1,51
 449 1231 449 1231 524.5 1242.5 c 128,-1,52
 600 1254 600 1254 679.5 1257 c 128,-1,53
 759 1260 759 1260 833 1260 c 0,54,55
 909 1260 909 1260 989.5 1257 c 128,-1,56
 1070 1254 1070 1254 1146 1243 c 128,-1,57
 1222 1232 1222 1232 1289 1209.5 c 128,-1,58
 1356 1187 1356 1187 1406 1148.5 c 128,-1,59
 1456 1110 1456 1110 1485.5 1052.5 c 128,-1,60
 1515 995 1515 995 1515 913 c 2,61,-1
 1515 590 l 1,62,-1
 747 590 l 1,63,-1
 747 156 l 1,64,-1
 920 156 l 1,65,-1
 920 434 l 1,66,-1
 1515 434 l 1,67,-1
 1515 449 l 1,31,32
921 721 m 1,68,-1
 921 1080 l 1,69,-1
 747 1080 l 1,70,-1
 747 721 l 1,71,-1
 921 721 l 1,68,-1
EndSplineSet
EndChar

